G04 #@! TF.GenerationSoftware,KiCad,Pcbnew,(2017-08-04 revision 7bf9f8e1c)-master*
G04 #@! TF.CreationDate,2018-06-13T20:52:22+02:00*
G04 #@! TF.ProjectId,pcb-f2-a,7063622D66322D612E6B696361645F70,rev?*
G04 #@! TF.SameCoordinates,Original*
G04 #@! TF.FileFunction,Legend,Top*
G04 #@! TF.FilePolarity,Positive*
%FSLAX46Y46*%
G04 Gerber Fmt 4.6, Leading zero omitted, Abs format (unit mm)*
G04 Created by KiCad (PCBNEW (2017-08-04 revision 7bf9f8e1c)-master) date Wed Jun 13 20:52:22 2018*
%MOMM*%
%LPD*%
G01*
G04 APERTURE LIST*
%ADD10C,0.300000*%
%ADD11C,0.160000*%
%ADD12C,0.150000*%
%ADD13C,0.120000*%
%ADD14C,0.050800*%
%ADD15C,0.099060*%
%ADD16C,0.203200*%
%ADD17C,0.304800*%
%ADD18C,0.127000*%
%ADD19C,0.152400*%
G04 APERTURE END LIST*
D10*
X109214171Y-112996171D02*
X109214171Y-114210457D01*
X109285600Y-114353314D01*
X109357028Y-114424742D01*
X109499885Y-114496171D01*
X109785600Y-114496171D01*
X109928457Y-114424742D01*
X109999885Y-114353314D01*
X110071314Y-114210457D01*
X110071314Y-112996171D01*
X110714171Y-114424742D02*
X110928457Y-114496171D01*
X111285600Y-114496171D01*
X111428457Y-114424742D01*
X111499885Y-114353314D01*
X111571314Y-114210457D01*
X111571314Y-114067600D01*
X111499885Y-113924742D01*
X111428457Y-113853314D01*
X111285600Y-113781885D01*
X110999885Y-113710457D01*
X110857028Y-113639028D01*
X110785600Y-113567600D01*
X110714171Y-113424742D01*
X110714171Y-113281885D01*
X110785600Y-113139028D01*
X110857028Y-113067600D01*
X110999885Y-112996171D01*
X111357028Y-112996171D01*
X111571314Y-113067600D01*
X112214171Y-113710457D02*
X112714171Y-113710457D01*
X112928457Y-114496171D02*
X112214171Y-114496171D01*
X112214171Y-112996171D01*
X112928457Y-112996171D01*
X114428457Y-114496171D02*
X113928457Y-113781885D01*
X113571314Y-114496171D02*
X113571314Y-112996171D01*
X114142742Y-112996171D01*
X114285600Y-113067600D01*
X114357028Y-113139028D01*
X114428457Y-113281885D01*
X114428457Y-113496171D01*
X114357028Y-113639028D01*
X114285600Y-113710457D01*
X114142742Y-113781885D01*
X113571314Y-113781885D01*
X110964171Y-86454571D02*
X110464171Y-85740285D01*
X110107028Y-86454571D02*
X110107028Y-84954571D01*
X110678457Y-84954571D01*
X110821314Y-85026000D01*
X110892742Y-85097428D01*
X110964171Y-85240285D01*
X110964171Y-85454571D01*
X110892742Y-85597428D01*
X110821314Y-85668857D01*
X110678457Y-85740285D01*
X110107028Y-85740285D01*
X111535600Y-86383142D02*
X111749885Y-86454571D01*
X112107028Y-86454571D01*
X112249885Y-86383142D01*
X112321314Y-86311714D01*
X112392742Y-86168857D01*
X112392742Y-86026000D01*
X112321314Y-85883142D01*
X112249885Y-85811714D01*
X112107028Y-85740285D01*
X111821314Y-85668857D01*
X111678457Y-85597428D01*
X111607028Y-85526000D01*
X111535600Y-85383142D01*
X111535600Y-85240285D01*
X111607028Y-85097428D01*
X111678457Y-85026000D01*
X111821314Y-84954571D01*
X112178457Y-84954571D01*
X112392742Y-85026000D01*
X112821314Y-84954571D02*
X113678457Y-84954571D01*
X113249885Y-86454571D02*
X113249885Y-84954571D01*
X134131428Y-111092571D02*
X134131428Y-109592571D01*
X134774285Y-109735428D02*
X134845714Y-109664000D01*
X134988571Y-109592571D01*
X135345714Y-109592571D01*
X135488571Y-109664000D01*
X135560000Y-109735428D01*
X135631428Y-109878285D01*
X135631428Y-110021142D01*
X135560000Y-110235428D01*
X134702857Y-111092571D01*
X135631428Y-111092571D01*
X136202857Y-111021142D02*
X136417142Y-111092571D01*
X136774285Y-111092571D01*
X136917142Y-111021142D01*
X136988571Y-110949714D01*
X137060000Y-110806857D01*
X137060000Y-110664000D01*
X136988571Y-110521142D01*
X136917142Y-110449714D01*
X136774285Y-110378285D01*
X136488571Y-110306857D01*
X136345714Y-110235428D01*
X136274285Y-110164000D01*
X136202857Y-110021142D01*
X136202857Y-109878285D01*
X136274285Y-109735428D01*
X136345714Y-109664000D01*
X136488571Y-109592571D01*
X136845714Y-109592571D01*
X137060000Y-109664000D01*
D11*
X132011380Y-104580000D02*
X131916142Y-104532380D01*
X131773285Y-104532380D01*
X131630428Y-104580000D01*
X131535190Y-104675238D01*
X131487571Y-104770476D01*
X131439952Y-104960952D01*
X131439952Y-105103809D01*
X131487571Y-105294285D01*
X131535190Y-105389523D01*
X131630428Y-105484761D01*
X131773285Y-105532380D01*
X131868523Y-105532380D01*
X132011380Y-105484761D01*
X132059000Y-105437142D01*
X132059000Y-105103809D01*
X131868523Y-105103809D01*
X132487571Y-104865714D02*
X132487571Y-105532380D01*
X132487571Y-104960952D02*
X132535190Y-104913333D01*
X132630428Y-104865714D01*
X132773285Y-104865714D01*
X132868523Y-104913333D01*
X132916142Y-105008571D01*
X132916142Y-105532380D01*
X133820904Y-105532380D02*
X133820904Y-104532380D01*
X133820904Y-105484761D02*
X133725666Y-105532380D01*
X133535190Y-105532380D01*
X133439952Y-105484761D01*
X133392333Y-105437142D01*
X133344714Y-105341904D01*
X133344714Y-105056190D01*
X133392333Y-104960952D01*
X133439952Y-104913333D01*
X133535190Y-104865714D01*
X133725666Y-104865714D01*
X133820904Y-104913333D01*
X132392333Y-100404760D02*
X132535190Y-100452379D01*
X132773285Y-100452379D01*
X132868523Y-100404760D01*
X132916142Y-100357141D01*
X132963761Y-100261903D01*
X132963761Y-100166665D01*
X132916142Y-100071427D01*
X132868523Y-100023808D01*
X132773285Y-99976189D01*
X132582809Y-99928570D01*
X132487571Y-99880951D01*
X132439952Y-99833332D01*
X132392333Y-99738094D01*
X132392333Y-99642856D01*
X132439952Y-99547618D01*
X132487571Y-99499999D01*
X132582809Y-99452379D01*
X132820904Y-99452379D01*
X132963761Y-99499999D01*
X133820904Y-100452379D02*
X133820904Y-99452379D01*
X133820904Y-100404760D02*
X133725666Y-100452379D01*
X133535190Y-100452379D01*
X133439952Y-100404760D01*
X133392333Y-100357141D01*
X133344714Y-100261903D01*
X133344714Y-99976189D01*
X133392333Y-99880951D01*
X133439952Y-99833332D01*
X133535190Y-99785713D01*
X133725666Y-99785713D01*
X133820904Y-99833332D01*
X131678047Y-92737142D02*
X131630428Y-92784761D01*
X131487571Y-92832380D01*
X131392333Y-92832380D01*
X131249476Y-92784761D01*
X131154238Y-92689523D01*
X131106619Y-92594285D01*
X131059000Y-92403809D01*
X131059000Y-92260952D01*
X131106619Y-92070476D01*
X131154238Y-91975238D01*
X131249476Y-91880000D01*
X131392333Y-91832380D01*
X131487571Y-91832380D01*
X131630428Y-91880000D01*
X131678047Y-91927619D01*
X132106619Y-92832380D02*
X132106619Y-91832380D01*
X132201857Y-92451428D02*
X132487571Y-92832380D01*
X132487571Y-92165714D02*
X132106619Y-92546666D01*
X132916142Y-92832380D02*
X132916142Y-92165714D01*
X132916142Y-91832380D02*
X132868523Y-91880000D01*
X132916142Y-91927619D01*
X132963761Y-91880000D01*
X132916142Y-91832380D01*
X132916142Y-91927619D01*
X133392333Y-92165714D02*
X133392333Y-92832380D01*
X133392333Y-92260952D02*
X133439952Y-92213333D01*
X133535190Y-92165714D01*
X133678047Y-92165714D01*
X133773285Y-92213333D01*
X133820904Y-92308571D01*
X133820904Y-92832380D01*
X131630428Y-97864761D02*
X131773285Y-97912380D01*
X132011380Y-97912380D01*
X132106619Y-97864761D01*
X132154238Y-97817142D01*
X132201857Y-97721904D01*
X132201857Y-97626666D01*
X132154238Y-97531428D01*
X132106619Y-97483809D01*
X132011380Y-97436190D01*
X131820904Y-97388571D01*
X131725666Y-97340952D01*
X131678047Y-97293333D01*
X131630428Y-97198095D01*
X131630428Y-97102857D01*
X131678047Y-97007619D01*
X131725666Y-96960000D01*
X131820904Y-96912380D01*
X132059000Y-96912380D01*
X132201857Y-96960000D01*
X133059000Y-97864761D02*
X132963761Y-97912380D01*
X132773285Y-97912380D01*
X132678047Y-97864761D01*
X132630428Y-97817142D01*
X132582809Y-97721904D01*
X132582809Y-97436190D01*
X132630428Y-97340952D01*
X132678047Y-97293333D01*
X132773285Y-97245714D01*
X132963761Y-97245714D01*
X133059000Y-97293333D01*
X133487571Y-97912380D02*
X133487571Y-96912380D01*
X133582809Y-97531428D02*
X133868523Y-97912380D01*
X133868523Y-97245714D02*
X133487571Y-97626666D01*
X131439952Y-107072380D02*
X132059000Y-107072380D01*
X131725666Y-107453333D01*
X131868523Y-107453333D01*
X131963761Y-107500952D01*
X132011380Y-107548571D01*
X132059000Y-107643809D01*
X132059000Y-107881904D01*
X132011380Y-107977142D01*
X131963761Y-108024761D01*
X131868523Y-108072380D01*
X131582809Y-108072380D01*
X131487571Y-108024761D01*
X131439952Y-107977142D01*
X132344714Y-107072380D02*
X132678047Y-108072380D01*
X133011380Y-107072380D01*
X133249476Y-107072380D02*
X133868523Y-107072380D01*
X133535190Y-107453333D01*
X133678047Y-107453333D01*
X133773285Y-107500952D01*
X133820904Y-107548571D01*
X133868523Y-107643809D01*
X133868523Y-107881904D01*
X133820904Y-107977142D01*
X133773285Y-108024761D01*
X133678047Y-108072380D01*
X133392333Y-108072380D01*
X133297095Y-108024761D01*
X133249476Y-107977142D01*
X132249476Y-102944761D02*
X132392333Y-102992380D01*
X132630428Y-102992380D01*
X132725666Y-102944761D01*
X132773285Y-102897142D01*
X132820904Y-102801904D01*
X132820904Y-102706666D01*
X132773285Y-102611428D01*
X132725666Y-102563809D01*
X132630428Y-102516190D01*
X132439952Y-102468571D01*
X132344714Y-102420952D01*
X132297095Y-102373333D01*
X132249476Y-102278095D01*
X132249476Y-102182857D01*
X132297095Y-102087619D01*
X132344714Y-102040000D01*
X132439952Y-101992380D01*
X132678047Y-101992380D01*
X132820904Y-102040000D01*
X133154238Y-102325714D02*
X133344714Y-102992380D01*
X133535190Y-102516190D01*
X133725666Y-102992380D01*
X133916142Y-102325714D01*
X131360571Y-95372379D02*
X131360571Y-94372379D01*
X131693904Y-95086665D01*
X132027238Y-94372379D01*
X132027238Y-95372379D01*
X132932000Y-95324760D02*
X132836761Y-95372379D01*
X132646285Y-95372379D01*
X132551047Y-95324760D01*
X132503428Y-95277141D01*
X132455809Y-95181903D01*
X132455809Y-94896189D01*
X132503428Y-94800951D01*
X132551047Y-94753332D01*
X132646285Y-94705713D01*
X132836761Y-94705713D01*
X132932000Y-94753332D01*
X133360571Y-95372379D02*
X133360571Y-94372379D01*
X133455809Y-94991427D02*
X133741523Y-95372379D01*
X133741523Y-94705713D02*
X133360571Y-95086665D01*
X132472380Y-121089142D02*
X132472380Y-120470095D01*
X132853333Y-120803428D01*
X132853333Y-120660571D01*
X132900952Y-120565333D01*
X132948571Y-120517714D01*
X133043809Y-120470095D01*
X133281904Y-120470095D01*
X133377142Y-120517714D01*
X133424761Y-120565333D01*
X133472380Y-120660571D01*
X133472380Y-120946285D01*
X133424761Y-121041523D01*
X133377142Y-121089142D01*
X132472380Y-120184380D02*
X133472380Y-119851047D01*
X132472380Y-119517714D01*
X132472380Y-119279619D02*
X132472380Y-118660571D01*
X132853333Y-118993904D01*
X132853333Y-118851047D01*
X132900952Y-118755809D01*
X132948571Y-118708190D01*
X133043809Y-118660571D01*
X133281904Y-118660571D01*
X133377142Y-118708190D01*
X133424761Y-118755809D01*
X133472380Y-118851047D01*
X133472380Y-119136761D01*
X133424761Y-119232000D01*
X133377142Y-119279619D01*
D10*
X55657142Y-125153571D02*
X55657142Y-126367857D01*
X55728571Y-126510714D01*
X55800000Y-126582142D01*
X55942857Y-126653571D01*
X56228571Y-126653571D01*
X56371428Y-126582142D01*
X56442857Y-126510714D01*
X56514285Y-126367857D01*
X56514285Y-125153571D01*
X57157142Y-126582142D02*
X57371428Y-126653571D01*
X57728571Y-126653571D01*
X57871428Y-126582142D01*
X57942857Y-126510714D01*
X58014285Y-126367857D01*
X58014285Y-126225000D01*
X57942857Y-126082142D01*
X57871428Y-126010714D01*
X57728571Y-125939285D01*
X57442857Y-125867857D01*
X57300000Y-125796428D01*
X57228571Y-125725000D01*
X57157142Y-125582142D01*
X57157142Y-125439285D01*
X57228571Y-125296428D01*
X57300000Y-125225000D01*
X57442857Y-125153571D01*
X57800000Y-125153571D01*
X58014285Y-125225000D01*
X59157142Y-125867857D02*
X59371428Y-125939285D01*
X59442857Y-126010714D01*
X59514285Y-126153571D01*
X59514285Y-126367857D01*
X59442857Y-126510714D01*
X59371428Y-126582142D01*
X59228571Y-126653571D01*
X58657142Y-126653571D01*
X58657142Y-125153571D01*
X59157142Y-125153571D01*
X59300000Y-125225000D01*
X59371428Y-125296428D01*
X59442857Y-125439285D01*
X59442857Y-125582142D01*
X59371428Y-125725000D01*
X59300000Y-125796428D01*
X59157142Y-125867857D01*
X58657142Y-125867857D01*
X57050000Y-128417857D02*
X56550000Y-128417857D01*
X56550000Y-129203571D02*
X56550000Y-127703571D01*
X57264285Y-127703571D01*
X57764285Y-129132142D02*
X57978571Y-129203571D01*
X58335714Y-129203571D01*
X58478571Y-129132142D01*
X58550000Y-129060714D01*
X58621428Y-128917857D01*
X58621428Y-128775000D01*
X58550000Y-128632142D01*
X58478571Y-128560714D01*
X58335714Y-128489285D01*
X58050000Y-128417857D01*
X57907142Y-128346428D01*
X57835714Y-128275000D01*
X57764285Y-128132142D01*
X57764285Y-127989285D01*
X57835714Y-127846428D01*
X57907142Y-127775000D01*
X58050000Y-127703571D01*
X58407142Y-127703571D01*
X58621428Y-127775000D01*
X52053571Y-95242857D02*
X53267857Y-95242857D01*
X53410714Y-95171428D01*
X53482142Y-95100000D01*
X53553571Y-94957142D01*
X53553571Y-94671428D01*
X53482142Y-94528571D01*
X53410714Y-94457142D01*
X53267857Y-94385714D01*
X52053571Y-94385714D01*
X53482142Y-93742857D02*
X53553571Y-93528571D01*
X53553571Y-93171428D01*
X53482142Y-93028571D01*
X53410714Y-92957142D01*
X53267857Y-92885714D01*
X53125000Y-92885714D01*
X52982142Y-92957142D01*
X52910714Y-93028571D01*
X52839285Y-93171428D01*
X52767857Y-93457142D01*
X52696428Y-93600000D01*
X52625000Y-93671428D01*
X52482142Y-93742857D01*
X52339285Y-93742857D01*
X52196428Y-93671428D01*
X52125000Y-93600000D01*
X52053571Y-93457142D01*
X52053571Y-93100000D01*
X52125000Y-92885714D01*
X52767857Y-91742857D02*
X52839285Y-91528571D01*
X52910714Y-91457142D01*
X53053571Y-91385714D01*
X53267857Y-91385714D01*
X53410714Y-91457142D01*
X53482142Y-91528571D01*
X53553571Y-91671428D01*
X53553571Y-92242857D01*
X52053571Y-92242857D01*
X52053571Y-91742857D01*
X52125000Y-91600000D01*
X52196428Y-91528571D01*
X52339285Y-91457142D01*
X52482142Y-91457142D01*
X52625000Y-91528571D01*
X52696428Y-91600000D01*
X52767857Y-91742857D01*
X52767857Y-92242857D01*
X56103571Y-94492857D02*
X54603571Y-94492857D01*
X55317857Y-94492857D02*
X55317857Y-93635714D01*
X56103571Y-93635714D02*
X54603571Y-93635714D01*
X56032142Y-92992857D02*
X56103571Y-92778571D01*
X56103571Y-92421428D01*
X56032142Y-92278571D01*
X55960714Y-92207142D01*
X55817857Y-92135714D01*
X55675000Y-92135714D01*
X55532142Y-92207142D01*
X55460714Y-92278571D01*
X55389285Y-92421428D01*
X55317857Y-92707142D01*
X55246428Y-92850000D01*
X55175000Y-92921428D01*
X55032142Y-92992857D01*
X54889285Y-92992857D01*
X54746428Y-92921428D01*
X54675000Y-92850000D01*
X54603571Y-92707142D01*
X54603571Y-92350000D01*
X54675000Y-92135714D01*
D11*
X59907619Y-70479952D02*
X59907619Y-71099000D01*
X59526666Y-70765666D01*
X59526666Y-70908523D01*
X59479047Y-71003761D01*
X59431428Y-71051380D01*
X59336190Y-71099000D01*
X59098095Y-71099000D01*
X59002857Y-71051380D01*
X58955238Y-71003761D01*
X58907619Y-70908523D01*
X58907619Y-70622809D01*
X58955238Y-70527571D01*
X59002857Y-70479952D01*
X59907619Y-71384714D02*
X58907619Y-71718047D01*
X59907619Y-72051380D01*
X59907619Y-72289476D02*
X59907619Y-72908523D01*
X59526666Y-72575190D01*
X59526666Y-72718047D01*
X59479047Y-72813285D01*
X59431428Y-72860904D01*
X59336190Y-72908523D01*
X59098095Y-72908523D01*
X59002857Y-72860904D01*
X58955238Y-72813285D01*
X58907619Y-72718047D01*
X58907619Y-72432333D01*
X58955238Y-72337095D01*
X59002857Y-72289476D01*
X62447619Y-71622809D02*
X62447619Y-72194238D01*
X61447619Y-71908523D02*
X62447619Y-71908523D01*
X61447619Y-72432333D02*
X62114285Y-72956142D01*
X62114285Y-72432333D02*
X61447619Y-72956142D01*
X63987619Y-72099000D02*
X64463809Y-71765666D01*
X63987619Y-71527571D02*
X64987619Y-71527571D01*
X64987619Y-71908523D01*
X64940000Y-72003761D01*
X64892380Y-72051380D01*
X64797142Y-72099000D01*
X64654285Y-72099000D01*
X64559047Y-72051380D01*
X64511428Y-72003761D01*
X64463809Y-71908523D01*
X64463809Y-71527571D01*
X63987619Y-72432333D02*
X64654285Y-72956142D01*
X64654285Y-72432333D02*
X63987619Y-72956142D01*
X67480000Y-71051380D02*
X67527619Y-70956142D01*
X67527619Y-70813285D01*
X67480000Y-70670428D01*
X67384761Y-70575190D01*
X67289523Y-70527571D01*
X67099047Y-70479952D01*
X66956190Y-70479952D01*
X66765714Y-70527571D01*
X66670476Y-70575190D01*
X66575238Y-70670428D01*
X66527619Y-70813285D01*
X66527619Y-70908523D01*
X66575238Y-71051380D01*
X66622857Y-71099000D01*
X66956190Y-71099000D01*
X66956190Y-70908523D01*
X67194285Y-71527571D02*
X66527619Y-71527571D01*
X67099047Y-71527571D02*
X67146666Y-71575190D01*
X67194285Y-71670428D01*
X67194285Y-71813285D01*
X67146666Y-71908523D01*
X67051428Y-71956142D01*
X66527619Y-71956142D01*
X66527619Y-72860904D02*
X67527619Y-72860904D01*
X66575238Y-72860904D02*
X66527619Y-72765666D01*
X66527619Y-72575190D01*
X66575238Y-72479952D01*
X66622857Y-72432333D01*
X66718095Y-72384714D01*
X67003809Y-72384714D01*
X67099047Y-72432333D01*
X67146666Y-72479952D01*
X67194285Y-72575190D01*
X67194285Y-72765666D01*
X67146666Y-72860904D01*
X79275238Y-70432333D02*
X79227619Y-70575190D01*
X79227619Y-70813285D01*
X79275238Y-70908523D01*
X79322857Y-70956142D01*
X79418095Y-71003761D01*
X79513333Y-71003761D01*
X79608571Y-70956142D01*
X79656190Y-70908523D01*
X79703809Y-70813285D01*
X79751428Y-70622809D01*
X79799047Y-70527571D01*
X79846666Y-70479952D01*
X79941904Y-70432333D01*
X80037142Y-70432333D01*
X80132380Y-70479952D01*
X80180000Y-70527571D01*
X80227619Y-70622809D01*
X80227619Y-70860904D01*
X80180000Y-71003761D01*
X79894285Y-71337095D02*
X79227619Y-71527571D01*
X79703809Y-71718047D01*
X79227619Y-71908523D01*
X79894285Y-72099000D01*
X79275238Y-72908523D02*
X79227619Y-72813285D01*
X79227619Y-72622809D01*
X79275238Y-72527571D01*
X79322857Y-72479952D01*
X79418095Y-72432333D01*
X79703809Y-72432333D01*
X79799047Y-72479952D01*
X79846666Y-72527571D01*
X79894285Y-72622809D01*
X79894285Y-72813285D01*
X79846666Y-72908523D01*
X77687619Y-70479952D02*
X77687619Y-71099000D01*
X77306666Y-70765666D01*
X77306666Y-70908523D01*
X77259047Y-71003761D01*
X77211428Y-71051380D01*
X77116190Y-71099000D01*
X76878095Y-71099000D01*
X76782857Y-71051380D01*
X76735238Y-71003761D01*
X76687619Y-70908523D01*
X76687619Y-70622809D01*
X76735238Y-70527571D01*
X76782857Y-70479952D01*
X77687619Y-71384714D02*
X76687619Y-71718047D01*
X77687619Y-72051380D01*
X77687619Y-72289476D02*
X77687619Y-72908523D01*
X77306666Y-72575190D01*
X77306666Y-72718047D01*
X77259047Y-72813285D01*
X77211428Y-72860904D01*
X77116190Y-72908523D01*
X76878095Y-72908523D01*
X76782857Y-72860904D01*
X76735238Y-72813285D01*
X76687619Y-72718047D01*
X76687619Y-72432333D01*
X76735238Y-72337095D01*
X76782857Y-72289476D01*
X82720000Y-71051380D02*
X82767619Y-70956142D01*
X82767619Y-70813285D01*
X82720000Y-70670428D01*
X82624761Y-70575190D01*
X82529523Y-70527571D01*
X82339047Y-70479952D01*
X82196190Y-70479952D01*
X82005714Y-70527571D01*
X81910476Y-70575190D01*
X81815238Y-70670428D01*
X81767619Y-70813285D01*
X81767619Y-70908523D01*
X81815238Y-71051380D01*
X81862857Y-71099000D01*
X82196190Y-71099000D01*
X82196190Y-70908523D01*
X82434285Y-71527571D02*
X81767619Y-71527571D01*
X82339047Y-71527571D02*
X82386666Y-71575190D01*
X82434285Y-71670428D01*
X82434285Y-71813285D01*
X82386666Y-71908523D01*
X82291428Y-71956142D01*
X81767619Y-71956142D01*
X81767619Y-72860904D02*
X82767619Y-72860904D01*
X81815238Y-72860904D02*
X81767619Y-72765666D01*
X81767619Y-72575190D01*
X81815238Y-72479952D01*
X81862857Y-72432333D01*
X81958095Y-72384714D01*
X82243809Y-72384714D01*
X82339047Y-72432333D01*
X82386666Y-72479952D01*
X82434285Y-72575190D01*
X82434285Y-72765666D01*
X82386666Y-72860904D01*
X86847619Y-71527571D02*
X87323809Y-71194238D01*
X86847619Y-70956142D02*
X87847619Y-70956142D01*
X87847619Y-71337095D01*
X87800000Y-71432333D01*
X87752380Y-71479952D01*
X87657142Y-71527571D01*
X87514285Y-71527571D01*
X87419047Y-71479952D01*
X87371428Y-71432333D01*
X87323809Y-71337095D01*
X87323809Y-70956142D01*
X86895238Y-71908523D02*
X86847619Y-72003761D01*
X86847619Y-72194238D01*
X86895238Y-72289476D01*
X86990476Y-72337095D01*
X87038095Y-72337095D01*
X87133333Y-72289476D01*
X87180952Y-72194238D01*
X87180952Y-72051380D01*
X87228571Y-71956142D01*
X87323809Y-71908523D01*
X87371428Y-71908523D01*
X87466666Y-71956142D01*
X87514285Y-72051380D01*
X87514285Y-72194238D01*
X87466666Y-72289476D01*
X87514285Y-72622809D02*
X87514285Y-73003761D01*
X87847619Y-72765666D02*
X86990476Y-72765666D01*
X86895238Y-72813285D01*
X86847619Y-72908523D01*
X86847619Y-73003761D01*
X84355238Y-70813285D02*
X84307619Y-70956142D01*
X84307619Y-71194238D01*
X84355238Y-71289476D01*
X84402857Y-71337095D01*
X84498095Y-71384714D01*
X84593333Y-71384714D01*
X84688571Y-71337095D01*
X84736190Y-71289476D01*
X84783809Y-71194238D01*
X84831428Y-71003761D01*
X84879047Y-70908523D01*
X84926666Y-70860904D01*
X85021904Y-70813285D01*
X85117142Y-70813285D01*
X85212380Y-70860904D01*
X85260000Y-70908523D01*
X85307619Y-71003761D01*
X85307619Y-71241857D01*
X85260000Y-71384714D01*
X84974285Y-71718047D02*
X84307619Y-71908523D01*
X84783809Y-72099000D01*
X84307619Y-72289476D01*
X84974285Y-72479952D01*
X84307619Y-72860904D02*
X84974285Y-72860904D01*
X85307619Y-72860904D02*
X85260000Y-72813285D01*
X85212380Y-72860904D01*
X85260000Y-72908523D01*
X85307619Y-72860904D01*
X85212380Y-72860904D01*
X122360000Y-72337095D02*
X122312380Y-72432333D01*
X122312380Y-72575190D01*
X122360000Y-72718047D01*
X122455238Y-72813285D01*
X122550476Y-72860904D01*
X122740952Y-72908523D01*
X122883809Y-72908523D01*
X123074285Y-72860904D01*
X123169523Y-72813285D01*
X123264761Y-72718047D01*
X123312380Y-72575190D01*
X123312380Y-72479952D01*
X123264761Y-72337095D01*
X123217142Y-72289476D01*
X122883809Y-72289476D01*
X122883809Y-72479952D01*
X122645714Y-71860904D02*
X123312380Y-71860904D01*
X122740952Y-71860904D02*
X122693333Y-71813285D01*
X122645714Y-71718047D01*
X122645714Y-71575190D01*
X122693333Y-71479952D01*
X122788571Y-71432333D01*
X123312380Y-71432333D01*
X123312380Y-70527571D02*
X122312380Y-70527571D01*
X123264761Y-70527571D02*
X123312380Y-70622809D01*
X123312380Y-70813285D01*
X123264761Y-70908523D01*
X123217142Y-70956142D01*
X123121904Y-71003761D01*
X122836190Y-71003761D01*
X122740952Y-70956142D01*
X122693333Y-70908523D01*
X122645714Y-70813285D01*
X122645714Y-70622809D01*
X122693333Y-70527571D01*
X122360000Y-80688619D02*
X122312380Y-80783857D01*
X122312380Y-80926714D01*
X122360000Y-81069571D01*
X122455238Y-81164809D01*
X122550476Y-81212428D01*
X122740952Y-81260047D01*
X122883809Y-81260047D01*
X123074285Y-81212428D01*
X123169523Y-81164809D01*
X123264761Y-81069571D01*
X123312380Y-80926714D01*
X123312380Y-80831476D01*
X123264761Y-80688619D01*
X123217142Y-80641000D01*
X122883809Y-80641000D01*
X122883809Y-80831476D01*
X122645714Y-80212428D02*
X123312380Y-80212428D01*
X122740952Y-80212428D02*
X122693333Y-80164809D01*
X122645714Y-80069571D01*
X122645714Y-79926714D01*
X122693333Y-79831476D01*
X122788571Y-79783857D01*
X123312380Y-79783857D01*
X123312380Y-78879095D02*
X122312380Y-78879095D01*
X123264761Y-78879095D02*
X123312380Y-78974333D01*
X123312380Y-79164809D01*
X123264761Y-79260047D01*
X123217142Y-79307666D01*
X123121904Y-79355285D01*
X122836190Y-79355285D01*
X122740952Y-79307666D01*
X122693333Y-79260047D01*
X122645714Y-79164809D01*
X122645714Y-78974333D01*
X122693333Y-78879095D01*
X115406666Y-72908523D02*
X115406666Y-72432333D01*
X115692380Y-73003761D02*
X114692380Y-72670428D01*
X115692380Y-72337095D01*
X115025714Y-71575190D02*
X115692380Y-71575190D01*
X114644761Y-71813285D02*
X115359047Y-72051380D01*
X115359047Y-71432333D01*
X115692380Y-79641000D02*
X115216190Y-79974333D01*
X115692380Y-80212428D02*
X114692380Y-80212428D01*
X114692380Y-79831476D01*
X114740000Y-79736238D01*
X114787619Y-79688619D01*
X114882857Y-79641000D01*
X115025714Y-79641000D01*
X115120952Y-79688619D01*
X115168571Y-79736238D01*
X115216190Y-79831476D01*
X115216190Y-80212428D01*
X115692380Y-79307666D02*
X115025714Y-78783857D01*
X115025714Y-79307666D02*
X115692380Y-78783857D01*
X128106666Y-72908523D02*
X128106666Y-72432333D01*
X128392380Y-73003761D02*
X127392380Y-72670428D01*
X128392380Y-72337095D01*
X127392380Y-72099000D02*
X127392380Y-71432333D01*
X128392380Y-71860904D01*
X113057142Y-79783857D02*
X113104761Y-79831476D01*
X113152380Y-79974333D01*
X113152380Y-80069571D01*
X113104761Y-80212428D01*
X113009523Y-80307666D01*
X112914285Y-80355285D01*
X112723809Y-80402904D01*
X112580952Y-80402904D01*
X112390476Y-80355285D01*
X112295238Y-80307666D01*
X112200000Y-80212428D01*
X112152380Y-80069571D01*
X112152380Y-79974333D01*
X112200000Y-79831476D01*
X112247619Y-79783857D01*
X112485714Y-78926714D02*
X113152380Y-78926714D01*
X112104761Y-79164809D02*
X112819047Y-79402904D01*
X112819047Y-78783857D01*
X135060000Y-72337095D02*
X135012380Y-72432333D01*
X135012380Y-72575190D01*
X135060000Y-72718047D01*
X135155238Y-72813285D01*
X135250476Y-72860904D01*
X135440952Y-72908523D01*
X135583809Y-72908523D01*
X135774285Y-72860904D01*
X135869523Y-72813285D01*
X135964761Y-72718047D01*
X136012380Y-72575190D01*
X136012380Y-72479952D01*
X135964761Y-72337095D01*
X135917142Y-72289476D01*
X135583809Y-72289476D01*
X135583809Y-72479952D01*
X135345714Y-71860904D02*
X136012380Y-71860904D01*
X135440952Y-71860904D02*
X135393333Y-71813285D01*
X135345714Y-71718047D01*
X135345714Y-71575190D01*
X135393333Y-71479952D01*
X135488571Y-71432333D01*
X136012380Y-71432333D01*
X136012380Y-70527571D02*
X135012380Y-70527571D01*
X135964761Y-70527571D02*
X136012380Y-70622809D01*
X136012380Y-70813285D01*
X135964761Y-70908523D01*
X135917142Y-70956142D01*
X135821904Y-71003761D01*
X135536190Y-71003761D01*
X135440952Y-70956142D01*
X135393333Y-70908523D01*
X135345714Y-70813285D01*
X135345714Y-70622809D01*
X135393333Y-70527571D01*
X132472380Y-73005047D02*
X132472380Y-72386000D01*
X132853333Y-72719333D01*
X132853333Y-72576476D01*
X132900952Y-72481238D01*
X132948571Y-72433619D01*
X133043809Y-72386000D01*
X133281904Y-72386000D01*
X133377142Y-72433619D01*
X133424761Y-72481238D01*
X133472380Y-72576476D01*
X133472380Y-72862190D01*
X133424761Y-72957428D01*
X133377142Y-73005047D01*
X132472380Y-72100285D02*
X133472380Y-71766952D01*
X132472380Y-71433619D01*
X132472380Y-71195523D02*
X132472380Y-70576476D01*
X132853333Y-70909809D01*
X132853333Y-70766952D01*
X132900952Y-70671714D01*
X132948571Y-70624095D01*
X133043809Y-70576476D01*
X133281904Y-70576476D01*
X133377142Y-70624095D01*
X133424761Y-70671714D01*
X133472380Y-70766952D01*
X133472380Y-71052666D01*
X133424761Y-71147904D01*
X133377142Y-71195523D01*
X130646666Y-72908523D02*
X130646666Y-72432333D01*
X130932380Y-73003761D02*
X129932380Y-72670428D01*
X130932380Y-72337095D01*
X130932380Y-71479952D02*
X130932380Y-72051380D01*
X130932380Y-71765666D02*
X129932380Y-71765666D01*
X130075238Y-71860904D01*
X130170476Y-71956142D01*
X130218095Y-72051380D01*
X129932380Y-70575190D02*
X129932380Y-71051380D01*
X130408571Y-71099000D01*
X130360952Y-71051380D01*
X130313333Y-70956142D01*
X130313333Y-70718047D01*
X130360952Y-70622809D01*
X130408571Y-70575190D01*
X130503809Y-70527571D01*
X130741904Y-70527571D01*
X130837142Y-70575190D01*
X130884761Y-70622809D01*
X130932380Y-70718047D01*
X130932380Y-70956142D01*
X130884761Y-71051380D01*
X130837142Y-71099000D01*
X119772380Y-81260047D02*
X119772380Y-80641000D01*
X120153333Y-80974333D01*
X120153333Y-80831476D01*
X120200952Y-80736238D01*
X120248571Y-80688619D01*
X120343809Y-80641000D01*
X120581904Y-80641000D01*
X120677142Y-80688619D01*
X120724761Y-80736238D01*
X120772380Y-80831476D01*
X120772380Y-81117190D01*
X120724761Y-81212428D01*
X120677142Y-81260047D01*
X119772380Y-80355285D02*
X120772380Y-80021952D01*
X119772380Y-79688619D01*
X119772380Y-79450523D02*
X119772380Y-78831476D01*
X120153333Y-79164809D01*
X120153333Y-79021952D01*
X120200952Y-78926714D01*
X120248571Y-78879095D01*
X120343809Y-78831476D01*
X120581904Y-78831476D01*
X120677142Y-78879095D01*
X120724761Y-78926714D01*
X120772380Y-79021952D01*
X120772380Y-79307666D01*
X120724761Y-79402904D01*
X120677142Y-79450523D01*
X109660000Y-80846095D02*
X109612380Y-80941333D01*
X109612380Y-81084190D01*
X109660000Y-81227047D01*
X109755238Y-81322285D01*
X109850476Y-81369904D01*
X110040952Y-81417523D01*
X110183809Y-81417523D01*
X110374285Y-81369904D01*
X110469523Y-81322285D01*
X110564761Y-81227047D01*
X110612380Y-81084190D01*
X110612380Y-80988952D01*
X110564761Y-80846095D01*
X110517142Y-80798476D01*
X110183809Y-80798476D01*
X110183809Y-80988952D01*
X109945714Y-80369904D02*
X110612380Y-80369904D01*
X110040952Y-80369904D02*
X109993333Y-80322285D01*
X109945714Y-80227047D01*
X109945714Y-80084190D01*
X109993333Y-79988952D01*
X110088571Y-79941333D01*
X110612380Y-79941333D01*
X110612380Y-79036571D02*
X109612380Y-79036571D01*
X110564761Y-79036571D02*
X110612380Y-79131809D01*
X110612380Y-79322285D01*
X110564761Y-79417523D01*
X110517142Y-79465142D01*
X110421904Y-79512761D01*
X110136190Y-79512761D01*
X110040952Y-79465142D01*
X109993333Y-79417523D01*
X109945714Y-79322285D01*
X109945714Y-79131809D01*
X109993333Y-79036571D01*
X130408571Y-80021952D02*
X130456190Y-79879095D01*
X130503809Y-79831476D01*
X130599047Y-79783857D01*
X130741904Y-79783857D01*
X130837142Y-79831476D01*
X130884761Y-79879095D01*
X130932380Y-79974333D01*
X130932380Y-80355285D01*
X129932380Y-80355285D01*
X129932380Y-80021952D01*
X129980000Y-79926714D01*
X130027619Y-79879095D01*
X130122857Y-79831476D01*
X130218095Y-79831476D01*
X130313333Y-79879095D01*
X130360952Y-79926714D01*
X130408571Y-80021952D01*
X130408571Y-80355285D01*
X130027619Y-79402904D02*
X129980000Y-79355285D01*
X129932380Y-79260047D01*
X129932380Y-79021952D01*
X129980000Y-78926714D01*
X130027619Y-78879095D01*
X130122857Y-78831476D01*
X130218095Y-78831476D01*
X130360952Y-78879095D01*
X130932380Y-79450523D01*
X130932380Y-78831476D01*
X107072380Y-79736238D02*
X107072380Y-80212428D01*
X107548571Y-80260047D01*
X107500952Y-80212428D01*
X107453333Y-80117190D01*
X107453333Y-79879095D01*
X107500952Y-79783857D01*
X107548571Y-79736238D01*
X107643809Y-79688619D01*
X107881904Y-79688619D01*
X107977142Y-79736238D01*
X108024761Y-79783857D01*
X108072380Y-79879095D01*
X108072380Y-80117190D01*
X108024761Y-80212428D01*
X107977142Y-80260047D01*
X107072380Y-79402904D02*
X108072380Y-79069571D01*
X107072380Y-78736238D01*
X113057142Y-72289476D02*
X113104761Y-72337095D01*
X113152380Y-72479952D01*
X113152380Y-72575190D01*
X113104761Y-72718047D01*
X113009523Y-72813285D01*
X112914285Y-72860904D01*
X112723809Y-72908523D01*
X112580952Y-72908523D01*
X112390476Y-72860904D01*
X112295238Y-72813285D01*
X112200000Y-72718047D01*
X112152380Y-72575190D01*
X112152380Y-72479952D01*
X112200000Y-72337095D01*
X112247619Y-72289476D01*
X113152380Y-71337095D02*
X113152380Y-71908523D01*
X113152380Y-71622809D02*
X112152380Y-71622809D01*
X112295238Y-71718047D01*
X112390476Y-71813285D01*
X112438095Y-71908523D01*
X109660000Y-72337095D02*
X109612380Y-72432333D01*
X109612380Y-72575190D01*
X109660000Y-72718047D01*
X109755238Y-72813285D01*
X109850476Y-72860904D01*
X110040952Y-72908523D01*
X110183809Y-72908523D01*
X110374285Y-72860904D01*
X110469523Y-72813285D01*
X110564761Y-72718047D01*
X110612380Y-72575190D01*
X110612380Y-72479952D01*
X110564761Y-72337095D01*
X110517142Y-72289476D01*
X110183809Y-72289476D01*
X110183809Y-72479952D01*
X109945714Y-71860904D02*
X110612380Y-71860904D01*
X110040952Y-71860904D02*
X109993333Y-71813285D01*
X109945714Y-71718047D01*
X109945714Y-71575190D01*
X109993333Y-71479952D01*
X110088571Y-71432333D01*
X110612380Y-71432333D01*
X110612380Y-70527571D02*
X109612380Y-70527571D01*
X110564761Y-70527571D02*
X110612380Y-70622809D01*
X110612380Y-70813285D01*
X110564761Y-70908523D01*
X110517142Y-70956142D01*
X110421904Y-71003761D01*
X110136190Y-71003761D01*
X110040952Y-70956142D01*
X109993333Y-70908523D01*
X109945714Y-70813285D01*
X109945714Y-70622809D01*
X109993333Y-70527571D01*
X132472380Y-81260047D02*
X132472380Y-80641000D01*
X132853333Y-80974333D01*
X132853333Y-80831476D01*
X132900952Y-80736238D01*
X132948571Y-80688619D01*
X133043809Y-80641000D01*
X133281904Y-80641000D01*
X133377142Y-80688619D01*
X133424761Y-80736238D01*
X133472380Y-80831476D01*
X133472380Y-81117190D01*
X133424761Y-81212428D01*
X133377142Y-81260047D01*
X132472380Y-80355285D02*
X133472380Y-80021952D01*
X132472380Y-79688619D01*
X132472380Y-79450523D02*
X132472380Y-78831476D01*
X132853333Y-79164809D01*
X132853333Y-79021952D01*
X132900952Y-78926714D01*
X132948571Y-78879095D01*
X133043809Y-78831476D01*
X133281904Y-78831476D01*
X133377142Y-78879095D01*
X133424761Y-78926714D01*
X133472380Y-79021952D01*
X133472380Y-79307666D01*
X133424761Y-79402904D01*
X133377142Y-79450523D01*
X125757142Y-80736238D02*
X125804761Y-80783857D01*
X125852380Y-80926714D01*
X125852380Y-81021952D01*
X125804761Y-81164809D01*
X125709523Y-81260047D01*
X125614285Y-81307666D01*
X125423809Y-81355285D01*
X125280952Y-81355285D01*
X125090476Y-81307666D01*
X124995238Y-81260047D01*
X124900000Y-81164809D01*
X124852380Y-81021952D01*
X124852380Y-80926714D01*
X124900000Y-80783857D01*
X124947619Y-80736238D01*
X125852380Y-79783857D02*
X125852380Y-80355285D01*
X125852380Y-80069571D02*
X124852380Y-80069571D01*
X124995238Y-80164809D01*
X125090476Y-80260047D01*
X125138095Y-80355285D01*
X124947619Y-79402904D02*
X124900000Y-79355285D01*
X124852380Y-79260047D01*
X124852380Y-79021952D01*
X124900000Y-78926714D01*
X124947619Y-78879095D01*
X125042857Y-78831476D01*
X125138095Y-78831476D01*
X125280952Y-78879095D01*
X125852380Y-79450523D01*
X125852380Y-78831476D01*
X119772380Y-72956142D02*
X119772380Y-72337095D01*
X120153333Y-72670428D01*
X120153333Y-72527571D01*
X120200952Y-72432333D01*
X120248571Y-72384714D01*
X120343809Y-72337095D01*
X120581904Y-72337095D01*
X120677142Y-72384714D01*
X120724761Y-72432333D01*
X120772380Y-72527571D01*
X120772380Y-72813285D01*
X120724761Y-72908523D01*
X120677142Y-72956142D01*
X119772380Y-72051380D02*
X120772380Y-71718047D01*
X119772380Y-71384714D01*
X119772380Y-71146619D02*
X119772380Y-70527571D01*
X120153333Y-70860904D01*
X120153333Y-70718047D01*
X120200952Y-70622809D01*
X120248571Y-70575190D01*
X120343809Y-70527571D01*
X120581904Y-70527571D01*
X120677142Y-70575190D01*
X120724761Y-70622809D01*
X120772380Y-70718047D01*
X120772380Y-71003761D01*
X120724761Y-71099000D01*
X120677142Y-71146619D01*
X107072380Y-72384714D02*
X107072380Y-72860904D01*
X107548571Y-72908523D01*
X107500952Y-72860904D01*
X107453333Y-72765666D01*
X107453333Y-72527571D01*
X107500952Y-72432333D01*
X107548571Y-72384714D01*
X107643809Y-72337095D01*
X107881904Y-72337095D01*
X107977142Y-72384714D01*
X108024761Y-72432333D01*
X108072380Y-72527571D01*
X108072380Y-72765666D01*
X108024761Y-72860904D01*
X107977142Y-72908523D01*
X107072380Y-72051380D02*
X108072380Y-71718047D01*
X107072380Y-71384714D01*
X117232380Y-80117190D02*
X117232380Y-79545761D01*
X118232380Y-79831476D02*
X117232380Y-79831476D01*
X118232380Y-79307666D02*
X117565714Y-78783857D01*
X117565714Y-79307666D02*
X118232380Y-78783857D01*
X125757142Y-72289476D02*
X125804761Y-72337095D01*
X125852380Y-72479952D01*
X125852380Y-72575190D01*
X125804761Y-72718047D01*
X125709523Y-72813285D01*
X125614285Y-72860904D01*
X125423809Y-72908523D01*
X125280952Y-72908523D01*
X125090476Y-72860904D01*
X124995238Y-72813285D01*
X124900000Y-72718047D01*
X124852380Y-72575190D01*
X124852380Y-72479952D01*
X124900000Y-72337095D01*
X124947619Y-72289476D01*
X125852380Y-71337095D02*
X125852380Y-71908523D01*
X125852380Y-71622809D02*
X124852380Y-71622809D01*
X124995238Y-71718047D01*
X125090476Y-71813285D01*
X125138095Y-71908523D01*
X124852380Y-70718047D02*
X124852380Y-70622809D01*
X124900000Y-70527571D01*
X124947619Y-70479952D01*
X125042857Y-70432333D01*
X125233333Y-70384714D01*
X125471428Y-70384714D01*
X125661904Y-70432333D01*
X125757142Y-70479952D01*
X125804761Y-70527571D01*
X125852380Y-70622809D01*
X125852380Y-70718047D01*
X125804761Y-70813285D01*
X125757142Y-70860904D01*
X125661904Y-70908523D01*
X125471428Y-70956142D01*
X125233333Y-70956142D01*
X125042857Y-70908523D01*
X124947619Y-70860904D01*
X124900000Y-70813285D01*
X124852380Y-70718047D01*
X135060000Y-80688619D02*
X135012380Y-80783857D01*
X135012380Y-80926714D01*
X135060000Y-81069571D01*
X135155238Y-81164809D01*
X135250476Y-81212428D01*
X135440952Y-81260047D01*
X135583809Y-81260047D01*
X135774285Y-81212428D01*
X135869523Y-81164809D01*
X135964761Y-81069571D01*
X136012380Y-80926714D01*
X136012380Y-80831476D01*
X135964761Y-80688619D01*
X135917142Y-80641000D01*
X135583809Y-80641000D01*
X135583809Y-80831476D01*
X135345714Y-80212428D02*
X136012380Y-80212428D01*
X135440952Y-80212428D02*
X135393333Y-80164809D01*
X135345714Y-80069571D01*
X135345714Y-79926714D01*
X135393333Y-79831476D01*
X135488571Y-79783857D01*
X136012380Y-79783857D01*
X136012380Y-78879095D02*
X135012380Y-78879095D01*
X135964761Y-78879095D02*
X136012380Y-78974333D01*
X136012380Y-79164809D01*
X135964761Y-79260047D01*
X135917142Y-79307666D01*
X135821904Y-79355285D01*
X135536190Y-79355285D01*
X135440952Y-79307666D01*
X135393333Y-79260047D01*
X135345714Y-79164809D01*
X135345714Y-78974333D01*
X135393333Y-78879095D01*
X128106666Y-80260047D02*
X128106666Y-79783857D01*
X128392380Y-80355285D02*
X127392380Y-80021952D01*
X128392380Y-79688619D01*
X127392380Y-78926714D02*
X127392380Y-79117190D01*
X127440000Y-79212428D01*
X127487619Y-79260047D01*
X127630476Y-79355285D01*
X127820952Y-79402904D01*
X128201904Y-79402904D01*
X128297142Y-79355285D01*
X128344761Y-79307666D01*
X128392380Y-79212428D01*
X128392380Y-79021952D01*
X128344761Y-78926714D01*
X128297142Y-78879095D01*
X128201904Y-78831476D01*
X127963809Y-78831476D01*
X127868571Y-78879095D01*
X127820952Y-78926714D01*
X127773333Y-79021952D01*
X127773333Y-79212428D01*
X127820952Y-79307666D01*
X127868571Y-79355285D01*
X127963809Y-79402904D01*
X117708571Y-72527571D02*
X117756190Y-72384714D01*
X117803809Y-72337095D01*
X117899047Y-72289476D01*
X118041904Y-72289476D01*
X118137142Y-72337095D01*
X118184761Y-72384714D01*
X118232380Y-72479952D01*
X118232380Y-72860904D01*
X117232380Y-72860904D01*
X117232380Y-72527571D01*
X117280000Y-72432333D01*
X117327619Y-72384714D01*
X117422857Y-72337095D01*
X117518095Y-72337095D01*
X117613333Y-72384714D01*
X117660952Y-72432333D01*
X117708571Y-72527571D01*
X117708571Y-72860904D01*
X117660952Y-71718047D02*
X117613333Y-71813285D01*
X117565714Y-71860904D01*
X117470476Y-71908523D01*
X117422857Y-71908523D01*
X117327619Y-71860904D01*
X117280000Y-71813285D01*
X117232380Y-71718047D01*
X117232380Y-71527571D01*
X117280000Y-71432333D01*
X117327619Y-71384714D01*
X117422857Y-71337095D01*
X117470476Y-71337095D01*
X117565714Y-71384714D01*
X117613333Y-71432333D01*
X117660952Y-71527571D01*
X117660952Y-71718047D01*
X117708571Y-71813285D01*
X117756190Y-71860904D01*
X117851428Y-71908523D01*
X118041904Y-71908523D01*
X118137142Y-71860904D01*
X118184761Y-71813285D01*
X118232380Y-71718047D01*
X118232380Y-71527571D01*
X118184761Y-71432333D01*
X118137142Y-71384714D01*
X118041904Y-71337095D01*
X117851428Y-71337095D01*
X117756190Y-71384714D01*
X117708571Y-71432333D01*
X117660952Y-71527571D01*
X119772380Y-121216142D02*
X119772380Y-120597095D01*
X120153333Y-120930428D01*
X120153333Y-120787571D01*
X120200952Y-120692333D01*
X120248571Y-120644714D01*
X120343809Y-120597095D01*
X120581904Y-120597095D01*
X120677142Y-120644714D01*
X120724761Y-120692333D01*
X120772380Y-120787571D01*
X120772380Y-121073285D01*
X120724761Y-121168523D01*
X120677142Y-121216142D01*
X119772380Y-120311380D02*
X120772380Y-119978047D01*
X119772380Y-119644714D01*
X119772380Y-119406619D02*
X119772380Y-118787571D01*
X120153333Y-119120904D01*
X120153333Y-118978047D01*
X120200952Y-118882809D01*
X120248571Y-118835190D01*
X120343809Y-118787571D01*
X120581904Y-118787571D01*
X120677142Y-118835190D01*
X120724761Y-118882809D01*
X120772380Y-118978047D01*
X120772380Y-119263761D01*
X120724761Y-119359000D01*
X120677142Y-119406619D01*
X128106666Y-121168523D02*
X128106666Y-120692333D01*
X128392380Y-121263761D02*
X127392380Y-120930428D01*
X128392380Y-120597095D01*
X128392380Y-119739952D02*
X128392380Y-120311380D01*
X128392380Y-120025666D02*
X127392380Y-120025666D01*
X127535238Y-120120904D01*
X127630476Y-120216142D01*
X127678095Y-120311380D01*
X130646666Y-121168523D02*
X130646666Y-120692333D01*
X130932380Y-121263761D02*
X129932380Y-120930428D01*
X130932380Y-120597095D01*
X130027619Y-120311380D02*
X129980000Y-120263761D01*
X129932380Y-120168523D01*
X129932380Y-119930428D01*
X129980000Y-119835190D01*
X130027619Y-119787571D01*
X130122857Y-119739952D01*
X130218095Y-119739952D01*
X130360952Y-119787571D01*
X130932380Y-120359000D01*
X130932380Y-119739952D01*
X122360000Y-120597095D02*
X122312380Y-120692333D01*
X122312380Y-120835190D01*
X122360000Y-120978047D01*
X122455238Y-121073285D01*
X122550476Y-121120904D01*
X122740952Y-121168523D01*
X122883809Y-121168523D01*
X123074285Y-121120904D01*
X123169523Y-121073285D01*
X123264761Y-120978047D01*
X123312380Y-120835190D01*
X123312380Y-120739952D01*
X123264761Y-120597095D01*
X123217142Y-120549476D01*
X122883809Y-120549476D01*
X122883809Y-120739952D01*
X122645714Y-120120904D02*
X123312380Y-120120904D01*
X122740952Y-120120904D02*
X122693333Y-120073285D01*
X122645714Y-119978047D01*
X122645714Y-119835190D01*
X122693333Y-119739952D01*
X122788571Y-119692333D01*
X123312380Y-119692333D01*
X123312380Y-118787571D02*
X122312380Y-118787571D01*
X123264761Y-118787571D02*
X123312380Y-118882809D01*
X123312380Y-119073285D01*
X123264761Y-119168523D01*
X123217142Y-119216142D01*
X123121904Y-119263761D01*
X122836190Y-119263761D01*
X122740952Y-119216142D01*
X122693333Y-119168523D01*
X122645714Y-119073285D01*
X122645714Y-118882809D01*
X122693333Y-118787571D01*
X113057142Y-120549476D02*
X113104761Y-120597095D01*
X113152380Y-120739952D01*
X113152380Y-120835190D01*
X113104761Y-120978047D01*
X113009523Y-121073285D01*
X112914285Y-121120904D01*
X112723809Y-121168523D01*
X112580952Y-121168523D01*
X112390476Y-121120904D01*
X112295238Y-121073285D01*
X112200000Y-120978047D01*
X112152380Y-120835190D01*
X112152380Y-120739952D01*
X112200000Y-120597095D01*
X112247619Y-120549476D01*
X112152380Y-119692333D02*
X112152380Y-119882809D01*
X112200000Y-119978047D01*
X112247619Y-120025666D01*
X112390476Y-120120904D01*
X112580952Y-120168523D01*
X112961904Y-120168523D01*
X113057142Y-120120904D01*
X113104761Y-120073285D01*
X113152380Y-119978047D01*
X113152380Y-119787571D01*
X113104761Y-119692333D01*
X113057142Y-119644714D01*
X112961904Y-119597095D01*
X112723809Y-119597095D01*
X112628571Y-119644714D01*
X112580952Y-119692333D01*
X112533333Y-119787571D01*
X112533333Y-119978047D01*
X112580952Y-120073285D01*
X112628571Y-120120904D01*
X112723809Y-120168523D01*
X135060000Y-120597095D02*
X135012380Y-120692333D01*
X135012380Y-120835190D01*
X135060000Y-120978047D01*
X135155238Y-121073285D01*
X135250476Y-121120904D01*
X135440952Y-121168523D01*
X135583809Y-121168523D01*
X135774285Y-121120904D01*
X135869523Y-121073285D01*
X135964761Y-120978047D01*
X136012380Y-120835190D01*
X136012380Y-120739952D01*
X135964761Y-120597095D01*
X135917142Y-120549476D01*
X135583809Y-120549476D01*
X135583809Y-120739952D01*
X135345714Y-120120904D02*
X136012380Y-120120904D01*
X135440952Y-120120904D02*
X135393333Y-120073285D01*
X135345714Y-119978047D01*
X135345714Y-119835190D01*
X135393333Y-119739952D01*
X135488571Y-119692333D01*
X136012380Y-119692333D01*
X136012380Y-118787571D02*
X135012380Y-118787571D01*
X135964761Y-118787571D02*
X136012380Y-118882809D01*
X136012380Y-119073285D01*
X135964761Y-119168523D01*
X135917142Y-119216142D01*
X135821904Y-119263761D01*
X135536190Y-119263761D01*
X135440952Y-119216142D01*
X135393333Y-119168523D01*
X135345714Y-119073285D01*
X135345714Y-118882809D01*
X135393333Y-118787571D01*
X109660000Y-120597095D02*
X109612380Y-120692333D01*
X109612380Y-120835190D01*
X109660000Y-120978047D01*
X109755238Y-121073285D01*
X109850476Y-121120904D01*
X110040952Y-121168523D01*
X110183809Y-121168523D01*
X110374285Y-121120904D01*
X110469523Y-121073285D01*
X110564761Y-120978047D01*
X110612380Y-120835190D01*
X110612380Y-120739952D01*
X110564761Y-120597095D01*
X110517142Y-120549476D01*
X110183809Y-120549476D01*
X110183809Y-120739952D01*
X109945714Y-120120904D02*
X110612380Y-120120904D01*
X110040952Y-120120904D02*
X109993333Y-120073285D01*
X109945714Y-119978047D01*
X109945714Y-119835190D01*
X109993333Y-119739952D01*
X110088571Y-119692333D01*
X110612380Y-119692333D01*
X110612380Y-118787571D02*
X109612380Y-118787571D01*
X110564761Y-118787571D02*
X110612380Y-118882809D01*
X110612380Y-119073285D01*
X110564761Y-119168523D01*
X110517142Y-119216142D01*
X110421904Y-119263761D01*
X110136190Y-119263761D01*
X110040952Y-119216142D01*
X109993333Y-119168523D01*
X109945714Y-119073285D01*
X109945714Y-118882809D01*
X109993333Y-118787571D01*
X118137142Y-120549476D02*
X118184761Y-120597095D01*
X118232380Y-120739952D01*
X118232380Y-120835190D01*
X118184761Y-120978047D01*
X118089523Y-121073285D01*
X117994285Y-121120904D01*
X117803809Y-121168523D01*
X117660952Y-121168523D01*
X117470476Y-121120904D01*
X117375238Y-121073285D01*
X117280000Y-120978047D01*
X117232380Y-120835190D01*
X117232380Y-120739952D01*
X117280000Y-120597095D01*
X117327619Y-120549476D01*
X118232380Y-120073285D02*
X118232380Y-119882809D01*
X118184761Y-119787571D01*
X118137142Y-119739952D01*
X117994285Y-119644714D01*
X117803809Y-119597095D01*
X117422857Y-119597095D01*
X117327619Y-119644714D01*
X117280000Y-119692333D01*
X117232380Y-119787571D01*
X117232380Y-119978047D01*
X117280000Y-120073285D01*
X117327619Y-120120904D01*
X117422857Y-120168523D01*
X117660952Y-120168523D01*
X117756190Y-120120904D01*
X117803809Y-120073285D01*
X117851428Y-119978047D01*
X117851428Y-119787571D01*
X117803809Y-119692333D01*
X117756190Y-119644714D01*
X117660952Y-119597095D01*
X125566666Y-121168523D02*
X125566666Y-120692333D01*
X125852380Y-121263761D02*
X124852380Y-120930428D01*
X125852380Y-120597095D01*
X124852380Y-120073285D02*
X124852380Y-119978047D01*
X124900000Y-119882809D01*
X124947619Y-119835190D01*
X125042857Y-119787571D01*
X125233333Y-119739952D01*
X125471428Y-119739952D01*
X125661904Y-119787571D01*
X125757142Y-119835190D01*
X125804761Y-119882809D01*
X125852380Y-119978047D01*
X125852380Y-120073285D01*
X125804761Y-120168523D01*
X125757142Y-120216142D01*
X125661904Y-120263761D01*
X125471428Y-120311380D01*
X125233333Y-120311380D01*
X125042857Y-120263761D01*
X124947619Y-120216142D01*
X124900000Y-120168523D01*
X124852380Y-120073285D01*
X107072380Y-120644714D02*
X107072380Y-121120904D01*
X107548571Y-121168523D01*
X107500952Y-121120904D01*
X107453333Y-121025666D01*
X107453333Y-120787571D01*
X107500952Y-120692333D01*
X107548571Y-120644714D01*
X107643809Y-120597095D01*
X107881904Y-120597095D01*
X107977142Y-120644714D01*
X108024761Y-120692333D01*
X108072380Y-120787571D01*
X108072380Y-121025666D01*
X108024761Y-121120904D01*
X107977142Y-121168523D01*
X107072380Y-120311380D02*
X108072380Y-119978047D01*
X107072380Y-119644714D01*
X115597142Y-120549476D02*
X115644761Y-120597095D01*
X115692380Y-120739952D01*
X115692380Y-120835190D01*
X115644761Y-120978047D01*
X115549523Y-121073285D01*
X115454285Y-121120904D01*
X115263809Y-121168523D01*
X115120952Y-121168523D01*
X114930476Y-121120904D01*
X114835238Y-121073285D01*
X114740000Y-120978047D01*
X114692380Y-120835190D01*
X114692380Y-120739952D01*
X114740000Y-120597095D01*
X114787619Y-120549476D01*
X114692380Y-120216142D02*
X114692380Y-119549476D01*
X115692380Y-119978047D01*
X135060000Y-128948619D02*
X135012380Y-129043857D01*
X135012380Y-129186714D01*
X135060000Y-129329571D01*
X135155238Y-129424809D01*
X135250476Y-129472428D01*
X135440952Y-129520047D01*
X135583809Y-129520047D01*
X135774285Y-129472428D01*
X135869523Y-129424809D01*
X135964761Y-129329571D01*
X136012380Y-129186714D01*
X136012380Y-129091476D01*
X135964761Y-128948619D01*
X135917142Y-128901000D01*
X135583809Y-128901000D01*
X135583809Y-129091476D01*
X135345714Y-128472428D02*
X136012380Y-128472428D01*
X135440952Y-128472428D02*
X135393333Y-128424809D01*
X135345714Y-128329571D01*
X135345714Y-128186714D01*
X135393333Y-128091476D01*
X135488571Y-128043857D01*
X136012380Y-128043857D01*
X136012380Y-127139095D02*
X135012380Y-127139095D01*
X135964761Y-127139095D02*
X136012380Y-127234333D01*
X136012380Y-127424809D01*
X135964761Y-127520047D01*
X135917142Y-127567666D01*
X135821904Y-127615285D01*
X135536190Y-127615285D01*
X135440952Y-127567666D01*
X135393333Y-127520047D01*
X135345714Y-127424809D01*
X135345714Y-127234333D01*
X135393333Y-127139095D01*
X132472380Y-129520047D02*
X132472380Y-128901000D01*
X132853333Y-129234333D01*
X132853333Y-129091476D01*
X132900952Y-128996238D01*
X132948571Y-128948619D01*
X133043809Y-128901000D01*
X133281904Y-128901000D01*
X133377142Y-128948619D01*
X133424761Y-128996238D01*
X133472380Y-129091476D01*
X133472380Y-129377190D01*
X133424761Y-129472428D01*
X133377142Y-129520047D01*
X132472380Y-128615285D02*
X133472380Y-128281952D01*
X132472380Y-127948619D01*
X132472380Y-127710523D02*
X132472380Y-127091476D01*
X132853333Y-127424809D01*
X132853333Y-127281952D01*
X132900952Y-127186714D01*
X132948571Y-127139095D01*
X133043809Y-127091476D01*
X133281904Y-127091476D01*
X133377142Y-127139095D01*
X133424761Y-127186714D01*
X133472380Y-127281952D01*
X133472380Y-127567666D01*
X133424761Y-127662904D01*
X133377142Y-127710523D01*
X130646666Y-129472428D02*
X130646666Y-128996238D01*
X130932380Y-129567666D02*
X129932380Y-129234333D01*
X130932380Y-128901000D01*
X130932380Y-128043857D02*
X130932380Y-128615285D01*
X130932380Y-128329571D02*
X129932380Y-128329571D01*
X130075238Y-128424809D01*
X130170476Y-128520047D01*
X130218095Y-128615285D01*
X129932380Y-127424809D02*
X129932380Y-127329571D01*
X129980000Y-127234333D01*
X130027619Y-127186714D01*
X130122857Y-127139095D01*
X130313333Y-127091476D01*
X130551428Y-127091476D01*
X130741904Y-127139095D01*
X130837142Y-127186714D01*
X130884761Y-127234333D01*
X130932380Y-127329571D01*
X130932380Y-127424809D01*
X130884761Y-127520047D01*
X130837142Y-127567666D01*
X130741904Y-127615285D01*
X130551428Y-127662904D01*
X130313333Y-127662904D01*
X130122857Y-127615285D01*
X130027619Y-127567666D01*
X129980000Y-127520047D01*
X129932380Y-127424809D01*
X128106666Y-128520047D02*
X128106666Y-128043857D01*
X128392380Y-128615285D02*
X127392380Y-128281952D01*
X128392380Y-127948619D01*
X128392380Y-127567666D02*
X128392380Y-127377190D01*
X128344761Y-127281952D01*
X128297142Y-127234333D01*
X128154285Y-127139095D01*
X127963809Y-127091476D01*
X127582857Y-127091476D01*
X127487619Y-127139095D01*
X127440000Y-127186714D01*
X127392380Y-127281952D01*
X127392380Y-127472428D01*
X127440000Y-127567666D01*
X127487619Y-127615285D01*
X127582857Y-127662904D01*
X127820952Y-127662904D01*
X127916190Y-127615285D01*
X127963809Y-127567666D01*
X128011428Y-127472428D01*
X128011428Y-127281952D01*
X127963809Y-127186714D01*
X127916190Y-127139095D01*
X127820952Y-127091476D01*
X125566666Y-128520047D02*
X125566666Y-128043857D01*
X125852380Y-128615285D02*
X124852380Y-128281952D01*
X125852380Y-127948619D01*
X125280952Y-127472428D02*
X125233333Y-127567666D01*
X125185714Y-127615285D01*
X125090476Y-127662904D01*
X125042857Y-127662904D01*
X124947619Y-127615285D01*
X124900000Y-127567666D01*
X124852380Y-127472428D01*
X124852380Y-127281952D01*
X124900000Y-127186714D01*
X124947619Y-127139095D01*
X125042857Y-127091476D01*
X125090476Y-127091476D01*
X125185714Y-127139095D01*
X125233333Y-127186714D01*
X125280952Y-127281952D01*
X125280952Y-127472428D01*
X125328571Y-127567666D01*
X125376190Y-127615285D01*
X125471428Y-127662904D01*
X125661904Y-127662904D01*
X125757142Y-127615285D01*
X125804761Y-127567666D01*
X125852380Y-127472428D01*
X125852380Y-127281952D01*
X125804761Y-127186714D01*
X125757142Y-127139095D01*
X125661904Y-127091476D01*
X125471428Y-127091476D01*
X125376190Y-127139095D01*
X125328571Y-127186714D01*
X125280952Y-127281952D01*
X122360000Y-128948619D02*
X122312380Y-129043857D01*
X122312380Y-129186714D01*
X122360000Y-129329571D01*
X122455238Y-129424809D01*
X122550476Y-129472428D01*
X122740952Y-129520047D01*
X122883809Y-129520047D01*
X123074285Y-129472428D01*
X123169523Y-129424809D01*
X123264761Y-129329571D01*
X123312380Y-129186714D01*
X123312380Y-129091476D01*
X123264761Y-128948619D01*
X123217142Y-128901000D01*
X122883809Y-128901000D01*
X122883809Y-129091476D01*
X122645714Y-128472428D02*
X123312380Y-128472428D01*
X122740952Y-128472428D02*
X122693333Y-128424809D01*
X122645714Y-128329571D01*
X122645714Y-128186714D01*
X122693333Y-128091476D01*
X122788571Y-128043857D01*
X123312380Y-128043857D01*
X123312380Y-127139095D02*
X122312380Y-127139095D01*
X123264761Y-127139095D02*
X123312380Y-127234333D01*
X123312380Y-127424809D01*
X123264761Y-127520047D01*
X123217142Y-127567666D01*
X123121904Y-127615285D01*
X122836190Y-127615285D01*
X122740952Y-127567666D01*
X122693333Y-127520047D01*
X122645714Y-127424809D01*
X122645714Y-127234333D01*
X122693333Y-127139095D01*
X119772380Y-129520047D02*
X119772380Y-128901000D01*
X120153333Y-129234333D01*
X120153333Y-129091476D01*
X120200952Y-128996238D01*
X120248571Y-128948619D01*
X120343809Y-128901000D01*
X120581904Y-128901000D01*
X120677142Y-128948619D01*
X120724761Y-128996238D01*
X120772380Y-129091476D01*
X120772380Y-129377190D01*
X120724761Y-129472428D01*
X120677142Y-129520047D01*
X119772380Y-128615285D02*
X120772380Y-128281952D01*
X119772380Y-127948619D01*
X119772380Y-127710523D02*
X119772380Y-127091476D01*
X120153333Y-127424809D01*
X120153333Y-127281952D01*
X120200952Y-127186714D01*
X120248571Y-127139095D01*
X120343809Y-127091476D01*
X120581904Y-127091476D01*
X120677142Y-127139095D01*
X120724761Y-127186714D01*
X120772380Y-127281952D01*
X120772380Y-127567666D01*
X120724761Y-127662904D01*
X120677142Y-127710523D01*
X117708571Y-129234333D02*
X117756190Y-129091476D01*
X117803809Y-129043857D01*
X117899047Y-128996238D01*
X118041904Y-128996238D01*
X118137142Y-129043857D01*
X118184761Y-129091476D01*
X118232380Y-129186714D01*
X118232380Y-129567666D01*
X117232380Y-129567666D01*
X117232380Y-129234333D01*
X117280000Y-129139095D01*
X117327619Y-129091476D01*
X117422857Y-129043857D01*
X117518095Y-129043857D01*
X117613333Y-129091476D01*
X117660952Y-129139095D01*
X117708571Y-129234333D01*
X117708571Y-129567666D01*
X118232380Y-128043857D02*
X118232380Y-128615285D01*
X118232380Y-128329571D02*
X117232380Y-128329571D01*
X117375238Y-128424809D01*
X117470476Y-128520047D01*
X117518095Y-128615285D01*
X117565714Y-127186714D02*
X118232380Y-127186714D01*
X117184761Y-127424809D02*
X117899047Y-127662904D01*
X117899047Y-127043857D01*
X115168571Y-129234333D02*
X115216190Y-129091476D01*
X115263809Y-129043857D01*
X115359047Y-128996238D01*
X115501904Y-128996238D01*
X115597142Y-129043857D01*
X115644761Y-129091476D01*
X115692380Y-129186714D01*
X115692380Y-129567666D01*
X114692380Y-129567666D01*
X114692380Y-129234333D01*
X114740000Y-129139095D01*
X114787619Y-129091476D01*
X114882857Y-129043857D01*
X114978095Y-129043857D01*
X115073333Y-129091476D01*
X115120952Y-129139095D01*
X115168571Y-129234333D01*
X115168571Y-129567666D01*
X115692380Y-128043857D02*
X115692380Y-128615285D01*
X115692380Y-128329571D02*
X114692380Y-128329571D01*
X114835238Y-128424809D01*
X114930476Y-128520047D01*
X114978095Y-128615285D01*
X114692380Y-127139095D02*
X114692380Y-127615285D01*
X115168571Y-127662904D01*
X115120952Y-127615285D01*
X115073333Y-127520047D01*
X115073333Y-127281952D01*
X115120952Y-127186714D01*
X115168571Y-127139095D01*
X115263809Y-127091476D01*
X115501904Y-127091476D01*
X115597142Y-127139095D01*
X115644761Y-127186714D01*
X115692380Y-127281952D01*
X115692380Y-127520047D01*
X115644761Y-127615285D01*
X115597142Y-127662904D01*
X112628571Y-128281952D02*
X112676190Y-128139095D01*
X112723809Y-128091476D01*
X112819047Y-128043857D01*
X112961904Y-128043857D01*
X113057142Y-128091476D01*
X113104761Y-128139095D01*
X113152380Y-128234333D01*
X113152380Y-128615285D01*
X112152380Y-128615285D01*
X112152380Y-128281952D01*
X112200000Y-128186714D01*
X112247619Y-128139095D01*
X112342857Y-128091476D01*
X112438095Y-128091476D01*
X112533333Y-128139095D01*
X112580952Y-128186714D01*
X112628571Y-128281952D01*
X112628571Y-128615285D01*
X112152380Y-127710523D02*
X112152380Y-127091476D01*
X112533333Y-127424809D01*
X112533333Y-127281952D01*
X112580952Y-127186714D01*
X112628571Y-127139095D01*
X112723809Y-127091476D01*
X112961904Y-127091476D01*
X113057142Y-127139095D01*
X113104761Y-127186714D01*
X113152380Y-127281952D01*
X113152380Y-127567666D01*
X113104761Y-127662904D01*
X113057142Y-127710523D01*
X109660000Y-129106095D02*
X109612380Y-129201333D01*
X109612380Y-129344190D01*
X109660000Y-129487047D01*
X109755238Y-129582285D01*
X109850476Y-129629904D01*
X110040952Y-129677523D01*
X110183809Y-129677523D01*
X110374285Y-129629904D01*
X110469523Y-129582285D01*
X110564761Y-129487047D01*
X110612380Y-129344190D01*
X110612380Y-129248952D01*
X110564761Y-129106095D01*
X110517142Y-129058476D01*
X110183809Y-129058476D01*
X110183809Y-129248952D01*
X109945714Y-128629904D02*
X110612380Y-128629904D01*
X110040952Y-128629904D02*
X109993333Y-128582285D01*
X109945714Y-128487047D01*
X109945714Y-128344190D01*
X109993333Y-128248952D01*
X110088571Y-128201333D01*
X110612380Y-128201333D01*
X110612380Y-127296571D02*
X109612380Y-127296571D01*
X110564761Y-127296571D02*
X110612380Y-127391809D01*
X110612380Y-127582285D01*
X110564761Y-127677523D01*
X110517142Y-127725142D01*
X110421904Y-127772761D01*
X110136190Y-127772761D01*
X110040952Y-127725142D01*
X109993333Y-127677523D01*
X109945714Y-127582285D01*
X109945714Y-127391809D01*
X109993333Y-127296571D01*
X107072380Y-127996238D02*
X107072380Y-128472428D01*
X107548571Y-128520047D01*
X107500952Y-128472428D01*
X107453333Y-128377190D01*
X107453333Y-128139095D01*
X107500952Y-128043857D01*
X107548571Y-127996238D01*
X107643809Y-127948619D01*
X107881904Y-127948619D01*
X107977142Y-127996238D01*
X108024761Y-128043857D01*
X108072380Y-128139095D01*
X108072380Y-128377190D01*
X108024761Y-128472428D01*
X107977142Y-128520047D01*
X107072380Y-127662904D02*
X108072380Y-127329571D01*
X107072380Y-126996238D01*
D12*
X65312500Y-102762500D02*
X65837500Y-102762500D01*
X65312500Y-97512500D02*
X65837500Y-97512500D01*
X70562500Y-97512500D02*
X70037500Y-97512500D01*
X70562500Y-102762500D02*
X70037500Y-102762500D01*
X65312500Y-97512500D02*
X65312500Y-98037500D01*
X70562500Y-97512500D02*
X70562500Y-98037500D01*
X65312500Y-102762500D02*
X65312500Y-102237500D01*
D13*
X65750000Y-119500000D02*
X66750000Y-119500000D01*
X66750000Y-117800000D02*
X65750000Y-117800000D01*
X59900000Y-114750000D02*
X72500000Y-114750000D01*
X72500000Y-114750000D02*
X72500000Y-109650000D01*
X72500000Y-109650000D02*
X59900000Y-109650000D01*
X85626777Y-101728249D02*
X86121751Y-102223223D01*
X85273223Y-103071751D02*
X84778249Y-102576777D01*
X86521751Y-94526777D02*
X86026777Y-95021751D01*
X85178249Y-94173223D02*
X85673223Y-93678249D01*
X96426777Y-90228249D02*
X96921751Y-90723223D01*
X96073223Y-91571751D02*
X95578249Y-91076777D01*
X93500000Y-90250000D02*
X93500000Y-90950000D01*
X92300000Y-90950000D02*
X92300000Y-90250000D01*
X93526777Y-107328249D02*
X94021751Y-107823223D01*
X93173223Y-108671751D02*
X92678249Y-108176777D01*
X103271751Y-100426777D02*
X102776777Y-100921751D01*
X101928249Y-100073223D02*
X102423223Y-99578249D01*
X96495406Y-89897487D02*
X97202513Y-90604594D01*
X98404594Y-89402513D02*
X97697487Y-88695406D01*
X60274999Y-119610000D02*
X60274999Y-118610000D01*
X58574999Y-118610000D02*
X58574999Y-119610000D01*
X65650000Y-120150000D02*
X66350000Y-120150000D01*
X66350000Y-121350000D02*
X65650000Y-121350000D01*
X73850000Y-85500000D02*
X73850000Y-84500000D01*
X72150000Y-84500000D02*
X72150000Y-85500000D01*
X72150000Y-88500000D02*
X72150000Y-89500000D01*
X73850000Y-89500000D02*
X73850000Y-88500000D01*
X90797487Y-109854594D02*
X91504594Y-109147487D01*
X90302513Y-107945406D02*
X89595406Y-108652513D01*
X102502513Y-101495406D02*
X101795406Y-102202513D01*
X102997487Y-103404594D02*
X103704594Y-102697487D01*
X107900000Y-92650000D02*
X107900000Y-93350000D01*
X106700000Y-93350000D02*
X106700000Y-92650000D01*
X88971751Y-89126777D02*
X88476777Y-89621751D01*
X87628249Y-88773223D02*
X88123223Y-88278249D01*
X86871751Y-91226777D02*
X86376777Y-91721751D01*
X85528249Y-90873223D02*
X86023223Y-90378249D01*
X67900000Y-105750000D02*
X67900000Y-106450000D01*
X66700000Y-106450000D02*
X66700000Y-105750000D01*
X69573223Y-105921751D02*
X69078249Y-105426777D01*
X69926777Y-104578249D02*
X70421751Y-105073223D01*
X63350000Y-101550000D02*
X63350000Y-102250000D01*
X62150000Y-102250000D02*
X62150000Y-101550000D01*
X62000000Y-103700000D02*
X62000000Y-102700000D01*
X60300000Y-102700000D02*
X60300000Y-103700000D01*
X71350000Y-102850000D02*
X72050000Y-102850000D01*
X72050000Y-104050000D02*
X71350000Y-104050000D01*
X61150000Y-92600000D02*
X61150000Y-93600000D01*
X62850000Y-93600000D02*
X62850000Y-92600000D01*
X63950000Y-107900000D02*
X64650000Y-107900000D01*
X64650000Y-109100000D02*
X63950000Y-109100000D01*
X66950000Y-107900000D02*
X67650000Y-107900000D01*
X67650000Y-109100000D02*
X66950000Y-109100000D01*
X97300000Y-111700000D02*
X98000000Y-111700000D01*
X98000000Y-112900000D02*
X97300000Y-112900000D01*
X75750000Y-102350000D02*
X74750000Y-102350000D01*
X74750000Y-104050000D02*
X75750000Y-104050000D01*
X72500000Y-106350000D02*
X73500000Y-106350000D01*
X73500000Y-104650000D02*
X72500000Y-104650000D01*
X126398002Y-99190000D02*
X123198002Y-99190000D01*
X123198002Y-97690000D02*
X126398002Y-97690000D01*
X123198002Y-97690000D02*
X123198002Y-99190000D01*
X123198001Y-106990001D02*
X123198001Y-108490001D01*
X123198001Y-106990001D02*
X126398001Y-106990001D01*
X126398001Y-108490001D02*
X123198001Y-108490001D01*
X123298000Y-94190000D02*
X123298000Y-95690000D01*
X123298000Y-94190000D02*
X126498000Y-94190000D01*
X126498000Y-95690000D02*
X123298000Y-95690000D01*
X126398000Y-105490000D02*
X123198000Y-105490000D01*
X123198000Y-103990000D02*
X126398000Y-103990000D01*
X123198000Y-103990000D02*
X123198000Y-105490000D01*
X126498000Y-92689999D02*
X123298000Y-92689999D01*
X123298000Y-91189999D02*
X126498000Y-91189999D01*
X123298000Y-91189999D02*
X123298000Y-92689999D01*
X123098000Y-100790000D02*
X123098000Y-102290000D01*
X123098000Y-100790000D02*
X126298000Y-100790000D01*
X126298000Y-102290000D02*
X123098000Y-102290000D01*
X70315000Y-120155000D02*
X73515000Y-120155000D01*
X73515000Y-121655000D02*
X70315000Y-121655000D01*
X73515000Y-121655000D02*
X73515000Y-120155000D01*
X60630000Y-75930000D02*
X68310000Y-75930000D01*
X68310000Y-75930000D02*
X68310000Y-73270000D01*
X68310000Y-73270000D02*
X60630000Y-73270000D01*
X60630000Y-73270000D02*
X60630000Y-75930000D01*
X59360000Y-75930000D02*
X58030000Y-75930000D01*
X58030000Y-75930000D02*
X58030000Y-74600000D01*
X134230000Y-93650000D02*
X134230000Y-108950000D01*
X134230000Y-108950000D02*
X136890000Y-108950000D01*
X136890000Y-108950000D02*
X136890000Y-93650000D01*
X136890000Y-93650000D02*
X134230000Y-93650000D01*
X134230000Y-92380000D02*
X134230000Y-91050000D01*
X134230000Y-91050000D02*
X135560000Y-91050000D01*
X108890000Y-121530000D02*
X136890000Y-121530000D01*
X136890000Y-121530000D02*
X136890000Y-126730000D01*
X136890000Y-126730000D02*
X106290000Y-126730000D01*
X106290000Y-126730000D02*
X106290000Y-124130000D01*
X106290000Y-124130000D02*
X108890000Y-124130000D01*
X108890000Y-124130000D02*
X108890000Y-121530000D01*
X107620000Y-121530000D02*
X106290000Y-121530000D01*
X106290000Y-121530000D02*
X106290000Y-122800000D01*
X106290000Y-73270000D02*
X106290000Y-74540000D01*
X107620000Y-73270000D02*
X106290000Y-73270000D01*
X108890000Y-75870000D02*
X108890000Y-73270000D01*
X106290000Y-75870000D02*
X108890000Y-75870000D01*
X106290000Y-78470000D02*
X106290000Y-75870000D01*
X136890000Y-78470000D02*
X106290000Y-78470000D01*
X136890000Y-73270000D02*
X136890000Y-78470000D01*
X108890000Y-73270000D02*
X136890000Y-73270000D01*
X55610000Y-124190000D02*
X54280000Y-124190000D01*
X55610000Y-122860000D02*
X55610000Y-124190000D01*
X52950000Y-121590000D02*
X55610000Y-121590000D01*
X52950000Y-116450000D02*
X52950000Y-121590000D01*
X55610000Y-116450000D02*
X52950000Y-116450000D01*
X55610000Y-121590000D02*
X55610000Y-116450000D01*
X57950000Y-104450000D02*
X57950000Y-103750000D01*
X59150000Y-103750000D02*
X59150000Y-104450000D01*
X70850000Y-125300000D02*
X70850000Y-126000000D01*
X69650000Y-126000000D02*
X69650000Y-125300000D01*
D12*
X129298000Y-93490000D02*
X129498000Y-93490000D01*
X128848000Y-96040000D02*
X128648000Y-96040000D01*
X129648000Y-96040000D02*
X129148000Y-96040000D01*
X130148000Y-96040000D02*
X129948000Y-96040000D01*
X129948000Y-94440000D02*
X130148000Y-94440000D01*
X129148000Y-94440000D02*
X129648000Y-94440000D01*
X128648000Y-94440000D02*
X128848000Y-94440000D01*
X128848000Y-94440000D02*
G75*
G03X129148000Y-94440000I150000J150000D01*
G01*
X129648000Y-94440000D02*
G75*
G03X129948000Y-94440000I150000J150000D01*
G01*
X129948000Y-96040000D02*
G75*
G03X129648000Y-96040000I-150000J-150000D01*
G01*
X129148000Y-96040000D02*
G75*
G03X128848000Y-96040000I-150000J-150000D01*
G01*
X128648000Y-96040000D02*
X128648000Y-94440000D01*
X130148000Y-94440000D02*
X130148000Y-96040000D01*
X130548000Y-103940000D02*
X130548000Y-105540000D01*
X129048000Y-105540000D02*
X129048000Y-103940000D01*
X129548000Y-105540000D02*
G75*
G03X129248000Y-105540000I-150000J-150000D01*
G01*
X130348000Y-105540000D02*
G75*
G03X130048000Y-105540000I-150000J-150000D01*
G01*
X130048000Y-103940000D02*
G75*
G03X130348000Y-103940000I150000J150000D01*
G01*
X129248000Y-103940000D02*
G75*
G03X129548000Y-103940000I150000J150000D01*
G01*
X129048000Y-103940000D02*
X129248000Y-103940000D01*
X129548000Y-103940000D02*
X130048000Y-103940000D01*
X130348000Y-103940000D02*
X130548000Y-103940000D01*
X130548000Y-105540000D02*
X130348000Y-105540000D01*
X130048000Y-105540000D02*
X129548000Y-105540000D01*
X129248000Y-105540000D02*
X129048000Y-105540000D01*
X129698000Y-102990000D02*
X129898000Y-102990000D01*
D13*
X78410000Y-75930000D02*
X91170000Y-75930000D01*
X91170000Y-75930000D02*
X91170000Y-73270000D01*
X91170000Y-73270000D02*
X78410000Y-73270000D01*
X78410000Y-73270000D02*
X78410000Y-75930000D01*
X77140000Y-75930000D02*
X75810000Y-75930000D01*
X75810000Y-75930000D02*
X75810000Y-74600000D01*
D14*
X59900440Y-129899260D02*
X68099560Y-129899260D01*
X59900440Y-124199500D02*
X59900440Y-129899260D01*
X68099560Y-124199500D02*
X59900440Y-124199500D01*
X68099560Y-129899260D02*
X68099560Y-124199500D01*
X51100740Y-104099560D02*
X56800500Y-104099560D01*
X56800500Y-104099560D02*
X56800500Y-95900440D01*
X56800500Y-95900440D02*
X51100740Y-95900440D01*
X51100740Y-95900440D02*
X51100740Y-104099560D01*
D15*
X88400320Y-129900440D02*
X103599680Y-129900440D01*
X103599680Y-129900440D02*
X103599680Y-113299000D01*
X103599680Y-113299000D02*
X88600980Y-113299000D01*
X88600980Y-113299000D02*
X88400320Y-113299000D01*
X88400320Y-113299000D02*
X88400320Y-129900440D01*
D13*
X60000000Y-76970000D02*
X61200000Y-76970000D01*
X61200000Y-78730000D02*
X60000000Y-78730000D01*
X102550000Y-108820000D02*
X103750000Y-108820000D01*
X103750000Y-110580000D02*
X102550000Y-110580000D01*
X104250000Y-95180000D02*
X103050000Y-95180000D01*
X103050000Y-93420000D02*
X104250000Y-93420000D01*
X101300000Y-89720000D02*
X102500000Y-89720000D01*
X102500000Y-91480000D02*
X101300000Y-91480000D01*
X117230000Y-106000000D02*
X117230000Y-107200000D01*
X115470000Y-107200000D02*
X115470000Y-106000000D01*
X72220000Y-93600000D02*
X72220000Y-92400000D01*
X73980000Y-92400000D02*
X73980000Y-93600000D01*
X71880000Y-92400000D02*
X71880000Y-93600000D01*
X70120000Y-93600000D02*
X70120000Y-92400000D01*
X68020000Y-93600000D02*
X68020000Y-92400000D01*
X69780000Y-92400000D02*
X69780000Y-93600000D01*
X64880000Y-92400000D02*
X64880000Y-93600000D01*
X63120000Y-93600000D02*
X63120000Y-92400000D01*
X83250000Y-123570000D02*
X84450000Y-123570000D01*
X84450000Y-125330000D02*
X83250000Y-125330000D01*
X131330000Y-83250000D02*
X131330000Y-84450000D01*
X129570000Y-84450000D02*
X129570000Y-83250000D01*
X80320000Y-110700000D02*
X80320000Y-109500000D01*
X82080000Y-109500000D02*
X82080000Y-110700000D01*
X63420000Y-105400000D02*
X63420000Y-104200000D01*
X65180000Y-104200000D02*
X65180000Y-105400000D01*
X103600000Y-93330000D02*
X102400000Y-93330000D01*
X102400000Y-91570000D02*
X103600000Y-91570000D01*
X119798000Y-97560000D02*
X120998000Y-97560000D01*
X120998000Y-99320000D02*
X119798000Y-99320000D01*
X121098000Y-109020000D02*
X119898000Y-109020000D01*
X119898000Y-107260000D02*
X121098000Y-107260000D01*
X119798000Y-94160000D02*
X120998000Y-94160000D01*
X120998000Y-95920000D02*
X119798000Y-95920000D01*
X119898000Y-103960000D02*
X121098000Y-103960000D01*
X121098000Y-105720000D02*
X119898000Y-105720000D01*
X120997999Y-92620000D02*
X119797999Y-92620000D01*
X119797999Y-90860000D02*
X120997999Y-90860000D01*
X120998000Y-102420000D02*
X119798000Y-102420000D01*
X119798000Y-100660000D02*
X120998000Y-100660000D01*
X70765000Y-117475000D02*
X71965000Y-117475000D01*
X71965000Y-119235000D02*
X70765000Y-119235000D01*
X70050000Y-107170000D02*
X71250000Y-107170000D01*
X71250000Y-108930000D02*
X70050000Y-108930000D01*
D12*
X74650000Y-129550000D02*
X81350000Y-129550000D01*
X74650000Y-126850000D02*
X74650000Y-129550000D01*
X81350000Y-126850000D02*
X74650000Y-126850000D01*
X81350000Y-129550000D02*
X81350000Y-126850000D01*
D16*
X93731000Y-93467583D02*
G75*
G03X93731000Y-93467583I-381000J0D01*
G01*
X93350000Y-106399152D02*
X100534205Y-99214947D01*
X100534205Y-99214947D02*
X93799013Y-92479755D01*
X93799013Y-92479755D02*
X92900987Y-92479755D01*
X92900987Y-92479755D02*
X86165795Y-99214947D01*
X86165795Y-99214947D02*
X93350000Y-106399152D01*
D13*
X61525000Y-121220000D02*
X63325000Y-121220000D01*
X63325000Y-118000000D02*
X60875000Y-118000000D01*
D12*
X67175595Y-103339880D02*
X67175595Y-104149404D01*
X67223214Y-104244642D01*
X67270833Y-104292261D01*
X67366071Y-104339880D01*
X67556547Y-104339880D01*
X67651785Y-104292261D01*
X67699404Y-104244642D01*
X67747023Y-104149404D01*
X67747023Y-103339880D01*
X68175595Y-103435119D02*
X68223214Y-103387500D01*
X68318452Y-103339880D01*
X68556547Y-103339880D01*
X68651785Y-103387500D01*
X68699404Y-103435119D01*
X68747023Y-103530357D01*
X68747023Y-103625595D01*
X68699404Y-103768452D01*
X68127976Y-104339880D01*
X68747023Y-104339880D01*
X65607142Y-117507142D02*
X65559523Y-117554761D01*
X65416666Y-117602380D01*
X65321428Y-117602380D01*
X65178571Y-117554761D01*
X65083333Y-117459523D01*
X65035714Y-117364285D01*
X64988095Y-117173809D01*
X64988095Y-117030952D01*
X65035714Y-116840476D01*
X65083333Y-116745238D01*
X65178571Y-116650000D01*
X65321428Y-116602380D01*
X65416666Y-116602380D01*
X65559523Y-116650000D01*
X65607142Y-116697619D01*
X66559523Y-117602380D02*
X65988095Y-117602380D01*
X66273809Y-117602380D02*
X66273809Y-116602380D01*
X66178571Y-116745238D01*
X66083333Y-116840476D01*
X65988095Y-116888095D01*
X67178571Y-116602380D02*
X67273809Y-116602380D01*
X67369047Y-116650000D01*
X67416666Y-116697619D01*
X67464285Y-116792857D01*
X67511904Y-116983333D01*
X67511904Y-117221428D01*
X67464285Y-117411904D01*
X67416666Y-117507142D01*
X67369047Y-117554761D01*
X67273809Y-117602380D01*
X67178571Y-117602380D01*
X67083333Y-117554761D01*
X67035714Y-117507142D01*
X66988095Y-117411904D01*
X66940476Y-117221428D01*
X66940476Y-116983333D01*
X66988095Y-116792857D01*
X67035714Y-116697619D01*
X67083333Y-116650000D01*
X67178571Y-116602380D01*
X64990476Y-115202380D02*
X65657142Y-116202380D01*
X65657142Y-115202380D02*
X64990476Y-116202380D01*
X65990476Y-115297619D02*
X66038095Y-115250000D01*
X66133333Y-115202380D01*
X66371428Y-115202380D01*
X66466666Y-115250000D01*
X66514285Y-115297619D01*
X66561904Y-115392857D01*
X66561904Y-115488095D01*
X66514285Y-115630952D01*
X65942857Y-116202380D01*
X66561904Y-116202380D01*
X84129610Y-103484687D02*
X84062267Y-103484687D01*
X83927580Y-103417343D01*
X83860236Y-103350000D01*
X83792893Y-103215312D01*
X83792893Y-103080625D01*
X83826564Y-102979610D01*
X83927580Y-102811251D01*
X84028595Y-102710236D01*
X84196954Y-102609221D01*
X84297969Y-102575549D01*
X84432656Y-102575549D01*
X84567343Y-102642893D01*
X84634687Y-102710236D01*
X84702030Y-102844923D01*
X84702030Y-102912267D01*
X84735702Y-104225465D02*
X84331641Y-103821404D01*
X84533671Y-104023435D02*
X85240778Y-103316328D01*
X85072419Y-103350000D01*
X84937732Y-103350000D01*
X84836717Y-103316328D01*
X87045347Y-95781049D02*
X87045347Y-95848392D01*
X86978003Y-95983079D01*
X86910660Y-96050423D01*
X86775972Y-96117766D01*
X86641285Y-96117766D01*
X86540270Y-96084095D01*
X86371911Y-95983079D01*
X86270896Y-95882064D01*
X86169881Y-95713705D01*
X86136209Y-95612690D01*
X86136209Y-95478003D01*
X86203553Y-95343316D01*
X86270896Y-95275972D01*
X86405583Y-95208629D01*
X86472927Y-95208629D01*
X86742301Y-94939255D02*
X86742301Y-94871911D01*
X86775972Y-94770896D01*
X86944331Y-94602537D01*
X87045347Y-94568866D01*
X87112690Y-94568866D01*
X87213705Y-94602537D01*
X87281049Y-94669881D01*
X87348392Y-94804568D01*
X87348392Y-95612690D01*
X87786125Y-95174957D01*
X97079610Y-92784687D02*
X97012267Y-92784687D01*
X96877580Y-92717343D01*
X96810236Y-92650000D01*
X96742893Y-92515312D01*
X96742893Y-92380625D01*
X96776564Y-92279610D01*
X96877580Y-92111251D01*
X96978595Y-92010236D01*
X97146954Y-91909221D01*
X97247969Y-91875549D01*
X97382656Y-91875549D01*
X97517343Y-91942893D01*
X97584687Y-92010236D01*
X97652030Y-92144923D01*
X97652030Y-92212267D01*
X97955076Y-92380625D02*
X98392809Y-92818358D01*
X97887732Y-92852030D01*
X97988748Y-92953045D01*
X98022419Y-93054061D01*
X98022419Y-93121404D01*
X97988748Y-93222419D01*
X97820389Y-93390778D01*
X97719374Y-93424450D01*
X97652030Y-93424450D01*
X97551015Y-93390778D01*
X97348984Y-93188748D01*
X97315312Y-93087732D01*
X97315312Y-93020389D01*
X94757142Y-90766666D02*
X94804761Y-90814285D01*
X94852380Y-90957142D01*
X94852380Y-91052380D01*
X94804761Y-91195238D01*
X94709523Y-91290476D01*
X94614285Y-91338095D01*
X94423809Y-91385714D01*
X94280952Y-91385714D01*
X94090476Y-91338095D01*
X93995238Y-91290476D01*
X93900000Y-91195238D01*
X93852380Y-91052380D01*
X93852380Y-90957142D01*
X93900000Y-90814285D01*
X93947619Y-90766666D01*
X94185714Y-89909523D02*
X94852380Y-89909523D01*
X93804761Y-90147619D02*
X94519047Y-90385714D01*
X94519047Y-89766666D01*
X94984687Y-109820389D02*
X94984687Y-109887732D01*
X94917343Y-110022419D01*
X94850000Y-110089763D01*
X94715312Y-110157106D01*
X94580625Y-110157106D01*
X94479610Y-110123435D01*
X94311251Y-110022419D01*
X94210236Y-109921404D01*
X94109221Y-109753045D01*
X94075549Y-109652030D01*
X94075549Y-109517343D01*
X94142893Y-109382656D01*
X94210236Y-109315312D01*
X94344923Y-109247969D01*
X94412267Y-109247969D01*
X94984687Y-108540862D02*
X94647969Y-108877580D01*
X94951015Y-109247969D01*
X94951015Y-109180625D01*
X94984687Y-109079610D01*
X95153045Y-108911251D01*
X95254061Y-108877580D01*
X95321404Y-108877580D01*
X95422419Y-108911251D01*
X95590778Y-109079610D01*
X95624450Y-109180625D01*
X95624450Y-109247969D01*
X95590778Y-109348984D01*
X95422419Y-109517343D01*
X95321404Y-109551015D01*
X95254061Y-109551015D01*
X101734687Y-99620389D02*
X101734687Y-99687732D01*
X101667343Y-99822419D01*
X101600000Y-99889763D01*
X101465312Y-99957106D01*
X101330625Y-99957106D01*
X101229610Y-99923435D01*
X101061251Y-99822419D01*
X100960236Y-99721404D01*
X100859221Y-99553045D01*
X100825549Y-99452030D01*
X100825549Y-99317343D01*
X100892893Y-99182656D01*
X100960236Y-99115312D01*
X101094923Y-99047969D01*
X101162267Y-99047969D01*
X101701015Y-98374534D02*
X101566328Y-98509221D01*
X101532656Y-98610236D01*
X101532656Y-98677580D01*
X101566328Y-98845938D01*
X101667343Y-99014297D01*
X101936717Y-99283671D01*
X102037732Y-99317343D01*
X102105076Y-99317343D01*
X102206091Y-99283671D01*
X102340778Y-99148984D01*
X102374450Y-99047969D01*
X102374450Y-98980625D01*
X102340778Y-98879610D01*
X102172419Y-98711251D01*
X102071404Y-98677580D01*
X102004061Y-98677580D01*
X101903045Y-98711251D01*
X101768358Y-98845938D01*
X101734687Y-98946954D01*
X101734687Y-99014297D01*
X101768358Y-99115312D01*
X98229610Y-88534687D02*
X98162267Y-88534687D01*
X98027580Y-88467343D01*
X97960236Y-88400000D01*
X97892893Y-88265312D01*
X97892893Y-88130625D01*
X97926564Y-88029610D01*
X98027580Y-87861251D01*
X98128595Y-87760236D01*
X98296954Y-87659221D01*
X98397969Y-87625549D01*
X98532656Y-87625549D01*
X98667343Y-87692893D01*
X98734687Y-87760236D01*
X98802030Y-87894923D01*
X98802030Y-87962267D01*
X99105076Y-88130625D02*
X99576480Y-88602030D01*
X98566328Y-89006091D01*
X58057142Y-120216666D02*
X58104761Y-120264285D01*
X58152380Y-120407142D01*
X58152380Y-120502380D01*
X58104761Y-120645238D01*
X58009523Y-120740476D01*
X57914285Y-120788095D01*
X57723809Y-120835714D01*
X57580952Y-120835714D01*
X57390476Y-120788095D01*
X57295238Y-120740476D01*
X57200000Y-120645238D01*
X57152380Y-120502380D01*
X57152380Y-120407142D01*
X57200000Y-120264285D01*
X57247619Y-120216666D01*
X57580952Y-119645238D02*
X57533333Y-119740476D01*
X57485714Y-119788095D01*
X57390476Y-119835714D01*
X57342857Y-119835714D01*
X57247619Y-119788095D01*
X57200000Y-119740476D01*
X57152380Y-119645238D01*
X57152380Y-119454761D01*
X57200000Y-119359523D01*
X57247619Y-119311904D01*
X57342857Y-119264285D01*
X57390476Y-119264285D01*
X57485714Y-119311904D01*
X57533333Y-119359523D01*
X57580952Y-119454761D01*
X57580952Y-119645238D01*
X57628571Y-119740476D01*
X57676190Y-119788095D01*
X57771428Y-119835714D01*
X57961904Y-119835714D01*
X58057142Y-119788095D01*
X58104761Y-119740476D01*
X58152380Y-119645238D01*
X58152380Y-119454761D01*
X58104761Y-119359523D01*
X58057142Y-119311904D01*
X57961904Y-119264285D01*
X57771428Y-119264285D01*
X57676190Y-119311904D01*
X57628571Y-119359523D01*
X57580952Y-119454761D01*
X65833333Y-122507142D02*
X65785714Y-122554761D01*
X65642857Y-122602380D01*
X65547619Y-122602380D01*
X65404761Y-122554761D01*
X65309523Y-122459523D01*
X65261904Y-122364285D01*
X65214285Y-122173809D01*
X65214285Y-122030952D01*
X65261904Y-121840476D01*
X65309523Y-121745238D01*
X65404761Y-121650000D01*
X65547619Y-121602380D01*
X65642857Y-121602380D01*
X65785714Y-121650000D01*
X65833333Y-121697619D01*
X66309523Y-122602380D02*
X66500000Y-122602380D01*
X66595238Y-122554761D01*
X66642857Y-122507142D01*
X66738095Y-122364285D01*
X66785714Y-122173809D01*
X66785714Y-121792857D01*
X66738095Y-121697619D01*
X66690476Y-121650000D01*
X66595238Y-121602380D01*
X66404761Y-121602380D01*
X66309523Y-121650000D01*
X66261904Y-121697619D01*
X66214285Y-121792857D01*
X66214285Y-122030952D01*
X66261904Y-122126190D01*
X66309523Y-122173809D01*
X66404761Y-122221428D01*
X66595238Y-122221428D01*
X66690476Y-122173809D01*
X66738095Y-122126190D01*
X66785714Y-122030952D01*
X74857142Y-85642857D02*
X74904761Y-85690476D01*
X74952380Y-85833333D01*
X74952380Y-85928571D01*
X74904761Y-86071428D01*
X74809523Y-86166666D01*
X74714285Y-86214285D01*
X74523809Y-86261904D01*
X74380952Y-86261904D01*
X74190476Y-86214285D01*
X74095238Y-86166666D01*
X74000000Y-86071428D01*
X73952380Y-85928571D01*
X73952380Y-85833333D01*
X74000000Y-85690476D01*
X74047619Y-85642857D01*
X74952380Y-84690476D02*
X74952380Y-85261904D01*
X74952380Y-84976190D02*
X73952380Y-84976190D01*
X74095238Y-85071428D01*
X74190476Y-85166666D01*
X74238095Y-85261904D01*
X74952380Y-83738095D02*
X74952380Y-84309523D01*
X74952380Y-84023809D02*
X73952380Y-84023809D01*
X74095238Y-84119047D01*
X74190476Y-84214285D01*
X74238095Y-84309523D01*
X75007142Y-89592857D02*
X75054761Y-89640476D01*
X75102380Y-89783333D01*
X75102380Y-89878571D01*
X75054761Y-90021428D01*
X74959523Y-90116666D01*
X74864285Y-90164285D01*
X74673809Y-90211904D01*
X74530952Y-90211904D01*
X74340476Y-90164285D01*
X74245238Y-90116666D01*
X74150000Y-90021428D01*
X74102380Y-89878571D01*
X74102380Y-89783333D01*
X74150000Y-89640476D01*
X74197619Y-89592857D01*
X75102380Y-88640476D02*
X75102380Y-89211904D01*
X75102380Y-88926190D02*
X74102380Y-88926190D01*
X74245238Y-89021428D01*
X74340476Y-89116666D01*
X74388095Y-89211904D01*
X74197619Y-88259523D02*
X74150000Y-88211904D01*
X74102380Y-88116666D01*
X74102380Y-87878571D01*
X74150000Y-87783333D01*
X74197619Y-87735714D01*
X74292857Y-87688095D01*
X74388095Y-87688095D01*
X74530952Y-87735714D01*
X75102380Y-88307142D01*
X75102380Y-87688095D01*
X91408629Y-110667766D02*
X91408629Y-110735110D01*
X91341285Y-110869797D01*
X91273942Y-110937140D01*
X91139255Y-111004484D01*
X91004568Y-111004484D01*
X90903553Y-110970812D01*
X90735194Y-110869797D01*
X90634179Y-110768782D01*
X90533163Y-110600423D01*
X90499492Y-110499408D01*
X90499492Y-110364721D01*
X90566835Y-110230034D01*
X90634179Y-110162690D01*
X90768866Y-110095347D01*
X90836209Y-110095347D01*
X92149408Y-110061675D02*
X91745347Y-110465736D01*
X91947377Y-110263705D02*
X91240270Y-109556598D01*
X91273942Y-109724957D01*
X91273942Y-109859644D01*
X91240270Y-109960660D01*
X91678003Y-109118866D02*
X92115736Y-108681133D01*
X92149408Y-109186209D01*
X92250423Y-109085194D01*
X92351438Y-109051522D01*
X92418782Y-109051522D01*
X92519797Y-109085194D01*
X92688156Y-109253553D01*
X92721827Y-109354568D01*
X92721827Y-109421911D01*
X92688156Y-109522927D01*
X92486125Y-109724957D01*
X92385110Y-109758629D01*
X92317766Y-109758629D01*
X103647969Y-104307106D02*
X103647969Y-104374450D01*
X103580625Y-104509137D01*
X103513282Y-104576480D01*
X103378595Y-104643824D01*
X103243908Y-104643824D01*
X103142893Y-104610152D01*
X102974534Y-104509137D01*
X102873519Y-104408122D01*
X102772503Y-104239763D01*
X102738832Y-104138748D01*
X102738832Y-104004061D01*
X102806175Y-103869374D01*
X102873519Y-103802030D01*
X103008206Y-103734687D01*
X103075549Y-103734687D01*
X104388748Y-103701015D02*
X103984687Y-104105076D01*
X104186717Y-103903045D02*
X103479610Y-103195938D01*
X103513282Y-103364297D01*
X103513282Y-103498984D01*
X103479610Y-103600000D01*
X104523435Y-102623519D02*
X104994839Y-103094923D01*
X104085702Y-102522503D02*
X104422419Y-103195938D01*
X104860152Y-102758206D01*
X109107142Y-93642857D02*
X109154761Y-93690476D01*
X109202380Y-93833333D01*
X109202380Y-93928571D01*
X109154761Y-94071428D01*
X109059523Y-94166666D01*
X108964285Y-94214285D01*
X108773809Y-94261904D01*
X108630952Y-94261904D01*
X108440476Y-94214285D01*
X108345238Y-94166666D01*
X108250000Y-94071428D01*
X108202380Y-93928571D01*
X108202380Y-93833333D01*
X108250000Y-93690476D01*
X108297619Y-93642857D01*
X109202380Y-92690476D02*
X109202380Y-93261904D01*
X109202380Y-92976190D02*
X108202380Y-92976190D01*
X108345238Y-93071428D01*
X108440476Y-93166666D01*
X108488095Y-93261904D01*
X108202380Y-91785714D02*
X108202380Y-92261904D01*
X108678571Y-92309523D01*
X108630952Y-92261904D01*
X108583333Y-92166666D01*
X108583333Y-91928571D01*
X108630952Y-91833333D01*
X108678571Y-91785714D01*
X108773809Y-91738095D01*
X109011904Y-91738095D01*
X109107142Y-91785714D01*
X109154761Y-91833333D01*
X109202380Y-91928571D01*
X109202380Y-92166666D01*
X109154761Y-92261904D01*
X109107142Y-92309523D01*
X87037309Y-88596446D02*
X87037309Y-88663790D01*
X86969965Y-88798477D01*
X86902622Y-88865820D01*
X86767935Y-88933164D01*
X86633248Y-88933164D01*
X86532233Y-88899492D01*
X86363874Y-88798477D01*
X86262859Y-88697462D01*
X86161843Y-88529103D01*
X86128172Y-88428088D01*
X86128172Y-88293401D01*
X86195515Y-88158714D01*
X86262859Y-88091370D01*
X86397546Y-88024027D01*
X86464889Y-88024027D01*
X87778088Y-87990355D02*
X87374027Y-88394416D01*
X87576057Y-88192385D02*
X86868950Y-87485278D01*
X86902622Y-87653637D01*
X86902622Y-87788324D01*
X86868950Y-87889340D01*
X87677072Y-86677156D02*
X87542385Y-86811843D01*
X87508714Y-86912859D01*
X87508714Y-86980202D01*
X87542385Y-87148561D01*
X87643401Y-87316920D01*
X87912775Y-87586294D01*
X88013790Y-87619965D01*
X88081133Y-87619965D01*
X88182149Y-87586294D01*
X88316836Y-87451607D01*
X88350507Y-87350591D01*
X88350507Y-87283248D01*
X88316836Y-87182233D01*
X88148477Y-87013874D01*
X88047462Y-86980202D01*
X87980118Y-86980202D01*
X87879103Y-87013874D01*
X87744416Y-87148561D01*
X87710744Y-87249576D01*
X87710744Y-87316920D01*
X87744416Y-87417935D01*
X84897969Y-90707105D02*
X84897969Y-90774449D01*
X84830625Y-90909136D01*
X84763282Y-90976479D01*
X84628595Y-91043823D01*
X84493908Y-91043823D01*
X84392893Y-91010151D01*
X84224534Y-90909136D01*
X84123519Y-90808121D01*
X84022503Y-90639762D01*
X83988832Y-90538747D01*
X83988832Y-90404060D01*
X84056175Y-90269373D01*
X84123519Y-90202029D01*
X84258206Y-90134686D01*
X84325549Y-90134686D01*
X85638748Y-90101014D02*
X85234687Y-90505075D01*
X85436717Y-90303044D02*
X84729610Y-89595937D01*
X84763282Y-89764296D01*
X84763282Y-89898983D01*
X84729610Y-89999999D01*
X85167343Y-89158205D02*
X85638748Y-88686800D01*
X86042809Y-89696953D01*
X66407142Y-106792857D02*
X66454761Y-106840476D01*
X66502380Y-106983333D01*
X66502380Y-107078571D01*
X66454761Y-107221428D01*
X66359523Y-107316666D01*
X66264285Y-107364285D01*
X66073809Y-107411904D01*
X65930952Y-107411904D01*
X65740476Y-107364285D01*
X65645238Y-107316666D01*
X65550000Y-107221428D01*
X65502380Y-107078571D01*
X65502380Y-106983333D01*
X65550000Y-106840476D01*
X65597619Y-106792857D01*
X66502380Y-105840476D02*
X66502380Y-106411904D01*
X66502380Y-106126190D02*
X65502380Y-106126190D01*
X65645238Y-106221428D01*
X65740476Y-106316666D01*
X65788095Y-106411904D01*
X65930952Y-105269047D02*
X65883333Y-105364285D01*
X65835714Y-105411904D01*
X65740476Y-105459523D01*
X65692857Y-105459523D01*
X65597619Y-105411904D01*
X65550000Y-105364285D01*
X65502380Y-105269047D01*
X65502380Y-105078571D01*
X65550000Y-104983333D01*
X65597619Y-104935714D01*
X65692857Y-104888095D01*
X65740476Y-104888095D01*
X65835714Y-104935714D01*
X65883333Y-104983333D01*
X65930952Y-105078571D01*
X65930952Y-105269047D01*
X65978571Y-105364285D01*
X66026190Y-105411904D01*
X66121428Y-105459523D01*
X66311904Y-105459523D01*
X66407142Y-105411904D01*
X66454761Y-105364285D01*
X66502380Y-105269047D01*
X66502380Y-105078571D01*
X66454761Y-104983333D01*
X66407142Y-104935714D01*
X66311904Y-104888095D01*
X66121428Y-104888095D01*
X66026190Y-104935714D01*
X65978571Y-104983333D01*
X65930952Y-105078571D01*
X70103553Y-103987309D02*
X70036209Y-103987309D01*
X69901522Y-103919965D01*
X69834179Y-103852622D01*
X69766835Y-103717935D01*
X69766835Y-103583248D01*
X69800507Y-103482233D01*
X69901522Y-103313874D01*
X70002537Y-103212859D01*
X70170896Y-103111843D01*
X70271911Y-103078172D01*
X70406598Y-103078172D01*
X70541285Y-103145515D01*
X70608629Y-103212859D01*
X70675972Y-103347546D01*
X70675972Y-103414889D01*
X70709644Y-104728088D02*
X70305583Y-104324027D01*
X70507614Y-104526057D02*
X71214721Y-103818950D01*
X71046362Y-103852622D01*
X70911675Y-103852622D01*
X70810660Y-103818950D01*
X71046362Y-105064805D02*
X71181049Y-105199492D01*
X71282064Y-105233164D01*
X71349408Y-105233164D01*
X71517766Y-105199492D01*
X71686125Y-105098477D01*
X71955499Y-104829103D01*
X71989171Y-104728088D01*
X71989171Y-104660744D01*
X71955499Y-104559729D01*
X71820812Y-104425042D01*
X71719797Y-104391370D01*
X71652453Y-104391370D01*
X71551438Y-104425042D01*
X71383079Y-104593401D01*
X71349408Y-104694416D01*
X71349408Y-104761759D01*
X71383079Y-104862775D01*
X71517766Y-104997462D01*
X71618782Y-105031133D01*
X71686125Y-105031133D01*
X71787140Y-104997462D01*
X64257142Y-101242857D02*
X64304761Y-101290476D01*
X64352380Y-101433333D01*
X64352380Y-101528571D01*
X64304761Y-101671428D01*
X64209523Y-101766666D01*
X64114285Y-101814285D01*
X63923809Y-101861904D01*
X63780952Y-101861904D01*
X63590476Y-101814285D01*
X63495238Y-101766666D01*
X63400000Y-101671428D01*
X63352380Y-101528571D01*
X63352380Y-101433333D01*
X63400000Y-101290476D01*
X63447619Y-101242857D01*
X63447619Y-100861904D02*
X63400000Y-100814285D01*
X63352380Y-100719047D01*
X63352380Y-100480952D01*
X63400000Y-100385714D01*
X63447619Y-100338095D01*
X63542857Y-100290476D01*
X63638095Y-100290476D01*
X63780952Y-100338095D01*
X64352380Y-100909523D01*
X64352380Y-100290476D01*
X63352380Y-99671428D02*
X63352380Y-99576190D01*
X63400000Y-99480952D01*
X63447619Y-99433333D01*
X63542857Y-99385714D01*
X63733333Y-99338095D01*
X63971428Y-99338095D01*
X64161904Y-99385714D01*
X64257142Y-99433333D01*
X64304761Y-99480952D01*
X64352380Y-99576190D01*
X64352380Y-99671428D01*
X64304761Y-99766666D01*
X64257142Y-99814285D01*
X64161904Y-99861904D01*
X63971428Y-99909523D01*
X63733333Y-99909523D01*
X63542857Y-99861904D01*
X63447619Y-99814285D01*
X63400000Y-99766666D01*
X63352380Y-99671428D01*
X60007142Y-103842857D02*
X60054761Y-103890476D01*
X60102380Y-104033333D01*
X60102380Y-104128571D01*
X60054761Y-104271428D01*
X59959523Y-104366666D01*
X59864285Y-104414285D01*
X59673809Y-104461904D01*
X59530952Y-104461904D01*
X59340476Y-104414285D01*
X59245238Y-104366666D01*
X59150000Y-104271428D01*
X59102380Y-104128571D01*
X59102380Y-104033333D01*
X59150000Y-103890476D01*
X59197619Y-103842857D01*
X59197619Y-103461904D02*
X59150000Y-103414285D01*
X59102380Y-103319047D01*
X59102380Y-103080952D01*
X59150000Y-102985714D01*
X59197619Y-102938095D01*
X59292857Y-102890476D01*
X59388095Y-102890476D01*
X59530952Y-102938095D01*
X60102380Y-103509523D01*
X60102380Y-102890476D01*
X60102380Y-101938095D02*
X60102380Y-102509523D01*
X60102380Y-102223809D02*
X59102380Y-102223809D01*
X59245238Y-102319047D01*
X59340476Y-102414285D01*
X59388095Y-102509523D01*
X71057142Y-102307142D02*
X71009523Y-102354761D01*
X70866666Y-102402380D01*
X70771428Y-102402380D01*
X70628571Y-102354761D01*
X70533333Y-102259523D01*
X70485714Y-102164285D01*
X70438095Y-101973809D01*
X70438095Y-101830952D01*
X70485714Y-101640476D01*
X70533333Y-101545238D01*
X70628571Y-101450000D01*
X70771428Y-101402380D01*
X70866666Y-101402380D01*
X71009523Y-101450000D01*
X71057142Y-101497619D01*
X71438095Y-101497619D02*
X71485714Y-101450000D01*
X71580952Y-101402380D01*
X71819047Y-101402380D01*
X71914285Y-101450000D01*
X71961904Y-101497619D01*
X72009523Y-101592857D01*
X72009523Y-101688095D01*
X71961904Y-101830952D01*
X71390476Y-102402380D01*
X72009523Y-102402380D01*
X72390476Y-101497619D02*
X72438095Y-101450000D01*
X72533333Y-101402380D01*
X72771428Y-101402380D01*
X72866666Y-101450000D01*
X72914285Y-101497619D01*
X72961904Y-101592857D01*
X72961904Y-101688095D01*
X72914285Y-101830952D01*
X72342857Y-102402380D01*
X72961904Y-102402380D01*
X60857142Y-93742857D02*
X60904761Y-93790476D01*
X60952380Y-93933333D01*
X60952380Y-94028571D01*
X60904761Y-94171428D01*
X60809523Y-94266666D01*
X60714285Y-94314285D01*
X60523809Y-94361904D01*
X60380952Y-94361904D01*
X60190476Y-94314285D01*
X60095238Y-94266666D01*
X60000000Y-94171428D01*
X59952380Y-94028571D01*
X59952380Y-93933333D01*
X60000000Y-93790476D01*
X60047619Y-93742857D01*
X60047619Y-93361904D02*
X60000000Y-93314285D01*
X59952380Y-93219047D01*
X59952380Y-92980952D01*
X60000000Y-92885714D01*
X60047619Y-92838095D01*
X60142857Y-92790476D01*
X60238095Y-92790476D01*
X60380952Y-92838095D01*
X60952380Y-93409523D01*
X60952380Y-92790476D01*
X59952380Y-92457142D02*
X59952380Y-91838095D01*
X60333333Y-92171428D01*
X60333333Y-92028571D01*
X60380952Y-91933333D01*
X60428571Y-91885714D01*
X60523809Y-91838095D01*
X60761904Y-91838095D01*
X60857142Y-91885714D01*
X60904761Y-91933333D01*
X60952380Y-92028571D01*
X60952380Y-92314285D01*
X60904761Y-92409523D01*
X60857142Y-92457142D01*
X60907142Y-108857142D02*
X60859523Y-108904761D01*
X60716666Y-108952380D01*
X60621428Y-108952380D01*
X60478571Y-108904761D01*
X60383333Y-108809523D01*
X60335714Y-108714285D01*
X60288095Y-108523809D01*
X60288095Y-108380952D01*
X60335714Y-108190476D01*
X60383333Y-108095238D01*
X60478571Y-108000000D01*
X60621428Y-107952380D01*
X60716666Y-107952380D01*
X60859523Y-108000000D01*
X60907142Y-108047619D01*
X61288095Y-108047619D02*
X61335714Y-108000000D01*
X61430952Y-107952380D01*
X61669047Y-107952380D01*
X61764285Y-108000000D01*
X61811904Y-108047619D01*
X61859523Y-108142857D01*
X61859523Y-108238095D01*
X61811904Y-108380952D01*
X61240476Y-108952380D01*
X61859523Y-108952380D01*
X62716666Y-108285714D02*
X62716666Y-108952380D01*
X62478571Y-107904761D02*
X62240476Y-108619047D01*
X62859523Y-108619047D01*
X68157142Y-109857142D02*
X68109523Y-109904761D01*
X67966666Y-109952380D01*
X67871428Y-109952380D01*
X67728571Y-109904761D01*
X67633333Y-109809523D01*
X67585714Y-109714285D01*
X67538095Y-109523809D01*
X67538095Y-109380952D01*
X67585714Y-109190476D01*
X67633333Y-109095238D01*
X67728571Y-109000000D01*
X67871428Y-108952380D01*
X67966666Y-108952380D01*
X68109523Y-109000000D01*
X68157142Y-109047619D01*
X68538095Y-109047619D02*
X68585714Y-109000000D01*
X68680952Y-108952380D01*
X68919047Y-108952380D01*
X69014285Y-109000000D01*
X69061904Y-109047619D01*
X69109523Y-109142857D01*
X69109523Y-109238095D01*
X69061904Y-109380952D01*
X68490476Y-109952380D01*
X69109523Y-109952380D01*
X70014285Y-108952380D02*
X69538095Y-108952380D01*
X69490476Y-109428571D01*
X69538095Y-109380952D01*
X69633333Y-109333333D01*
X69871428Y-109333333D01*
X69966666Y-109380952D01*
X70014285Y-109428571D01*
X70061904Y-109523809D01*
X70061904Y-109761904D01*
X70014285Y-109857142D01*
X69966666Y-109904761D01*
X69871428Y-109952380D01*
X69633333Y-109952380D01*
X69538095Y-109904761D01*
X69490476Y-109857142D01*
X97007142Y-111157142D02*
X96959523Y-111204761D01*
X96816666Y-111252380D01*
X96721428Y-111252380D01*
X96578571Y-111204761D01*
X96483333Y-111109523D01*
X96435714Y-111014285D01*
X96388095Y-110823809D01*
X96388095Y-110680952D01*
X96435714Y-110490476D01*
X96483333Y-110395238D01*
X96578571Y-110300000D01*
X96721428Y-110252380D01*
X96816666Y-110252380D01*
X96959523Y-110300000D01*
X97007142Y-110347619D01*
X97388095Y-110347619D02*
X97435714Y-110300000D01*
X97530952Y-110252380D01*
X97769047Y-110252380D01*
X97864285Y-110300000D01*
X97911904Y-110347619D01*
X97959523Y-110442857D01*
X97959523Y-110538095D01*
X97911904Y-110680952D01*
X97340476Y-111252380D01*
X97959523Y-111252380D01*
X98816666Y-110252380D02*
X98626190Y-110252380D01*
X98530952Y-110300000D01*
X98483333Y-110347619D01*
X98388095Y-110490476D01*
X98340476Y-110680952D01*
X98340476Y-111061904D01*
X98388095Y-111157142D01*
X98435714Y-111204761D01*
X98530952Y-111252380D01*
X98721428Y-111252380D01*
X98816666Y-111204761D01*
X98864285Y-111157142D01*
X98911904Y-111061904D01*
X98911904Y-110823809D01*
X98864285Y-110728571D01*
X98816666Y-110680952D01*
X98721428Y-110633333D01*
X98530952Y-110633333D01*
X98435714Y-110680952D01*
X98388095Y-110728571D01*
X98340476Y-110823809D01*
X74607142Y-102057142D02*
X74559523Y-102104761D01*
X74416666Y-102152380D01*
X74321428Y-102152380D01*
X74178571Y-102104761D01*
X74083333Y-102009523D01*
X74035714Y-101914285D01*
X73988095Y-101723809D01*
X73988095Y-101580952D01*
X74035714Y-101390476D01*
X74083333Y-101295238D01*
X74178571Y-101200000D01*
X74321428Y-101152380D01*
X74416666Y-101152380D01*
X74559523Y-101200000D01*
X74607142Y-101247619D01*
X74988095Y-101247619D02*
X75035714Y-101200000D01*
X75130952Y-101152380D01*
X75369047Y-101152380D01*
X75464285Y-101200000D01*
X75511904Y-101247619D01*
X75559523Y-101342857D01*
X75559523Y-101438095D01*
X75511904Y-101580952D01*
X74940476Y-102152380D01*
X75559523Y-102152380D01*
X75892857Y-101152380D02*
X76559523Y-101152380D01*
X76130952Y-102152380D01*
X72357142Y-104357142D02*
X72309523Y-104404761D01*
X72166666Y-104452380D01*
X72071428Y-104452380D01*
X71928571Y-104404761D01*
X71833333Y-104309523D01*
X71785714Y-104214285D01*
X71738095Y-104023809D01*
X71738095Y-103880952D01*
X71785714Y-103690476D01*
X71833333Y-103595238D01*
X71928571Y-103500000D01*
X72071428Y-103452380D01*
X72166666Y-103452380D01*
X72309523Y-103500000D01*
X72357142Y-103547619D01*
X72738095Y-103547619D02*
X72785714Y-103500000D01*
X72880952Y-103452380D01*
X73119047Y-103452380D01*
X73214285Y-103500000D01*
X73261904Y-103547619D01*
X73309523Y-103642857D01*
X73309523Y-103738095D01*
X73261904Y-103880952D01*
X72690476Y-104452380D01*
X73309523Y-104452380D01*
X73880952Y-103880952D02*
X73785714Y-103833333D01*
X73738095Y-103785714D01*
X73690476Y-103690476D01*
X73690476Y-103642857D01*
X73738095Y-103547619D01*
X73785714Y-103500000D01*
X73880952Y-103452380D01*
X74071428Y-103452380D01*
X74166666Y-103500000D01*
X74214285Y-103547619D01*
X74261904Y-103642857D01*
X74261904Y-103690476D01*
X74214285Y-103785714D01*
X74166666Y-103833333D01*
X74071428Y-103880952D01*
X73880952Y-103880952D01*
X73785714Y-103928571D01*
X73738095Y-103976190D01*
X73690476Y-104071428D01*
X73690476Y-104261904D01*
X73738095Y-104357142D01*
X73785714Y-104404761D01*
X73880952Y-104452380D01*
X74071428Y-104452380D01*
X74166666Y-104404761D01*
X74214285Y-104357142D01*
X74261904Y-104261904D01*
X74261904Y-104071428D01*
X74214285Y-103976190D01*
X74166666Y-103928571D01*
X74071428Y-103880952D01*
X124659906Y-97192380D02*
X124659906Y-96192380D01*
X124898002Y-96192380D01*
X125040859Y-96240000D01*
X125136097Y-96335238D01*
X125183716Y-96430476D01*
X125231335Y-96620952D01*
X125231335Y-96763809D01*
X125183716Y-96954285D01*
X125136097Y-97049523D01*
X125040859Y-97144761D01*
X124898002Y-97192380D01*
X124659906Y-97192380D01*
X126183716Y-97192380D02*
X125612287Y-97192380D01*
X125898002Y-97192380D02*
X125898002Y-96192380D01*
X125802763Y-96335238D01*
X125707525Y-96430476D01*
X125612287Y-96478095D01*
X124659905Y-106492381D02*
X124659905Y-105492381D01*
X124898001Y-105492381D01*
X125040858Y-105540001D01*
X125136096Y-105635239D01*
X125183715Y-105730477D01*
X125231334Y-105920953D01*
X125231334Y-106063810D01*
X125183715Y-106254286D01*
X125136096Y-106349524D01*
X125040858Y-106444762D01*
X124898001Y-106492381D01*
X124659905Y-106492381D01*
X125612286Y-105587620D02*
X125659905Y-105540001D01*
X125755143Y-105492381D01*
X125993239Y-105492381D01*
X126088477Y-105540001D01*
X126136096Y-105587620D01*
X126183715Y-105682858D01*
X126183715Y-105778096D01*
X126136096Y-105920953D01*
X125564667Y-106492381D01*
X126183715Y-106492381D01*
X124759904Y-93692380D02*
X124759904Y-92692380D01*
X124998000Y-92692380D01*
X125140857Y-92740000D01*
X125236095Y-92835238D01*
X125283714Y-92930476D01*
X125331333Y-93120952D01*
X125331333Y-93263809D01*
X125283714Y-93454285D01*
X125236095Y-93549523D01*
X125140857Y-93644761D01*
X124998000Y-93692380D01*
X124759904Y-93692380D01*
X125664666Y-92692380D02*
X126283714Y-92692380D01*
X125950380Y-93073333D01*
X126093238Y-93073333D01*
X126188476Y-93120952D01*
X126236095Y-93168571D01*
X126283714Y-93263809D01*
X126283714Y-93501904D01*
X126236095Y-93597142D01*
X126188476Y-93644761D01*
X126093238Y-93692380D01*
X125807523Y-93692380D01*
X125712285Y-93644761D01*
X125664666Y-93597142D01*
X124659904Y-103492380D02*
X124659904Y-102492380D01*
X124898000Y-102492380D01*
X125040857Y-102540000D01*
X125136095Y-102635238D01*
X125183714Y-102730476D01*
X125231333Y-102920952D01*
X125231333Y-103063809D01*
X125183714Y-103254285D01*
X125136095Y-103349523D01*
X125040857Y-103444761D01*
X124898000Y-103492380D01*
X124659904Y-103492380D01*
X126088476Y-102825714D02*
X126088476Y-103492380D01*
X125850380Y-102444761D02*
X125612285Y-103159047D01*
X126231333Y-103159047D01*
X124759904Y-90692379D02*
X124759904Y-89692379D01*
X124998000Y-89692379D01*
X125140857Y-89739999D01*
X125236095Y-89835237D01*
X125283714Y-89930475D01*
X125331333Y-90120951D01*
X125331333Y-90263808D01*
X125283714Y-90454284D01*
X125236095Y-90549522D01*
X125140857Y-90644760D01*
X124998000Y-90692379D01*
X124759904Y-90692379D01*
X126236095Y-89692379D02*
X125759904Y-89692379D01*
X125712285Y-90168570D01*
X125759904Y-90120951D01*
X125855142Y-90073332D01*
X126093238Y-90073332D01*
X126188476Y-90120951D01*
X126236095Y-90168570D01*
X126283714Y-90263808D01*
X126283714Y-90501903D01*
X126236095Y-90597141D01*
X126188476Y-90644760D01*
X126093238Y-90692379D01*
X125855142Y-90692379D01*
X125759904Y-90644760D01*
X125712285Y-90597141D01*
X124559904Y-100292380D02*
X124559904Y-99292380D01*
X124798000Y-99292380D01*
X124940857Y-99340000D01*
X125036095Y-99435238D01*
X125083714Y-99530476D01*
X125131333Y-99720952D01*
X125131333Y-99863809D01*
X125083714Y-100054285D01*
X125036095Y-100149523D01*
X124940857Y-100244761D01*
X124798000Y-100292380D01*
X124559904Y-100292380D01*
X125988476Y-99292380D02*
X125798000Y-99292380D01*
X125702761Y-99340000D01*
X125655142Y-99387619D01*
X125559904Y-99530476D01*
X125512285Y-99720952D01*
X125512285Y-100101904D01*
X125559904Y-100197142D01*
X125607523Y-100244761D01*
X125702761Y-100292380D01*
X125893238Y-100292380D01*
X125988476Y-100244761D01*
X126036095Y-100197142D01*
X126083714Y-100101904D01*
X126083714Y-99863809D01*
X126036095Y-99768571D01*
X125988476Y-99720952D01*
X125893238Y-99673333D01*
X125702761Y-99673333D01*
X125607523Y-99720952D01*
X125559904Y-99768571D01*
X125512285Y-99863809D01*
X70576904Y-123057380D02*
X70576904Y-122057380D01*
X70815000Y-122057380D01*
X70957857Y-122105000D01*
X71053095Y-122200238D01*
X71100714Y-122295476D01*
X71148333Y-122485952D01*
X71148333Y-122628809D01*
X71100714Y-122819285D01*
X71053095Y-122914523D01*
X70957857Y-123009761D01*
X70815000Y-123057380D01*
X70576904Y-123057380D01*
X71481666Y-122057380D02*
X72148333Y-122057380D01*
X71719761Y-123057380D01*
X56482380Y-74933333D02*
X57196666Y-74933333D01*
X57339523Y-74980952D01*
X57434761Y-75076190D01*
X57482380Y-75219047D01*
X57482380Y-75314285D01*
X57482380Y-73933333D02*
X57482380Y-74504761D01*
X57482380Y-74219047D02*
X56482380Y-74219047D01*
X56625238Y-74314285D01*
X56720476Y-74409523D01*
X56768095Y-74504761D01*
X135226666Y-89502380D02*
X135226666Y-90216666D01*
X135179047Y-90359523D01*
X135083809Y-90454761D01*
X134940952Y-90502380D01*
X134845714Y-90502380D01*
X135655238Y-89597619D02*
X135702857Y-89550000D01*
X135798095Y-89502380D01*
X136036190Y-89502380D01*
X136131428Y-89550000D01*
X136179047Y-89597619D01*
X136226666Y-89692857D01*
X136226666Y-89788095D01*
X136179047Y-89930952D01*
X135607619Y-90502380D01*
X136226666Y-90502380D01*
X104742380Y-124463333D02*
X105456666Y-124463333D01*
X105599523Y-124510952D01*
X105694761Y-124606190D01*
X105742380Y-124749047D01*
X105742380Y-124844285D01*
X104742380Y-124082380D02*
X104742380Y-123463333D01*
X105123333Y-123796666D01*
X105123333Y-123653809D01*
X105170952Y-123558571D01*
X105218571Y-123510952D01*
X105313809Y-123463333D01*
X105551904Y-123463333D01*
X105647142Y-123510952D01*
X105694761Y-123558571D01*
X105742380Y-123653809D01*
X105742380Y-123939523D01*
X105694761Y-124034761D01*
X105647142Y-124082380D01*
X104742380Y-76203333D02*
X105456666Y-76203333D01*
X105599523Y-76250952D01*
X105694761Y-76346190D01*
X105742380Y-76489047D01*
X105742380Y-76584285D01*
X105075714Y-75298571D02*
X105742380Y-75298571D01*
X104694761Y-75536666D02*
X105409047Y-75774761D01*
X105409047Y-75155714D01*
X52502380Y-122809523D02*
X51502380Y-122809523D01*
X51502380Y-122428571D01*
X51550000Y-122333333D01*
X51597619Y-122285714D01*
X51692857Y-122238095D01*
X51835714Y-122238095D01*
X51930952Y-122285714D01*
X51978571Y-122333333D01*
X52026190Y-122428571D01*
X52026190Y-122809523D01*
X51502380Y-121619047D02*
X51502380Y-121428571D01*
X51550000Y-121333333D01*
X51645238Y-121238095D01*
X51835714Y-121190476D01*
X52169047Y-121190476D01*
X52359523Y-121238095D01*
X52454761Y-121333333D01*
X52502380Y-121428571D01*
X52502380Y-121619047D01*
X52454761Y-121714285D01*
X52359523Y-121809523D01*
X52169047Y-121857142D01*
X51835714Y-121857142D01*
X51645238Y-121809523D01*
X51550000Y-121714285D01*
X51502380Y-121619047D01*
X51502380Y-120857142D02*
X52502380Y-120619047D01*
X51788095Y-120428571D01*
X52502380Y-120238095D01*
X51502380Y-120000000D01*
X51978571Y-119619047D02*
X51978571Y-119285714D01*
X52502380Y-119142857D02*
X52502380Y-119619047D01*
X51502380Y-119619047D01*
X51502380Y-119142857D01*
X52502380Y-118142857D02*
X52026190Y-118476190D01*
X52502380Y-118714285D02*
X51502380Y-118714285D01*
X51502380Y-118333333D01*
X51550000Y-118238095D01*
X51597619Y-118190476D01*
X51692857Y-118142857D01*
X51835714Y-118142857D01*
X51930952Y-118190476D01*
X51978571Y-118238095D01*
X52026190Y-118333333D01*
X52026190Y-118714285D01*
X58482133Y-106700780D02*
X58005942Y-106700780D01*
X58005942Y-105700780D01*
X59339276Y-106700780D02*
X58767847Y-106700780D01*
X59053561Y-106700780D02*
X59053561Y-105700780D01*
X58958323Y-105843638D01*
X58863085Y-105938876D01*
X58767847Y-105986495D01*
X72202380Y-125816666D02*
X72202380Y-126292857D01*
X71202380Y-126292857D01*
X71297619Y-125530952D02*
X71250000Y-125483333D01*
X71202380Y-125388095D01*
X71202380Y-125150000D01*
X71250000Y-125054761D01*
X71297619Y-125007142D01*
X71392857Y-124959523D01*
X71488095Y-124959523D01*
X71630952Y-125007142D01*
X72202380Y-125578571D01*
X72202380Y-124959523D01*
D13*
X129116666Y-97911904D02*
X128735714Y-97911904D01*
X128735714Y-97111904D01*
X129383333Y-97911904D02*
X129383333Y-97111904D01*
X129573809Y-97111904D01*
X129688095Y-97150000D01*
X129764285Y-97226190D01*
X129802380Y-97302380D01*
X129840476Y-97454761D01*
X129840476Y-97569047D01*
X129802380Y-97721428D01*
X129764285Y-97797619D01*
X129688095Y-97873809D01*
X129573809Y-97911904D01*
X129383333Y-97911904D01*
X130602380Y-97911904D02*
X130145238Y-97911904D01*
X130373809Y-97911904D02*
X130373809Y-97111904D01*
X130297619Y-97226190D01*
X130221428Y-97302380D01*
X130145238Y-97340476D01*
X129266666Y-107361904D02*
X128885714Y-107361904D01*
X128885714Y-106561904D01*
X129533333Y-107361904D02*
X129533333Y-106561904D01*
X129723809Y-106561904D01*
X129838095Y-106600000D01*
X129914285Y-106676190D01*
X129952380Y-106752380D01*
X129990476Y-106904761D01*
X129990476Y-107019047D01*
X129952380Y-107171428D01*
X129914285Y-107247619D01*
X129838095Y-107323809D01*
X129723809Y-107361904D01*
X129533333Y-107361904D01*
X130295238Y-106638095D02*
X130333333Y-106600000D01*
X130409523Y-106561904D01*
X130600000Y-106561904D01*
X130676190Y-106600000D01*
X130714285Y-106638095D01*
X130752380Y-106714285D01*
X130752380Y-106790476D01*
X130714285Y-106904761D01*
X130257142Y-107361904D01*
X130752380Y-107361904D01*
D12*
X75262380Y-75338095D02*
X74262380Y-75338095D01*
X74262380Y-74957142D01*
X74310000Y-74861904D01*
X74357619Y-74814285D01*
X74452857Y-74766666D01*
X74595714Y-74766666D01*
X74690952Y-74814285D01*
X74738571Y-74861904D01*
X74786190Y-74957142D01*
X74786190Y-75338095D01*
X75262380Y-73814285D02*
X75262380Y-74385714D01*
X75262380Y-74100000D02*
X74262380Y-74100000D01*
X74405238Y-74195238D01*
X74500476Y-74290476D01*
X74548095Y-74385714D01*
D17*
X94875142Y-129589108D02*
X94875142Y-128065108D01*
X95455714Y-128065108D01*
X95600857Y-128137680D01*
X95673428Y-128210251D01*
X95746000Y-128355394D01*
X95746000Y-128573108D01*
X95673428Y-128718251D01*
X95600857Y-128790822D01*
X95455714Y-128863394D01*
X94875142Y-128863394D01*
X97052285Y-128573108D02*
X97052285Y-129589108D01*
X96689428Y-127992537D02*
X96326571Y-129081108D01*
X97270000Y-129081108D01*
D12*
X60433333Y-76652380D02*
X60100000Y-76176190D01*
X59861904Y-76652380D02*
X59861904Y-75652380D01*
X60242857Y-75652380D01*
X60338095Y-75700000D01*
X60385714Y-75747619D01*
X60433333Y-75842857D01*
X60433333Y-75985714D01*
X60385714Y-76080952D01*
X60338095Y-76128571D01*
X60242857Y-76176190D01*
X59861904Y-76176190D01*
X61385714Y-76652380D02*
X60814285Y-76652380D01*
X61100000Y-76652380D02*
X61100000Y-75652380D01*
X61004761Y-75795238D01*
X60909523Y-75890476D01*
X60814285Y-75938095D01*
X102983333Y-108502380D02*
X102650000Y-108026190D01*
X102411904Y-108502380D02*
X102411904Y-107502380D01*
X102792857Y-107502380D01*
X102888095Y-107550000D01*
X102935714Y-107597619D01*
X102983333Y-107692857D01*
X102983333Y-107835714D01*
X102935714Y-107930952D01*
X102888095Y-107978571D01*
X102792857Y-108026190D01*
X102411904Y-108026190D01*
X103364285Y-107597619D02*
X103411904Y-107550000D01*
X103507142Y-107502380D01*
X103745238Y-107502380D01*
X103840476Y-107550000D01*
X103888095Y-107597619D01*
X103935714Y-107692857D01*
X103935714Y-107788095D01*
X103888095Y-107930952D01*
X103316666Y-108502380D01*
X103935714Y-108502380D01*
X100983333Y-94752380D02*
X100650000Y-94276190D01*
X100411904Y-94752380D02*
X100411904Y-93752380D01*
X100792857Y-93752380D01*
X100888095Y-93800000D01*
X100935714Y-93847619D01*
X100983333Y-93942857D01*
X100983333Y-94085714D01*
X100935714Y-94180952D01*
X100888095Y-94228571D01*
X100792857Y-94276190D01*
X100411904Y-94276190D01*
X101316666Y-93752380D02*
X101935714Y-93752380D01*
X101602380Y-94133333D01*
X101745238Y-94133333D01*
X101840476Y-94180952D01*
X101888095Y-94228571D01*
X101935714Y-94323809D01*
X101935714Y-94561904D01*
X101888095Y-94657142D01*
X101840476Y-94704761D01*
X101745238Y-94752380D01*
X101459523Y-94752380D01*
X101364285Y-94704761D01*
X101316666Y-94657142D01*
X101733333Y-89402380D02*
X101400000Y-88926190D01*
X101161904Y-89402380D02*
X101161904Y-88402380D01*
X101542857Y-88402380D01*
X101638095Y-88450000D01*
X101685714Y-88497619D01*
X101733333Y-88592857D01*
X101733333Y-88735714D01*
X101685714Y-88830952D01*
X101638095Y-88878571D01*
X101542857Y-88926190D01*
X101161904Y-88926190D01*
X102590476Y-88735714D02*
X102590476Y-89402380D01*
X102352380Y-88354761D02*
X102114285Y-89069047D01*
X102733333Y-89069047D01*
X118452380Y-106766666D02*
X117976190Y-107100000D01*
X118452380Y-107338095D02*
X117452380Y-107338095D01*
X117452380Y-106957142D01*
X117500000Y-106861904D01*
X117547619Y-106814285D01*
X117642857Y-106766666D01*
X117785714Y-106766666D01*
X117880952Y-106814285D01*
X117928571Y-106861904D01*
X117976190Y-106957142D01*
X117976190Y-107338095D01*
X117452380Y-105861904D02*
X117452380Y-106338095D01*
X117928571Y-106385714D01*
X117880952Y-106338095D01*
X117833333Y-106242857D01*
X117833333Y-106004761D01*
X117880952Y-105909523D01*
X117928571Y-105861904D01*
X118023809Y-105814285D01*
X118261904Y-105814285D01*
X118357142Y-105861904D01*
X118404761Y-105909523D01*
X118452380Y-106004761D01*
X118452380Y-106242857D01*
X118404761Y-106338095D01*
X118357142Y-106385714D01*
X73552380Y-95616666D02*
X73076190Y-95950000D01*
X73552380Y-96188095D02*
X72552380Y-96188095D01*
X72552380Y-95807142D01*
X72600000Y-95711904D01*
X72647619Y-95664285D01*
X72742857Y-95616666D01*
X72885714Y-95616666D01*
X72980952Y-95664285D01*
X73028571Y-95711904D01*
X73076190Y-95807142D01*
X73076190Y-96188095D01*
X72552380Y-94759523D02*
X72552380Y-94950000D01*
X72600000Y-95045238D01*
X72647619Y-95092857D01*
X72790476Y-95188095D01*
X72980952Y-95235714D01*
X73361904Y-95235714D01*
X73457142Y-95188095D01*
X73504761Y-95140476D01*
X73552380Y-95045238D01*
X73552380Y-94854761D01*
X73504761Y-94759523D01*
X73457142Y-94711904D01*
X73361904Y-94664285D01*
X73123809Y-94664285D01*
X73028571Y-94711904D01*
X72980952Y-94759523D01*
X72933333Y-94854761D01*
X72933333Y-95045238D01*
X72980952Y-95140476D01*
X73028571Y-95188095D01*
X73123809Y-95235714D01*
X71452380Y-95666666D02*
X70976190Y-96000000D01*
X71452380Y-96238095D02*
X70452380Y-96238095D01*
X70452380Y-95857142D01*
X70500000Y-95761904D01*
X70547619Y-95714285D01*
X70642857Y-95666666D01*
X70785714Y-95666666D01*
X70880952Y-95714285D01*
X70928571Y-95761904D01*
X70976190Y-95857142D01*
X70976190Y-96238095D01*
X70452380Y-95333333D02*
X70452380Y-94666666D01*
X71452380Y-95095238D01*
X69402380Y-95666666D02*
X68926190Y-96000000D01*
X69402380Y-96238095D02*
X68402380Y-96238095D01*
X68402380Y-95857142D01*
X68450000Y-95761904D01*
X68497619Y-95714285D01*
X68592857Y-95666666D01*
X68735714Y-95666666D01*
X68830952Y-95714285D01*
X68878571Y-95761904D01*
X68926190Y-95857142D01*
X68926190Y-96238095D01*
X68830952Y-95095238D02*
X68783333Y-95190476D01*
X68735714Y-95238095D01*
X68640476Y-95285714D01*
X68592857Y-95285714D01*
X68497619Y-95238095D01*
X68450000Y-95190476D01*
X68402380Y-95095238D01*
X68402380Y-94904761D01*
X68450000Y-94809523D01*
X68497619Y-94761904D01*
X68592857Y-94714285D01*
X68640476Y-94714285D01*
X68735714Y-94761904D01*
X68783333Y-94809523D01*
X68830952Y-94904761D01*
X68830952Y-95095238D01*
X68878571Y-95190476D01*
X68926190Y-95238095D01*
X69021428Y-95285714D01*
X69211904Y-95285714D01*
X69307142Y-95238095D01*
X69354761Y-95190476D01*
X69402380Y-95095238D01*
X69402380Y-94904761D01*
X69354761Y-94809523D01*
X69307142Y-94761904D01*
X69211904Y-94714285D01*
X69021428Y-94714285D01*
X68926190Y-94761904D01*
X68878571Y-94809523D01*
X68830952Y-94904761D01*
X66202380Y-93166666D02*
X65726190Y-93500000D01*
X66202380Y-93738095D02*
X65202380Y-93738095D01*
X65202380Y-93357142D01*
X65250000Y-93261904D01*
X65297619Y-93214285D01*
X65392857Y-93166666D01*
X65535714Y-93166666D01*
X65630952Y-93214285D01*
X65678571Y-93261904D01*
X65726190Y-93357142D01*
X65726190Y-93738095D01*
X66202380Y-92690476D02*
X66202380Y-92500000D01*
X66154761Y-92404761D01*
X66107142Y-92357142D01*
X65964285Y-92261904D01*
X65773809Y-92214285D01*
X65392857Y-92214285D01*
X65297619Y-92261904D01*
X65250000Y-92309523D01*
X65202380Y-92404761D01*
X65202380Y-92595238D01*
X65250000Y-92690476D01*
X65297619Y-92738095D01*
X65392857Y-92785714D01*
X65630952Y-92785714D01*
X65726190Y-92738095D01*
X65773809Y-92690476D01*
X65821428Y-92595238D01*
X65821428Y-92404761D01*
X65773809Y-92309523D01*
X65726190Y-92261904D01*
X65630952Y-92214285D01*
X83207142Y-123252380D02*
X82873809Y-122776190D01*
X82635714Y-123252380D02*
X82635714Y-122252380D01*
X83016666Y-122252380D01*
X83111904Y-122300000D01*
X83159523Y-122347619D01*
X83207142Y-122442857D01*
X83207142Y-122585714D01*
X83159523Y-122680952D01*
X83111904Y-122728571D01*
X83016666Y-122776190D01*
X82635714Y-122776190D01*
X84159523Y-123252380D02*
X83588095Y-123252380D01*
X83873809Y-123252380D02*
X83873809Y-122252380D01*
X83778571Y-122395238D01*
X83683333Y-122490476D01*
X83588095Y-122538095D01*
X84778571Y-122252380D02*
X84873809Y-122252380D01*
X84969047Y-122300000D01*
X85016666Y-122347619D01*
X85064285Y-122442857D01*
X85111904Y-122633333D01*
X85111904Y-122871428D01*
X85064285Y-123061904D01*
X85016666Y-123157142D01*
X84969047Y-123204761D01*
X84873809Y-123252380D01*
X84778571Y-123252380D01*
X84683333Y-123204761D01*
X84635714Y-123157142D01*
X84588095Y-123061904D01*
X84540476Y-122871428D01*
X84540476Y-122633333D01*
X84588095Y-122442857D01*
X84635714Y-122347619D01*
X84683333Y-122300000D01*
X84778571Y-122252380D01*
X129252380Y-84492857D02*
X128776190Y-84826190D01*
X129252380Y-85064285D02*
X128252380Y-85064285D01*
X128252380Y-84683333D01*
X128300000Y-84588095D01*
X128347619Y-84540476D01*
X128442857Y-84492857D01*
X128585714Y-84492857D01*
X128680952Y-84540476D01*
X128728571Y-84588095D01*
X128776190Y-84683333D01*
X128776190Y-85064285D01*
X129252380Y-83540476D02*
X129252380Y-84111904D01*
X129252380Y-83826190D02*
X128252380Y-83826190D01*
X128395238Y-83921428D01*
X128490476Y-84016666D01*
X128538095Y-84111904D01*
X129252380Y-82588095D02*
X129252380Y-83159523D01*
X129252380Y-82873809D02*
X128252380Y-82873809D01*
X128395238Y-82969047D01*
X128490476Y-83064285D01*
X128538095Y-83159523D01*
X83302380Y-110742857D02*
X82826190Y-111076190D01*
X83302380Y-111314285D02*
X82302380Y-111314285D01*
X82302380Y-110933333D01*
X82350000Y-110838095D01*
X82397619Y-110790476D01*
X82492857Y-110742857D01*
X82635714Y-110742857D01*
X82730952Y-110790476D01*
X82778571Y-110838095D01*
X82826190Y-110933333D01*
X82826190Y-111314285D01*
X83302380Y-109790476D02*
X83302380Y-110361904D01*
X83302380Y-110076190D02*
X82302380Y-110076190D01*
X82445238Y-110171428D01*
X82540476Y-110266666D01*
X82588095Y-110361904D01*
X82397619Y-109409523D02*
X82350000Y-109361904D01*
X82302380Y-109266666D01*
X82302380Y-109028571D01*
X82350000Y-108933333D01*
X82397619Y-108885714D01*
X82492857Y-108838095D01*
X82588095Y-108838095D01*
X82730952Y-108885714D01*
X83302380Y-109457142D01*
X83302380Y-108838095D01*
X63152380Y-106042857D02*
X62676190Y-106376190D01*
X63152380Y-106614285D02*
X62152380Y-106614285D01*
X62152380Y-106233333D01*
X62200000Y-106138095D01*
X62247619Y-106090476D01*
X62342857Y-106042857D01*
X62485714Y-106042857D01*
X62580952Y-106090476D01*
X62628571Y-106138095D01*
X62676190Y-106233333D01*
X62676190Y-106614285D01*
X63152380Y-105090476D02*
X63152380Y-105661904D01*
X63152380Y-105376190D02*
X62152380Y-105376190D01*
X62295238Y-105471428D01*
X62390476Y-105566666D01*
X62438095Y-105661904D01*
X62152380Y-104757142D02*
X62152380Y-104138095D01*
X62533333Y-104471428D01*
X62533333Y-104328571D01*
X62580952Y-104233333D01*
X62628571Y-104185714D01*
X62723809Y-104138095D01*
X62961904Y-104138095D01*
X63057142Y-104185714D01*
X63104761Y-104233333D01*
X63152380Y-104328571D01*
X63152380Y-104614285D01*
X63104761Y-104709523D01*
X63057142Y-104757142D01*
X99457142Y-92952380D02*
X99123809Y-92476190D01*
X98885714Y-92952380D02*
X98885714Y-91952380D01*
X99266666Y-91952380D01*
X99361904Y-92000000D01*
X99409523Y-92047619D01*
X99457142Y-92142857D01*
X99457142Y-92285714D01*
X99409523Y-92380952D01*
X99361904Y-92428571D01*
X99266666Y-92476190D01*
X98885714Y-92476190D01*
X100409523Y-92952380D02*
X99838095Y-92952380D01*
X100123809Y-92952380D02*
X100123809Y-91952380D01*
X100028571Y-92095238D01*
X99933333Y-92190476D01*
X99838095Y-92238095D01*
X101266666Y-92285714D02*
X101266666Y-92952380D01*
X101028571Y-91904761D02*
X100790476Y-92619047D01*
X101409523Y-92619047D01*
X119755142Y-97242380D02*
X119421809Y-96766190D01*
X119183714Y-97242380D02*
X119183714Y-96242380D01*
X119564666Y-96242380D01*
X119659904Y-96290000D01*
X119707523Y-96337619D01*
X119755142Y-96432857D01*
X119755142Y-96575714D01*
X119707523Y-96670952D01*
X119659904Y-96718571D01*
X119564666Y-96766190D01*
X119183714Y-96766190D01*
X120707523Y-97242380D02*
X120136095Y-97242380D01*
X120421809Y-97242380D02*
X120421809Y-96242380D01*
X120326571Y-96385238D01*
X120231333Y-96480476D01*
X120136095Y-96528095D01*
X121612285Y-96242380D02*
X121136095Y-96242380D01*
X121088476Y-96718571D01*
X121136095Y-96670952D01*
X121231333Y-96623333D01*
X121469428Y-96623333D01*
X121564666Y-96670952D01*
X121612285Y-96718571D01*
X121659904Y-96813809D01*
X121659904Y-97051904D01*
X121612285Y-97147142D01*
X121564666Y-97194761D01*
X121469428Y-97242380D01*
X121231333Y-97242380D01*
X121136095Y-97194761D01*
X121088476Y-97147142D01*
X119855142Y-106942380D02*
X119521809Y-106466190D01*
X119283714Y-106942380D02*
X119283714Y-105942380D01*
X119664666Y-105942380D01*
X119759904Y-105990000D01*
X119807523Y-106037619D01*
X119855142Y-106132857D01*
X119855142Y-106275714D01*
X119807523Y-106370952D01*
X119759904Y-106418571D01*
X119664666Y-106466190D01*
X119283714Y-106466190D01*
X120807523Y-106942380D02*
X120236095Y-106942380D01*
X120521809Y-106942380D02*
X120521809Y-105942380D01*
X120426571Y-106085238D01*
X120331333Y-106180476D01*
X120236095Y-106228095D01*
X121664666Y-105942380D02*
X121474190Y-105942380D01*
X121378952Y-105990000D01*
X121331333Y-106037619D01*
X121236095Y-106180476D01*
X121188476Y-106370952D01*
X121188476Y-106751904D01*
X121236095Y-106847142D01*
X121283714Y-106894761D01*
X121378952Y-106942380D01*
X121569428Y-106942380D01*
X121664666Y-106894761D01*
X121712285Y-106847142D01*
X121759904Y-106751904D01*
X121759904Y-106513809D01*
X121712285Y-106418571D01*
X121664666Y-106370952D01*
X121569428Y-106323333D01*
X121378952Y-106323333D01*
X121283714Y-106370952D01*
X121236095Y-106418571D01*
X121188476Y-106513809D01*
X119755142Y-93842380D02*
X119421809Y-93366190D01*
X119183714Y-93842380D02*
X119183714Y-92842380D01*
X119564666Y-92842380D01*
X119659904Y-92890000D01*
X119707523Y-92937619D01*
X119755142Y-93032857D01*
X119755142Y-93175714D01*
X119707523Y-93270952D01*
X119659904Y-93318571D01*
X119564666Y-93366190D01*
X119183714Y-93366190D01*
X120707523Y-93842380D02*
X120136095Y-93842380D01*
X120421809Y-93842380D02*
X120421809Y-92842380D01*
X120326571Y-92985238D01*
X120231333Y-93080476D01*
X120136095Y-93128095D01*
X121040857Y-92842380D02*
X121707523Y-92842380D01*
X121278952Y-93842380D01*
X119855142Y-103642380D02*
X119521809Y-103166190D01*
X119283714Y-103642380D02*
X119283714Y-102642380D01*
X119664666Y-102642380D01*
X119759904Y-102690000D01*
X119807523Y-102737619D01*
X119855142Y-102832857D01*
X119855142Y-102975714D01*
X119807523Y-103070952D01*
X119759904Y-103118571D01*
X119664666Y-103166190D01*
X119283714Y-103166190D01*
X120807523Y-103642380D02*
X120236095Y-103642380D01*
X120521809Y-103642380D02*
X120521809Y-102642380D01*
X120426571Y-102785238D01*
X120331333Y-102880476D01*
X120236095Y-102928095D01*
X121378952Y-103070952D02*
X121283714Y-103023333D01*
X121236095Y-102975714D01*
X121188476Y-102880476D01*
X121188476Y-102832857D01*
X121236095Y-102737619D01*
X121283714Y-102690000D01*
X121378952Y-102642380D01*
X121569428Y-102642380D01*
X121664666Y-102690000D01*
X121712285Y-102737619D01*
X121759904Y-102832857D01*
X121759904Y-102880476D01*
X121712285Y-102975714D01*
X121664666Y-103023333D01*
X121569428Y-103070952D01*
X121378952Y-103070952D01*
X121283714Y-103118571D01*
X121236095Y-103166190D01*
X121188476Y-103261428D01*
X121188476Y-103451904D01*
X121236095Y-103547142D01*
X121283714Y-103594761D01*
X121378952Y-103642380D01*
X121569428Y-103642380D01*
X121664666Y-103594761D01*
X121712285Y-103547142D01*
X121759904Y-103451904D01*
X121759904Y-103261428D01*
X121712285Y-103166190D01*
X121664666Y-103118571D01*
X121569428Y-103070952D01*
X119755141Y-90542380D02*
X119421808Y-90066190D01*
X119183713Y-90542380D02*
X119183713Y-89542380D01*
X119564665Y-89542380D01*
X119659903Y-89590000D01*
X119707522Y-89637619D01*
X119755141Y-89732857D01*
X119755141Y-89875714D01*
X119707522Y-89970952D01*
X119659903Y-90018571D01*
X119564665Y-90066190D01*
X119183713Y-90066190D01*
X120707522Y-90542380D02*
X120136094Y-90542380D01*
X120421808Y-90542380D02*
X120421808Y-89542380D01*
X120326570Y-89685238D01*
X120231332Y-89780476D01*
X120136094Y-89828095D01*
X121183713Y-90542380D02*
X121374189Y-90542380D01*
X121469427Y-90494761D01*
X121517046Y-90447142D01*
X121612284Y-90304285D01*
X121659903Y-90113809D01*
X121659903Y-89732857D01*
X121612284Y-89637619D01*
X121564665Y-89590000D01*
X121469427Y-89542380D01*
X121278951Y-89542380D01*
X121183713Y-89590000D01*
X121136094Y-89637619D01*
X121088475Y-89732857D01*
X121088475Y-89970952D01*
X121136094Y-90066190D01*
X121183713Y-90113809D01*
X121278951Y-90161428D01*
X121469427Y-90161428D01*
X121564665Y-90113809D01*
X121612284Y-90066190D01*
X121659903Y-89970952D01*
X119755142Y-100342380D02*
X119421809Y-99866190D01*
X119183714Y-100342380D02*
X119183714Y-99342380D01*
X119564666Y-99342380D01*
X119659904Y-99390000D01*
X119707523Y-99437619D01*
X119755142Y-99532857D01*
X119755142Y-99675714D01*
X119707523Y-99770952D01*
X119659904Y-99818571D01*
X119564666Y-99866190D01*
X119183714Y-99866190D01*
X120136095Y-99437619D02*
X120183714Y-99390000D01*
X120278952Y-99342380D01*
X120517047Y-99342380D01*
X120612285Y-99390000D01*
X120659904Y-99437619D01*
X120707523Y-99532857D01*
X120707523Y-99628095D01*
X120659904Y-99770952D01*
X120088476Y-100342380D01*
X120707523Y-100342380D01*
X121326571Y-99342380D02*
X121421809Y-99342380D01*
X121517047Y-99390000D01*
X121564666Y-99437619D01*
X121612285Y-99532857D01*
X121659904Y-99723333D01*
X121659904Y-99961428D01*
X121612285Y-100151904D01*
X121564666Y-100247142D01*
X121517047Y-100294761D01*
X121421809Y-100342380D01*
X121326571Y-100342380D01*
X121231333Y-100294761D01*
X121183714Y-100247142D01*
X121136095Y-100151904D01*
X121088476Y-99961428D01*
X121088476Y-99723333D01*
X121136095Y-99532857D01*
X121183714Y-99437619D01*
X121231333Y-99390000D01*
X121326571Y-99342380D01*
X70722142Y-117157380D02*
X70388809Y-116681190D01*
X70150714Y-117157380D02*
X70150714Y-116157380D01*
X70531666Y-116157380D01*
X70626904Y-116205000D01*
X70674523Y-116252619D01*
X70722142Y-116347857D01*
X70722142Y-116490714D01*
X70674523Y-116585952D01*
X70626904Y-116633571D01*
X70531666Y-116681190D01*
X70150714Y-116681190D01*
X71103095Y-116252619D02*
X71150714Y-116205000D01*
X71245952Y-116157380D01*
X71484047Y-116157380D01*
X71579285Y-116205000D01*
X71626904Y-116252619D01*
X71674523Y-116347857D01*
X71674523Y-116443095D01*
X71626904Y-116585952D01*
X71055476Y-117157380D01*
X71674523Y-117157380D01*
X72626904Y-117157380D02*
X72055476Y-117157380D01*
X72341190Y-117157380D02*
X72341190Y-116157380D01*
X72245952Y-116300238D01*
X72150714Y-116395476D01*
X72055476Y-116443095D01*
X72807142Y-109302380D02*
X72473809Y-108826190D01*
X72235714Y-109302380D02*
X72235714Y-108302380D01*
X72616666Y-108302380D01*
X72711904Y-108350000D01*
X72759523Y-108397619D01*
X72807142Y-108492857D01*
X72807142Y-108635714D01*
X72759523Y-108730952D01*
X72711904Y-108778571D01*
X72616666Y-108826190D01*
X72235714Y-108826190D01*
X73711904Y-108302380D02*
X73235714Y-108302380D01*
X73188095Y-108778571D01*
X73235714Y-108730952D01*
X73330952Y-108683333D01*
X73569047Y-108683333D01*
X73664285Y-108730952D01*
X73711904Y-108778571D01*
X73759523Y-108873809D01*
X73759523Y-109111904D01*
X73711904Y-109207142D01*
X73664285Y-109254761D01*
X73569047Y-109302380D01*
X73330952Y-109302380D01*
X73235714Y-109254761D01*
X73188095Y-109207142D01*
X74378571Y-108302380D02*
X74473809Y-108302380D01*
X74569047Y-108350000D01*
X74616666Y-108397619D01*
X74664285Y-108492857D01*
X74711904Y-108683333D01*
X74711904Y-108921428D01*
X74664285Y-109111904D01*
X74616666Y-109207142D01*
X74569047Y-109254761D01*
X74473809Y-109302380D01*
X74378571Y-109302380D01*
X74283333Y-109254761D01*
X74235714Y-109207142D01*
X74188095Y-109111904D01*
X74140476Y-108921428D01*
X74140476Y-108683333D01*
X74188095Y-108492857D01*
X74235714Y-108397619D01*
X74283333Y-108350000D01*
X74378571Y-108302380D01*
D10*
X76178571Y-124878571D02*
X76178571Y-123378571D01*
X76535714Y-123378571D01*
X76750000Y-123450000D01*
X76892857Y-123592857D01*
X76964285Y-123735714D01*
X77035714Y-124021428D01*
X77035714Y-124235714D01*
X76964285Y-124521428D01*
X76892857Y-124664285D01*
X76750000Y-124807142D01*
X76535714Y-124878571D01*
X76178571Y-124878571D01*
X78178571Y-124092857D02*
X77678571Y-124092857D01*
X77678571Y-124878571D02*
X77678571Y-123378571D01*
X78392857Y-123378571D01*
X78964285Y-123378571D02*
X78964285Y-124592857D01*
X79035714Y-124735714D01*
X79107142Y-124807142D01*
X79250000Y-124878571D01*
X79535714Y-124878571D01*
X79678571Y-124807142D01*
X79750000Y-124735714D01*
X79821428Y-124592857D01*
X79821428Y-123378571D01*
D18*
X93814596Y-100890647D02*
X94444154Y-101520206D01*
X94555253Y-101557239D01*
X94629319Y-101557239D01*
X94740417Y-101520206D01*
X94888549Y-101372075D01*
X94925582Y-101260976D01*
X94925582Y-101186910D01*
X94888549Y-101075812D01*
X94258990Y-100446253D01*
X95814370Y-100446253D02*
X95369976Y-100890647D01*
X95592173Y-100668450D02*
X94814483Y-99890760D01*
X94851516Y-100075924D01*
X94851516Y-100224056D01*
X94814483Y-100335154D01*
D19*
X88573359Y-102123353D02*
X88684543Y-102080590D01*
X88812832Y-101952300D01*
X88829938Y-101866774D01*
X88821385Y-101806906D01*
X88778622Y-101712827D01*
X88710201Y-101644406D01*
X88616122Y-101601643D01*
X88556254Y-101593090D01*
X88470727Y-101610195D01*
X88333885Y-101678616D01*
X88248359Y-101695721D01*
X88188491Y-101687169D01*
X88094412Y-101644406D01*
X88025991Y-101575985D01*
X87983228Y-101481906D01*
X87974675Y-101422037D01*
X87991780Y-101336511D01*
X88120070Y-101208222D01*
X88231254Y-101165459D01*
X88350991Y-100977301D02*
X88658885Y-100669406D01*
X89223358Y-101541774D02*
X88504938Y-100823354D01*
X89556911Y-101208222D02*
X88838490Y-100489801D01*
X89531253Y-100823354D01*
X89197700Y-100130591D01*
X89916121Y-100849012D01*
X89402963Y-99925328D02*
X89736516Y-99591776D01*
X89830595Y-100045065D01*
X89907568Y-99968091D01*
X89993095Y-99950986D01*
X90052963Y-99959539D01*
X90147042Y-100002302D01*
X90318094Y-100173354D01*
X90360857Y-100267433D01*
X90369410Y-100327301D01*
X90352305Y-100412828D01*
X90198358Y-100566775D01*
X90112831Y-100583880D01*
X90052963Y-100575328D01*
X90010200Y-99454934D02*
X90001647Y-99395065D01*
X90018752Y-99309539D01*
X90147042Y-99181250D01*
X90232568Y-99164144D01*
X90292436Y-99172697D01*
X90386515Y-99215460D01*
X90454936Y-99283881D01*
X90531910Y-99412171D01*
X90634541Y-100130591D01*
X90968094Y-99797039D01*
X91002304Y-99010197D02*
X90822699Y-99189802D01*
X91199015Y-99566118D02*
X90480594Y-98847697D01*
X90737173Y-98591119D01*
X90985199Y-98479934D02*
X90976646Y-98420066D01*
X90993752Y-98334540D01*
X91122041Y-98206250D01*
X91207567Y-98189145D01*
X91267436Y-98197698D01*
X91361515Y-98240461D01*
X91429936Y-98308882D01*
X91506909Y-98437171D01*
X91609541Y-99155592D01*
X91943093Y-98822039D01*
X91558225Y-97770067D02*
X91609541Y-97718751D01*
X91695067Y-97701646D01*
X91754935Y-97710198D01*
X91849014Y-97752961D01*
X92011514Y-97864146D01*
X92182567Y-98035198D01*
X92293751Y-98197698D01*
X92336514Y-98291777D01*
X92345066Y-98351645D01*
X92327961Y-98437171D01*
X92276645Y-98488487D01*
X92191119Y-98505592D01*
X92131251Y-98497040D01*
X92037172Y-98454277D01*
X91874672Y-98343092D01*
X91703620Y-98172040D01*
X91592435Y-98009540D01*
X91549672Y-97915461D01*
X91541120Y-97855593D01*
X91558225Y-97770067D01*
X91917435Y-97410856D02*
X92995066Y-97770067D01*
X92276645Y-97051646D02*
X92635856Y-98129277D01*
X93140460Y-97761514D02*
X93550986Y-97350988D01*
X93867434Y-96897699D02*
X93610855Y-97154278D01*
X92892434Y-96435857D01*
X94474670Y-96427305D02*
X94389144Y-96444410D01*
X94269407Y-96427305D01*
X94089802Y-96401647D01*
X94004276Y-96418752D01*
X93952960Y-96470068D01*
X94149670Y-96615462D02*
X94064144Y-96632568D01*
X93944407Y-96615462D01*
X93781907Y-96504278D01*
X93542434Y-96264805D01*
X93431250Y-96102305D01*
X93414144Y-95982568D01*
X93431250Y-95897042D01*
X93533881Y-95794410D01*
X93619407Y-95777305D01*
X93739144Y-95794410D01*
X93901644Y-95905594D01*
X94141118Y-96145068D01*
X94252302Y-96307568D01*
X94269407Y-96427305D01*
X94252302Y-96512831D01*
X94149670Y-96615462D01*
X94414802Y-95597700D02*
X94235196Y-95777305D01*
X94611512Y-96153621D02*
X93893091Y-95435200D01*
X94149670Y-95178621D01*
X95073354Y-95691779D02*
X94354933Y-94973358D01*
X94560196Y-94768095D01*
X94645722Y-94750990D01*
X94705591Y-94759543D01*
X94799670Y-94802306D01*
X94902301Y-94904937D01*
X94945064Y-94999016D01*
X94953617Y-95058885D01*
X94936512Y-95144411D01*
X94731249Y-95349674D01*
X95124669Y-94203622D02*
X95022038Y-94306254D01*
X95004933Y-94391780D01*
X95013485Y-94451648D01*
X95064801Y-94605595D01*
X95175985Y-94768095D01*
X95449669Y-95041779D01*
X95543748Y-95084542D01*
X95603616Y-95093095D01*
X95689143Y-95075990D01*
X95791774Y-94973358D01*
X95808879Y-94887832D01*
X95800327Y-94827964D01*
X95757564Y-94733885D01*
X95586511Y-94562832D01*
X95492432Y-94520069D01*
X95432564Y-94511517D01*
X95347038Y-94528622D01*
X95244406Y-94631253D01*
X95227301Y-94716780D01*
X95235854Y-94776648D01*
X95278617Y-94870727D01*
X95877300Y-93929938D02*
X96356247Y-94408885D01*
X95475327Y-93784543D02*
X95860195Y-94425990D01*
X96193748Y-94092438D01*
D17*
X59466688Y-88161142D02*
X60700402Y-88161142D01*
X60845545Y-88088571D01*
X60918117Y-88016000D01*
X60990688Y-87870857D01*
X60990688Y-87580571D01*
X60918117Y-87435428D01*
X60845545Y-87362857D01*
X60700402Y-87290285D01*
X59466688Y-87290285D01*
X59466688Y-86709714D02*
X59466688Y-85766285D01*
X60047260Y-86274285D01*
X60047260Y-86056571D01*
X60119831Y-85911428D01*
X60192402Y-85838857D01*
X60337545Y-85766285D01*
X60700402Y-85766285D01*
X60845545Y-85838857D01*
X60918117Y-85911428D01*
X60990688Y-86056571D01*
X60990688Y-86492000D01*
X60918117Y-86637142D01*
X60845545Y-86709714D01*
D12*
X61663095Y-116162380D02*
X61663095Y-116971904D01*
X61710714Y-117067142D01*
X61758333Y-117114761D01*
X61853571Y-117162380D01*
X62044047Y-117162380D01*
X62139285Y-117114761D01*
X62186904Y-117067142D01*
X62234523Y-116971904D01*
X62234523Y-116162380D01*
X63139285Y-116495714D02*
X63139285Y-117162380D01*
X62901190Y-116114761D02*
X62663095Y-116829047D01*
X63282142Y-116829047D01*
D17*
X79251076Y-83945811D02*
X81047127Y-84305021D01*
X79969496Y-83227391D02*
X80328706Y-85023442D01*
X82022126Y-83330022D02*
X81406337Y-83945811D01*
X81714232Y-83637917D02*
X80636601Y-82560286D01*
X80687917Y-82816865D01*
X80687917Y-83022128D01*
X80636601Y-83176075D01*
M02*
