G04 #@! TF.GenerationSoftware,KiCad,Pcbnew,(2017-08-04 revision 7bf9f8e1c)-master*
G04 #@! TF.CreationDate,2018-06-13T20:52:22+02:00*
G04 #@! TF.ProjectId,pcb-f2-a,7063622D66322D612E6B696361645F70,rev?*
G04 #@! TF.SameCoordinates,Original*
G04 #@! TF.FileFunction,Copper,L4,Bot,Signal*
G04 #@! TF.FilePolarity,Positive*
%FSLAX46Y46*%
G04 Gerber Fmt 4.6, Leading zero omitted, Abs format (unit mm)*
G04 Created by KiCad (PCBNEW (2017-08-04 revision 7bf9f8e1c)-master) date Wed Jun 13 20:52:22 2018*
%MOMM*%
%LPD*%
G01*
G04 APERTURE LIST*
%ADD10R,1.700000X1.700000*%
%ADD11O,1.700000X1.700000*%
%ADD12C,0.635000*%
%ADD13C,0.203200*%
%ADD14C,0.300000*%
%ADD15C,0.325000*%
G04 APERTURE END LIST*
D10*
X59360000Y-74600000D03*
D11*
X61900000Y-74600000D03*
X64440000Y-74600000D03*
X66980000Y-74600000D03*
D10*
X135560000Y-92380000D03*
D11*
X135560000Y-94920000D03*
X135560000Y-97460000D03*
X135560000Y-100000000D03*
X135560000Y-102540000D03*
X135560000Y-105080000D03*
X135560000Y-107620000D03*
D10*
X107620000Y-122860000D03*
D11*
X107620000Y-125400000D03*
X110160000Y-122860000D03*
X110160000Y-125400000D03*
X112700000Y-122860000D03*
X112700000Y-125400000D03*
X115240000Y-122860000D03*
X115240000Y-125400000D03*
X117780000Y-122860000D03*
X117780000Y-125400000D03*
X120320000Y-122860000D03*
X120320000Y-125400000D03*
X122860000Y-122860000D03*
X122860000Y-125400000D03*
X125400000Y-122860000D03*
X125400000Y-125400000D03*
X127940000Y-122860000D03*
X127940000Y-125400000D03*
X130480000Y-122860000D03*
X130480000Y-125400000D03*
X133020000Y-122860000D03*
X133020000Y-125400000D03*
X135560000Y-122860000D03*
X135560000Y-125400000D03*
X135560000Y-77140000D03*
X135560000Y-74600000D03*
X133020000Y-77140000D03*
X133020000Y-74600000D03*
X130480000Y-77140000D03*
X130480000Y-74600000D03*
X127940000Y-77140000D03*
X127940000Y-74600000D03*
X125400000Y-77140000D03*
X125400000Y-74600000D03*
X122860000Y-77140000D03*
X122860000Y-74600000D03*
X120320000Y-77140000D03*
X120320000Y-74600000D03*
X117780000Y-77140000D03*
X117780000Y-74600000D03*
X115240000Y-77140000D03*
X115240000Y-74600000D03*
X112700000Y-77140000D03*
X112700000Y-74600000D03*
X110160000Y-77140000D03*
X110160000Y-74600000D03*
X107620000Y-77140000D03*
D10*
X107620000Y-74600000D03*
D11*
X54280000Y-117780000D03*
X54280000Y-120320000D03*
D10*
X54280000Y-122860000D03*
X77140000Y-74600000D03*
D11*
X79680000Y-74600000D03*
X82220000Y-74600000D03*
X84760000Y-74600000D03*
X87300000Y-74600000D03*
X89840000Y-74600000D03*
D12*
X96570000Y-92130000D03*
X69500000Y-124800000D03*
X69287500Y-101487500D03*
X68387500Y-101487500D03*
X67487500Y-101487500D03*
X66587500Y-101487500D03*
X69287500Y-100587500D03*
X68387500Y-100587500D03*
X67487500Y-100587500D03*
X66587500Y-100587500D03*
X69287500Y-99687500D03*
X68387500Y-99687500D03*
X67487500Y-99687500D03*
X66587500Y-99687500D03*
X69287500Y-98787500D03*
X68387500Y-98787500D03*
X67487500Y-98787500D03*
X66587500Y-98787500D03*
X84250000Y-101500000D03*
X70650000Y-106250000D03*
X62375475Y-119000772D03*
X62400000Y-119950000D03*
X59528710Y-103000000D03*
X61100000Y-101250000D03*
X61800000Y-100500000D03*
X60900000Y-98200000D03*
X63000000Y-98100000D03*
X62600000Y-100500000D03*
X84192672Y-90988009D03*
X84975637Y-93027690D03*
X92908457Y-109164383D03*
X130450000Y-85750000D03*
X92265040Y-89915040D03*
X103850000Y-115850000D03*
X73800000Y-88650000D03*
X73950000Y-87650000D03*
X73900000Y-86650000D03*
X74000000Y-85450000D03*
X107300000Y-91500000D03*
X104000000Y-101250000D03*
X103550000Y-99300000D03*
X98900000Y-112800000D03*
X88700000Y-109400000D03*
X108600000Y-111450000D03*
X108650000Y-102350000D03*
X114950000Y-88400000D03*
X115000000Y-97500000D03*
X89300000Y-87950000D03*
X59550000Y-103800000D03*
X69500000Y-118300000D03*
X81200000Y-111900000D03*
X85550000Y-124450000D03*
X65900000Y-123750000D03*
X66950000Y-121300000D03*
X67350000Y-117750000D03*
X63550000Y-107900000D03*
X68650000Y-109000000D03*
X68000000Y-107000000D03*
X74650000Y-105850000D03*
X77000000Y-103200000D03*
X73150000Y-103450000D03*
X67900000Y-87100000D03*
X64750000Y-90050000D03*
X61650000Y-87000000D03*
X64800000Y-83850000D03*
X62100000Y-94800000D03*
X63400000Y-105700000D03*
X94250000Y-85100000D03*
X109650000Y-86500000D03*
X86780954Y-91660974D03*
X106650000Y-96100000D03*
X99550000Y-94500000D03*
X92950000Y-106600000D03*
X70250000Y-90450000D03*
X69850000Y-89300000D03*
X75700000Y-124950000D03*
X86096273Y-103606536D03*
X63546731Y-102705086D03*
X127865040Y-107734960D03*
X84800000Y-94400000D03*
X92272310Y-91238539D03*
X95165040Y-91065040D03*
X71200000Y-88350000D03*
X130900000Y-103850000D03*
X130400000Y-94800000D03*
X127800000Y-104700000D03*
X127700000Y-101550000D03*
X127750000Y-98500000D03*
X127750000Y-95000000D03*
X127850000Y-92650000D03*
X101550000Y-100300000D03*
X104200000Y-91500000D03*
X96900000Y-111600000D03*
X116350000Y-108350000D03*
X73150000Y-91450000D03*
X71000000Y-91400000D03*
X68900000Y-91350000D03*
X70950000Y-102800000D03*
X74850000Y-103250000D03*
X69900000Y-119950000D03*
X58100000Y-116850000D03*
X57800000Y-118800000D03*
X58200000Y-117800000D03*
X69400000Y-86000000D03*
X69500000Y-83500000D03*
X70000000Y-84700000D03*
X69200000Y-105400000D03*
X67650000Y-105850000D03*
X65000000Y-117850000D03*
X63800000Y-118100000D03*
X64000000Y-119250000D03*
X57100000Y-95900000D03*
X57550000Y-97250000D03*
X57500000Y-96550000D03*
X99250000Y-86750000D03*
X62550000Y-77950000D03*
X98350000Y-86000000D03*
X98400000Y-105600000D03*
X105850000Y-109450000D03*
X119900000Y-86050000D03*
X125000000Y-87750000D03*
X92143407Y-93801762D03*
X97900000Y-92100000D03*
X93600002Y-87000000D03*
X95639605Y-103297486D03*
X92850000Y-98500000D03*
X92850002Y-93350000D03*
X95650000Y-107600000D03*
X87700000Y-93650000D03*
X97050000Y-107000000D03*
X96300000Y-96100000D03*
X128450000Y-82900000D03*
X97250000Y-100300000D03*
X118400000Y-101550000D03*
X115400000Y-96100000D03*
X85900000Y-98350000D03*
X130499994Y-120950000D03*
X96889809Y-101250000D03*
X118850000Y-104900000D03*
X85150000Y-97700000D03*
X127950000Y-118550000D03*
X116700000Y-96100000D03*
X98749992Y-104150000D03*
X119450000Y-109250000D03*
X84700000Y-96850000D03*
X125550000Y-115650000D03*
X117950000Y-96700000D03*
X95400006Y-98200000D03*
X105150000Y-111150000D03*
X62250000Y-123800000D03*
X62950000Y-123450000D03*
X107150000Y-88350000D03*
X108100000Y-88350000D03*
X64050006Y-102000000D03*
X59550000Y-101250000D03*
X98899998Y-98700000D03*
X101250000Y-104300000D03*
X94550010Y-101900000D03*
X94150000Y-115400000D03*
X94500000Y-100750000D03*
X95350000Y-115250000D03*
X95550544Y-99850544D03*
X97550000Y-115250000D03*
X100777690Y-107587214D03*
X97950000Y-104650000D03*
X96906784Y-102187069D03*
X100777690Y-109250000D03*
X90777690Y-91056712D03*
X71086600Y-97769387D03*
X74100000Y-93650000D03*
X68700000Y-96317510D03*
X90000000Y-91450000D03*
X70950000Y-93450000D03*
X67800000Y-93350000D03*
X89050000Y-91050000D03*
X64084960Y-101084960D03*
X64100000Y-94500000D03*
X93900000Y-97950000D03*
X87800000Y-115550000D03*
X90800000Y-103200000D03*
X86350000Y-108600004D03*
X88850000Y-100950000D03*
X80550000Y-108000000D03*
X66965370Y-104187174D03*
X82350000Y-106000002D03*
X92453658Y-97431932D03*
X81400000Y-105150000D03*
X89842556Y-97799696D03*
X80200000Y-104400000D03*
X88942181Y-97953368D03*
X80551234Y-102814986D03*
X87762949Y-98334320D03*
X83350000Y-99950000D03*
X79824424Y-102264975D03*
X83721338Y-106860748D03*
X87158439Y-103293320D03*
X84550000Y-106550000D03*
X87800000Y-104650000D03*
X86100000Y-107200000D03*
X87180491Y-105376767D03*
X89296853Y-107067510D03*
X87438211Y-107056849D03*
X88088256Y-106387799D03*
X90506091Y-107242298D03*
X89836002Y-100953626D03*
X92600000Y-103650000D03*
X93128961Y-102817304D03*
X90749996Y-100600000D03*
X84100000Y-95550000D03*
X95730805Y-95330890D03*
X61700000Y-98700000D03*
X63200000Y-99700000D03*
X61100000Y-99900000D03*
X62000000Y-99600000D03*
D13*
X96631163Y-92068837D02*
X96570000Y-92130000D01*
X96681163Y-92068837D02*
X96631163Y-92068837D01*
X63400000Y-105700000D02*
X63300000Y-105600000D01*
X93800988Y-85100000D02*
X94250000Y-85100000D01*
X86780954Y-91660974D02*
X93341928Y-85100000D01*
X93341928Y-85100000D02*
X93800988Y-85100000D01*
X87300000Y-74600000D02*
X88454801Y-75754801D01*
X88454801Y-75754801D02*
X98904801Y-75754801D01*
X98904801Y-75754801D02*
X109650000Y-86500000D01*
X106650000Y-96100000D02*
X105050000Y-94500000D01*
X105050000Y-94500000D02*
X99999012Y-94500000D01*
X99999012Y-94500000D02*
X99550000Y-94500000D01*
X62550000Y-77950000D02*
X64927698Y-80327698D01*
X91498706Y-80327698D02*
X97921008Y-86750000D01*
X64927698Y-80327698D02*
X91498706Y-80327698D01*
X97921008Y-86750000D02*
X98800988Y-86750000D01*
X98800988Y-86750000D02*
X99250000Y-86750000D01*
X67939461Y-78099461D02*
X90449461Y-78099461D01*
X90449461Y-78099461D02*
X98032501Y-85682501D01*
X64440000Y-74600000D02*
X67939461Y-78099461D01*
X98032501Y-85682501D02*
X98350000Y-86000000D01*
X114390001Y-119190001D02*
X105027699Y-109827699D01*
X105027699Y-109827699D02*
X105027699Y-108627699D01*
X115240000Y-122860000D02*
X114390001Y-122010001D01*
X114390001Y-122010001D02*
X114390001Y-119190001D01*
X105850000Y-109450000D02*
X105027699Y-108627699D01*
X98400000Y-106049012D02*
X98400000Y-105600000D01*
X105027699Y-108627699D02*
X100928687Y-108627699D01*
X98400000Y-106099012D02*
X98400000Y-106049012D01*
X100928687Y-108627699D02*
X98400000Y-106099012D01*
X124050000Y-79900000D02*
X124050000Y-75950000D01*
X124050000Y-75950000D02*
X125400000Y-74600000D01*
X119900000Y-84050000D02*
X124050000Y-79900000D01*
X119900000Y-86050000D02*
X119900000Y-84050000D01*
X125000000Y-87750000D02*
X125050000Y-87800000D01*
X125050000Y-87800000D02*
X125950000Y-87800000D01*
X125950000Y-87800000D02*
X129250000Y-84500000D01*
X129250000Y-84500000D02*
X129250000Y-75830000D01*
X129250000Y-75830000D02*
X130480000Y-74600000D01*
X97200000Y-93450000D02*
X115900000Y-93450000D01*
X96530739Y-94119261D02*
X97200000Y-93450000D01*
X92143407Y-93801762D02*
X92460906Y-94119261D01*
X92460906Y-94119261D02*
X96530739Y-94119261D01*
X115900000Y-93450000D02*
X127940000Y-81410000D01*
X127940000Y-81410000D02*
X127940000Y-77140000D01*
X97900000Y-92100000D02*
X99500000Y-90500000D01*
X99500000Y-90500000D02*
X109650000Y-90500000D01*
X109650000Y-90500000D02*
X118934801Y-81215199D01*
X118934801Y-81215199D02*
X118934801Y-75754801D01*
X118934801Y-75754801D02*
X118629999Y-75449999D01*
X118629999Y-75449999D02*
X117780000Y-74600000D01*
X93449014Y-93500000D02*
X96350000Y-93500000D01*
X92850002Y-93350000D02*
X93299014Y-93350000D01*
X114650000Y-93000000D02*
X126785199Y-80864801D01*
X127090001Y-75449999D02*
X127940000Y-74600000D01*
X93299014Y-93350000D02*
X93449014Y-93500000D01*
X96350000Y-93500000D02*
X96850000Y-93000000D01*
X96850000Y-93000000D02*
X114650000Y-93000000D01*
X126785199Y-80864801D02*
X126785199Y-75754801D01*
X126785199Y-75754801D02*
X127090001Y-75449999D01*
X93282503Y-87317499D02*
X93600002Y-87000000D01*
X91400000Y-89200002D02*
X93282503Y-87317499D01*
X91400000Y-92150000D02*
X91400000Y-89200002D01*
X89900000Y-93650000D02*
X91400000Y-92150000D01*
X87700000Y-93650000D02*
X89900000Y-93650000D01*
X95639605Y-103746498D02*
X95639605Y-103297486D01*
X95639605Y-106489605D02*
X95639605Y-103746498D01*
X99800000Y-120050000D02*
X99800000Y-111250000D01*
X113540000Y-127100000D02*
X106850000Y-127100000D01*
X115240000Y-125400000D02*
X113540000Y-127100000D01*
X99800000Y-111250000D02*
X96400000Y-107850000D01*
X106850000Y-127100000D02*
X99800000Y-120050000D01*
X96400000Y-107250000D02*
X95639605Y-106489605D01*
X96400000Y-107850000D02*
X96400000Y-107250000D01*
X128132501Y-83217499D02*
X128450000Y-82900000D01*
X117493589Y-93856411D02*
X128132501Y-83217499D01*
X96300000Y-96100000D02*
X98543589Y-93856411D01*
X98543589Y-93856411D02*
X117493589Y-93856411D01*
X112504241Y-94950000D02*
X110731940Y-96722301D01*
X88850000Y-100950000D02*
X91300000Y-98500000D01*
X91300000Y-98500000D02*
X92400988Y-98500000D01*
X92400988Y-98500000D02*
X92850000Y-98500000D01*
X112700000Y-122860000D02*
X112690000Y-122850000D01*
X112690000Y-122850000D02*
X112450988Y-122850000D01*
X97050000Y-107449012D02*
X97050000Y-107000000D01*
X112450988Y-122850000D02*
X97050000Y-107449012D01*
X112600000Y-122760000D02*
X112700000Y-122860000D01*
X105981660Y-127506411D02*
X115673589Y-127506411D01*
X98200000Y-119724751D02*
X105981660Y-127506411D01*
X98200000Y-110599012D02*
X98200000Y-119724751D01*
X115673589Y-127506411D02*
X117492625Y-125687375D01*
X95650000Y-108049012D02*
X98200000Y-110599012D01*
X95650000Y-107600000D02*
X95650000Y-108049012D01*
X118400000Y-101550000D02*
X124114877Y-107264877D01*
X129094801Y-124014801D02*
X129630001Y-124550001D01*
X124114877Y-107264877D02*
X124114877Y-116285385D01*
X124114877Y-116285385D02*
X129094801Y-121265309D01*
X129094801Y-121265309D02*
X129094801Y-124014801D01*
X129630001Y-124550001D02*
X130480000Y-125400000D01*
X97250000Y-100300000D02*
X97567499Y-100617499D01*
X97567499Y-100617499D02*
X97767499Y-100617499D01*
X97767499Y-100617499D02*
X100250000Y-103100000D01*
X100250000Y-103100000D02*
X100250000Y-104750000D01*
X100250000Y-104750000D02*
X100427699Y-104927699D01*
X100427699Y-104927699D02*
X100427699Y-105277699D01*
X100427699Y-105277699D02*
X101000000Y-105850000D01*
X101000000Y-105850000D02*
X114100000Y-105850000D01*
X114100000Y-105850000D02*
X118400000Y-101550000D01*
X115717499Y-96417499D02*
X115400000Y-96100000D01*
X124521288Y-105221288D02*
X115717499Y-96417499D01*
X124521288Y-116117045D02*
X124521288Y-105221288D01*
X113932501Y-97567499D02*
X115082501Y-96417499D01*
X94413321Y-96762822D02*
X95217998Y-97567499D01*
X87487178Y-96762822D02*
X94413321Y-96762822D01*
X129354243Y-120950000D02*
X124521288Y-116117045D01*
X115082501Y-96417499D02*
X115400000Y-96100000D01*
X130499994Y-120950000D02*
X129354243Y-120950000D01*
X95217998Y-97567499D02*
X113932501Y-97567499D01*
X85900000Y-98350000D02*
X87487178Y-96762822D01*
X97207308Y-101567499D02*
X96889809Y-101250000D01*
X100831660Y-106256411D02*
X99843589Y-105268339D01*
X99843589Y-105268339D02*
X99843589Y-104203780D01*
X99843589Y-104203780D02*
X97207308Y-101567499D01*
X117493589Y-106256411D02*
X100831660Y-106256411D01*
X118850000Y-104900000D02*
X117493589Y-106256411D01*
X118850000Y-104900000D02*
X118850000Y-107050000D01*
X120650000Y-108850000D02*
X120650000Y-114350000D01*
X120650000Y-114350000D02*
X126554801Y-120254801D01*
X126554801Y-124014801D02*
X127940000Y-125400000D01*
X118850000Y-107050000D02*
X120650000Y-108850000D01*
X126554801Y-120254801D02*
X126554801Y-124014801D01*
X116700000Y-96100000D02*
X116700000Y-96549012D01*
X116700000Y-96549012D02*
X124927699Y-104776711D01*
X124927699Y-104776711D02*
X124927699Y-115926711D01*
X124927699Y-115926711D02*
X127550988Y-118550000D01*
X127550988Y-118550000D02*
X127950000Y-118550000D01*
X85467499Y-97382501D02*
X85150000Y-97700000D01*
X86493589Y-96356411D02*
X85467499Y-97382501D01*
X111050280Y-97128712D02*
X95353962Y-97128712D01*
X95353962Y-97128712D02*
X94581661Y-96356411D01*
X112822581Y-95356411D02*
X111050280Y-97128712D01*
X115956411Y-95356411D02*
X112822581Y-95356411D01*
X116700000Y-96100000D02*
X115956411Y-95356411D01*
X94581661Y-96356411D02*
X86493589Y-96356411D01*
X119450000Y-109250000D02*
X119767499Y-109567499D01*
X119767499Y-109567499D02*
X119767499Y-116317499D01*
X119767499Y-116317499D02*
X124014801Y-120564801D01*
X124014801Y-120564801D02*
X124014801Y-124014801D01*
X124014801Y-124014801D02*
X125400000Y-125400000D01*
X119450000Y-109250000D02*
X116862822Y-106662822D01*
X116862822Y-106662822D02*
X100613810Y-106662822D01*
X100613810Y-106662822D02*
X99428712Y-105477724D01*
X99428712Y-105477724D02*
X99428712Y-104828720D01*
X99428712Y-104828720D02*
X99067491Y-104467499D01*
X99067491Y-104467499D02*
X98749992Y-104150000D01*
X116649012Y-94950000D02*
X112504241Y-94950000D01*
X117950000Y-96250988D02*
X116649012Y-94950000D01*
X95228994Y-95950000D02*
X85600000Y-95950000D01*
X110731940Y-96722301D02*
X96001295Y-96722301D01*
X117950000Y-96700000D02*
X117950000Y-96250988D01*
X96001295Y-96722301D02*
X95228994Y-95950000D01*
X85600000Y-95950000D02*
X85017499Y-96532501D01*
X85017499Y-96532501D02*
X84700000Y-96850000D01*
X125550000Y-115200988D02*
X125550000Y-115650000D01*
X117950000Y-96700000D02*
X125550000Y-104300000D01*
X125550000Y-104300000D02*
X125550000Y-115200988D01*
X101650000Y-111150000D02*
X97672301Y-107172301D01*
X105150000Y-111150000D02*
X101650000Y-111150000D01*
X97672301Y-107172301D02*
X97672301Y-106701295D01*
X96267499Y-105296493D02*
X96267499Y-99067493D01*
X97672301Y-106701295D02*
X96267499Y-105296493D01*
X96267499Y-99067493D02*
X95717505Y-98517499D01*
X95717505Y-98517499D02*
X95400006Y-98200000D01*
X106832501Y-88032501D02*
X107150000Y-88350000D01*
X96300000Y-77500000D02*
X106832501Y-88032501D01*
X82580000Y-77500000D02*
X96300000Y-77500000D01*
X79680000Y-74600000D02*
X82580000Y-77500000D01*
X86960000Y-76800000D02*
X98862238Y-76800000D01*
X108100000Y-87900988D02*
X108100000Y-88350000D01*
X108100000Y-86037762D02*
X108100000Y-87900988D01*
X98862238Y-76800000D02*
X108100000Y-86037762D01*
X84760000Y-74600000D02*
X86960000Y-76800000D01*
X63600994Y-102000000D02*
X64050006Y-102000000D01*
X60300000Y-102000000D02*
X63600994Y-102000000D01*
X59550000Y-101250000D02*
X60300000Y-102000000D01*
X99217497Y-99017499D02*
X98899998Y-98700000D01*
X101250000Y-101050002D02*
X99217497Y-99017499D01*
X101250000Y-104300000D02*
X101250000Y-101050002D01*
X94204473Y-102245537D02*
X94232511Y-102217499D01*
X94204473Y-114896515D02*
X94204473Y-102245537D01*
X94150000Y-115400000D02*
X94150000Y-114950988D01*
X94232511Y-102217499D02*
X94550010Y-101900000D01*
X94150000Y-114950988D02*
X94204473Y-114896515D01*
X95222301Y-101472301D02*
X94817499Y-101067499D01*
X94610884Y-102810122D02*
X95222301Y-102198705D01*
X94610884Y-114510884D02*
X94610884Y-102810122D01*
X94817499Y-101067499D02*
X94500000Y-100750000D01*
X95222301Y-102198705D02*
X95222301Y-101472301D01*
X95350000Y-115250000D02*
X94610884Y-114510884D01*
X95817499Y-102207251D02*
X95817499Y-100566511D01*
X95550544Y-100299556D02*
X95550544Y-99850544D01*
X95017295Y-103007455D02*
X95817499Y-102207251D01*
X95817499Y-100566511D02*
X95550544Y-100299556D01*
X95017295Y-112717295D02*
X95017295Y-103007455D01*
X97550000Y-115250000D02*
X95017295Y-112717295D01*
X99022301Y-105831825D02*
X100460191Y-107269715D01*
X98688505Y-104967499D02*
X99022301Y-105301295D01*
X98267499Y-104967499D02*
X98688505Y-104967499D01*
X97950000Y-104650000D02*
X98267499Y-104967499D01*
X100460191Y-107269715D02*
X100777690Y-107587214D01*
X99022301Y-105301295D02*
X99022301Y-105831825D01*
X100460191Y-108932501D02*
X100777690Y-109250000D01*
X96906784Y-102187069D02*
X96906784Y-105361027D01*
X100460191Y-108914434D02*
X100460191Y-108932501D01*
X96906784Y-105361027D02*
X100460191Y-108914434D01*
X90777690Y-91505724D02*
X90777690Y-91056712D01*
X83432321Y-93650000D02*
X84676932Y-92405389D01*
X85274342Y-92405389D02*
X86054076Y-93185123D01*
X86054076Y-93185123D02*
X87243869Y-93185123D01*
X90777690Y-91555724D02*
X90777690Y-91505724D01*
X89305716Y-93027698D02*
X90777690Y-91555724D01*
X74100000Y-93650000D02*
X83432321Y-93650000D01*
X87243869Y-93185123D02*
X87401294Y-93027698D01*
X87401294Y-93027698D02*
X89305716Y-93027698D01*
X84676932Y-92405389D02*
X85274342Y-92405389D01*
X71404099Y-97451888D02*
X71086600Y-97769387D01*
X74100000Y-94755987D02*
X71404099Y-97451888D01*
X74100000Y-93650000D02*
X74100000Y-94755987D01*
X71743589Y-92656411D02*
X71267499Y-93132501D01*
X71267499Y-93132501D02*
X70950000Y-93450000D01*
X86222416Y-92778712D02*
X85442682Y-91998978D01*
X83851159Y-92656411D02*
X71743589Y-92656411D01*
X84508592Y-91998978D02*
X83851159Y-92656411D01*
X85442682Y-91998978D02*
X84508592Y-91998978D01*
X87075529Y-92778712D02*
X86222416Y-92778712D01*
X88828713Y-92621287D02*
X87232954Y-92621287D01*
X90000000Y-91450000D02*
X88828713Y-92621287D01*
X87232954Y-92621287D02*
X87075529Y-92778712D01*
X70950000Y-93450000D02*
X68700000Y-95700000D01*
X68700000Y-95868498D02*
X68700000Y-96317510D01*
X68700000Y-95700000D02*
X68700000Y-95868498D01*
X86907189Y-92372301D02*
X86390756Y-92372301D01*
X68900000Y-92250000D02*
X68117499Y-93032501D01*
X83682819Y-92250000D02*
X68900000Y-92250000D01*
X84340252Y-91592567D02*
X83682819Y-92250000D01*
X85611022Y-91592567D02*
X84340252Y-91592567D01*
X87064614Y-92214876D02*
X86907189Y-92372301D01*
X87885124Y-92214876D02*
X87064614Y-92214876D01*
X89050000Y-91050000D02*
X87885124Y-92214876D01*
X68117499Y-93032501D02*
X67800000Y-93350000D01*
X86390756Y-92372301D02*
X85611022Y-91592567D01*
X64100000Y-94500000D02*
X64100000Y-101069920D01*
X64100000Y-101069920D02*
X64084960Y-101084960D01*
X87800000Y-115550000D02*
X93798062Y-109551938D01*
X93900000Y-98399012D02*
X93900000Y-97950000D01*
X93798062Y-109551938D02*
X93798062Y-98500950D01*
X93798062Y-98500950D02*
X93900000Y-98399012D01*
X90800000Y-103200000D02*
X90482501Y-103517499D01*
X90482501Y-103517499D02*
X90012291Y-103517499D01*
X90012291Y-103517499D02*
X86769101Y-106760689D01*
X86769101Y-106760689D02*
X86769101Y-108180903D01*
X86667499Y-108282505D02*
X86350000Y-108600004D01*
X86769101Y-108180903D02*
X86667499Y-108282505D01*
X80550000Y-108000000D02*
X80232501Y-107682501D01*
X80232501Y-107682501D02*
X77382501Y-107682501D01*
X77382501Y-107682501D02*
X73887174Y-104187174D01*
X73887174Y-104187174D02*
X67414382Y-104187174D01*
X67414382Y-104187174D02*
X66965370Y-104187174D01*
D14*
X82688094Y-106000002D02*
X82350000Y-106000002D01*
X91256164Y-97431932D02*
X82688094Y-106000002D01*
X92453658Y-97431932D02*
X91256164Y-97431932D01*
X89842556Y-97799696D02*
X89842556Y-98067707D01*
X89842556Y-98067707D02*
X83460263Y-104450000D01*
X83460263Y-104450000D02*
X82549012Y-104450000D01*
X82549012Y-104450000D02*
X81849012Y-105150000D01*
X81849012Y-105150000D02*
X81400000Y-105150000D01*
X88942181Y-97953368D02*
X88624682Y-98270867D01*
X88624682Y-98270867D02*
X88624682Y-98507748D01*
X88624682Y-98507748D02*
X83632430Y-103500000D01*
X83632430Y-103500000D02*
X81100000Y-103500000D01*
X81100000Y-103500000D02*
X80200000Y-104400000D01*
X87762949Y-98334320D02*
X85314770Y-100782499D01*
X85314770Y-100782499D02*
X82583721Y-100782499D01*
X82583721Y-100782499D02*
X80868733Y-102497487D01*
X80868733Y-102497487D02*
X80551234Y-102814986D01*
X82139399Y-99950000D02*
X82900988Y-99950000D01*
X82900988Y-99950000D02*
X83350000Y-99950000D01*
X79824424Y-102264975D02*
X82139399Y-99950000D01*
X86840940Y-103923771D02*
X86245475Y-104519236D01*
X85518862Y-104519236D02*
X83721338Y-106316760D01*
X86245475Y-104519236D02*
X85518862Y-104519236D01*
X83721338Y-106411736D02*
X83721338Y-106860748D01*
X87158439Y-103293320D02*
X86840940Y-103610819D01*
X83721338Y-106316760D02*
X83721338Y-106411736D01*
X86840940Y-103610819D02*
X86840940Y-103923771D01*
X84867499Y-106232501D02*
X84550000Y-106550000D01*
X86892544Y-104650000D02*
X85310043Y-106232501D01*
X87800000Y-104650000D02*
X86892544Y-104650000D01*
X85310043Y-106232501D02*
X84867499Y-106232501D01*
X86100000Y-106750988D02*
X86100000Y-107200000D01*
X87180491Y-105376767D02*
X86100000Y-106457258D01*
X86100000Y-106457258D02*
X86100000Y-106750988D01*
X88990015Y-107374348D02*
X89296853Y-107067510D01*
X87755710Y-107374348D02*
X88990015Y-107374348D01*
X87438211Y-107056849D02*
X87755710Y-107374348D01*
X90506091Y-107242298D02*
X90506091Y-106793286D01*
X90506091Y-106793286D02*
X90012805Y-106300000D01*
X90012805Y-106300000D02*
X88100000Y-106300000D01*
X88100000Y-106300000D02*
X88100000Y-106376055D01*
X88100000Y-106376055D02*
X88088256Y-106387799D01*
X92600000Y-103650000D02*
X89903626Y-100953626D01*
X89903626Y-100953626D02*
X89836002Y-100953626D01*
X92967300Y-102817304D02*
X93128961Y-102817304D01*
X90749996Y-100600000D02*
X92967300Y-102817304D01*
X95730805Y-95330890D02*
X84319110Y-95330890D01*
X84319110Y-95330890D02*
X84100000Y-95550000D01*
D15*
X62200000Y-98700000D02*
X61700000Y-98700000D01*
X63200000Y-99700000D02*
X62200000Y-98700000D01*
X61400000Y-99600000D02*
X61100000Y-99900000D01*
X62000000Y-99600000D02*
X61400000Y-99600000D01*
M02*
