M48
;DRILL file {KiCad (2017-08-04 revision 7bf9f8e1c)-master} date Wed Jun 13 20:52:24 2018
;FORMAT={2:4/ absolute / inch / suppress leading zeros}
FMAT,2
INCH,TZ
T1C0.012
T2C0.026
T3C0.028
T4C0.039
T5C0.031
%
G90
G05
M72
T1
X22480Y-37756
X22638Y-38012
X22657Y-38287
X22756Y-46772
X22874Y-46004
X22913Y-46378
X23436Y-40551
X23445Y-39862
X23445Y-40866
X23976Y-38661
X24055Y-39331
X24055Y-39862
X24272Y-34252
X24291Y-38858
X24331Y-39567
X24409Y-39213
X24449Y-37323
X24508Y-48740
X24557Y-46851
X24567Y-47224
X24626Y-30689
X24646Y-39567
X24783Y-48602
X24803Y-38622
X24882Y-39252
X24961Y-41614
X25018Y-40435
X25020Y-42480
X25118Y-46496
X25197Y-46949
X25217Y-40157
X25230Y-39797
X25236Y-37205
X25492Y-35453
X25512Y-33012
X25591Y-46398
X25945Y-48720
X26216Y-38893
X26216Y-39247
X26216Y-39601
X26216Y-39956
X26358Y-47756
X26364Y-41019
X26516Y-46358
X26570Y-38893
X26570Y-39247
X26570Y-39601
X26570Y-39956
X26634Y-41673
X26693Y-36752
X26732Y-34291
X26772Y-42126
X26924Y-38893
X26924Y-39247
X26924Y-39601
X26924Y-39956
X27028Y-42913
X27047Y-37920
X27126Y-35965
X27244Y-41496
X27279Y-38893
X27279Y-39247
X27279Y-39601
X27279Y-39956
X27323Y-33858
X27362Y-32874
X27362Y-46575
X27362Y-49134
X27500Y-35157
X27520Y-47224
X27559Y-33346
X27657Y-35610
X27815Y-41831
X27933Y-36791
X27933Y-40472
X27953Y-35984
X27987Y-38492
X28031Y-34783
X28799Y-36004
X28799Y-40728
X29055Y-34902
X29094Y-34114
X29114Y-34508
X29134Y-33642
X29173Y-36870
X29390Y-41673
X29469Y-40650
X29803Y-49193
X30315Y-40630
X31427Y-40262
X31575Y-41102
X31713Y-42520
X31713Y-40478
X31969Y-44055
X32047Y-41398
X32421Y-41732
X32815Y-39350
X32961Y-42071
X33110Y-37618
X33147Y-35822
X33169Y-39961
X33287Y-41949
X33346Y-38130
X33386Y-37165
X33455Y-36625
X33524Y-38465
X33681Y-48996
X33819Y-38720
X33896Y-40790
X33898Y-42205
X33996Y-42756
X34166Y-36087
X34314Y-40667
X34323Y-41487
X34424Y-42148
X34528Y-36870
X34552Y-38714
X34567Y-41201
X34567Y-45492
X34680Y-41885
X34921Y-43071
X34980Y-39744
X35017Y-38564
X35059Y-35846
X35156Y-42153
X35157Y-34626
X35369Y-39746
X35371Y-38504
X35433Y-36004
X35632Y-42221
X35728Y-39606
X35739Y-35849
X35748Y-40630
X36277Y-36930
X36325Y-35400
X36328Y-35921
X36399Y-38359
X36457Y-40807
X36555Y-38780
X36555Y-36752
X36578Y-42978
X36594Y-41969
X36665Y-40479
X36850Y-34252
X36969Y-38563
X37067Y-45433
X37106Y-33504
X37205Y-39665
X37224Y-40118
X37467Y-35852
X37539Y-45374
X37559Y-38661
X37618Y-39311
X37653Y-40668
X37657Y-42362
X37689Y-37532
X37913Y-37835
X38020Y-36272
X38146Y-39862
X38150Y-43937
X38152Y-40231
X38209Y-42126
X38287Y-39488
X38406Y-45374
X38543Y-36260
X38563Y-41201
X38720Y-33858
X38740Y-41575
X38878Y-41004
X38937Y-38858
X38937Y-44409
X39075Y-34154
X39193Y-37205
X39676Y-42357
X39676Y-43012
X39862Y-41063
X39980Y-39488
X40768Y-39094
X40886Y-45610
X40945Y-39862
X41024Y-36024
X41398Y-43760
X41673Y-43091
X41988Y-37835
X42185Y-34783
X42244Y-36024
X42559Y-34783
X42756Y-43878
X42776Y-40295
X43169Y-34055
X45256Y-34803
X45276Y-38386
X45433Y-37835
X45807Y-42657
X45945Y-37835
X46437Y-38071
X46614Y-39980
X46791Y-41299
X47028Y-43012
X47205Y-33878
X49213Y-34547
X49429Y-45531
X50276Y-39980
X50295Y-37402
X50295Y-38780
X50315Y-41220
X50335Y-36476
X50341Y-42415
X50374Y-46673
X50571Y-32638
X51339Y-37323
X51358Y-33760
X51378Y-47618
X51535Y-40886
T4
X30370Y-29370
X31370Y-29370
X32370Y-29370
X33370Y-29370
X34370Y-29370
X35370Y-29370
X21370Y-46370
X21370Y-47370
X21370Y-48370
X42370Y-48370
X42370Y-49370
X43370Y-48370
X43370Y-49370
X44370Y-48370
X44370Y-49370
X45370Y-48370
X45370Y-49370
X46370Y-48370
X46370Y-49370
X47370Y-48370
X47370Y-49370
X48370Y-48370
X48370Y-49370
X49370Y-48370
X49370Y-49370
X50370Y-48370
X50370Y-49370
X51370Y-48370
X51370Y-49370
X52370Y-48370
X52370Y-49370
X53370Y-48370
X53370Y-49370
X42370Y-29370
X42370Y-30370
X43370Y-29370
X43370Y-30370
X44370Y-29370
X44370Y-30370
X45370Y-29370
X45370Y-30370
X46370Y-29370
X46370Y-30370
X47370Y-29370
X47370Y-30370
X48370Y-29370
X48370Y-30370
X49370Y-29370
X49370Y-30370
X50370Y-29370
X50370Y-30370
X51370Y-29370
X51370Y-30370
X52370Y-29370
X52370Y-30370
X53370Y-29370
X53370Y-30370
X23370Y-29370
X24370Y-29370
X25370Y-29370
X26370Y-29370
X53370Y-36370
X53370Y-37370
X53370Y-38370
X53370Y-39370
X53370Y-40370
X53370Y-41370
X53370Y-42370
T5
X30118Y-50472
X31299Y-50472
T2
X24242Y-49201G85X24242Y-49358
G05
X26152Y-49201G85X26152Y-49358
G05
X22059Y-38415G85X21902Y-38415
G05
X22059Y-40325G85X21902Y-40325
G05
T3
X24124Y-50374G85X24124Y-50570
G05
X26270Y-50374G85X26270Y-50570
G05
X20885Y-38297G85X20689Y-38297
G05
X20885Y-40443G85X20689Y-40443
G05
T0
M30
