G04 #@! TF.GenerationSoftware,KiCad,Pcbnew,(2017-08-04 revision 7bf9f8e1c)-master*
G04 #@! TF.CreationDate,2018-06-13T20:52:22+02:00*
G04 #@! TF.ProjectId,pcb-f2-a,7063622D66322D612E6B696361645F70,rev?*
G04 #@! TF.SameCoordinates,Original*
G04 #@! TF.FileFunction,Paste,Top*
G04 #@! TF.FilePolarity,Positive*
%FSLAX46Y46*%
G04 Gerber Fmt 4.6, Leading zero omitted, Abs format (unit mm)*
G04 Created by KiCad (PCBNEW (2017-08-04 revision 7bf9f8e1c)-master) date Wed Jun 13 20:52:22 2018*
%MOMM*%
%LPD*%
G01*
G04 APERTURE LIST*
%ADD10O,0.192000X0.352000*%
%ADD11O,0.352000X0.192000*%
%ADD12C,0.570000*%
%ADD13R,0.192000X0.800000*%
%ADD14R,0.800000X0.192000*%
%ADD15R,0.800000X1.000000*%
%ADD16R,4.400000X1.600000*%
%ADD17R,1.119632X1.680464*%
%ADD18C,0.600000*%
%ADD19C,0.100000*%
%ADD20R,0.600000X0.640000*%
%ADD21C,0.800000*%
%ADD22R,1.000000X0.800000*%
%ADD23R,0.640000X0.600000*%
%ADD24R,1.200000X1.040000*%
%ADD25R,0.460000X0.840000*%
%ADD26R,1.461008X0.560832*%
%ADD27R,1.139952X1.999488*%
%ADD28R,0.319024X1.400048*%
%ADD29R,1.400048X0.319024*%
%ADD30R,1.999488X1.139952*%
%ADD31R,0.560832X1.461008*%
%ADD32R,0.640080X1.343152*%
%ADD33R,1.280160X1.200912*%
%ADD34R,1.359408X1.200912*%
%ADD35R,1.200912X1.359408*%
%ADD36R,1.032256X1.040384*%
%ADD37R,1.032256X1.119632*%
%ADD38R,0.560000X1.040000*%
%ADD39R,1.040000X0.560000*%
%ADD40R,0.960000X0.640000*%
%ADD41R,0.640000X1.280000*%
%ADD42C,0.199136*%
%ADD43C,0.199136*%
%ADD44R,1.359408X1.040384*%
%ADD45R,4.559808X4.399280*%
%ADD46R,0.848000X0.520000*%
%ADD47C,3.279648*%
G04 APERTURE END LIST*
D10*
X69687500Y-102382500D03*
X69187500Y-102382500D03*
X68687500Y-102382500D03*
X68187500Y-102382500D03*
X67687500Y-102382500D03*
X67187500Y-102382500D03*
X66687500Y-102382500D03*
D11*
X65692500Y-101887500D03*
X65692500Y-101387500D03*
X65692500Y-100887500D03*
X65692500Y-100387500D03*
X65692500Y-99887500D03*
X65692500Y-99387500D03*
X65692500Y-98887500D03*
D10*
X66187500Y-97892500D03*
X66687500Y-97892500D03*
X67187500Y-97892500D03*
X67687500Y-97892500D03*
X68187500Y-97892500D03*
X68687500Y-97892500D03*
X69187500Y-97892500D03*
D11*
X70182500Y-98387500D03*
X70182500Y-98887500D03*
X70182500Y-99387500D03*
X70182500Y-99887500D03*
X70182500Y-100387500D03*
X70182500Y-100887500D03*
X70182500Y-101387500D03*
D12*
X68837500Y-101037500D03*
X67937500Y-101037500D03*
X67037500Y-101037500D03*
X68837500Y-100137500D03*
X67937500Y-100137500D03*
X67037500Y-100137500D03*
X68837500Y-99237500D03*
X67937500Y-99237500D03*
X67037500Y-99237500D03*
D13*
X69687500Y-102782500D03*
X69187500Y-102782500D03*
X68687500Y-102782500D03*
X68187500Y-102782500D03*
X67687500Y-102782500D03*
X67187500Y-102782500D03*
X66687500Y-102782500D03*
D10*
X66187500Y-102382500D03*
D14*
X65292500Y-101887500D03*
X65292500Y-101387500D03*
X65292500Y-100887500D03*
X65292500Y-100387500D03*
X65292500Y-99887500D03*
X65292500Y-99387500D03*
X65292500Y-98887500D03*
D11*
X65692500Y-98387500D03*
D13*
X66187500Y-97492500D03*
X66687500Y-97492500D03*
X67187500Y-97492500D03*
X67687500Y-97492500D03*
X68187500Y-97492500D03*
X68687500Y-97492500D03*
X69187500Y-97492500D03*
D10*
X69687500Y-97892500D03*
D14*
X70582500Y-98387500D03*
X70582500Y-98887500D03*
X70582500Y-99387500D03*
X70582500Y-99887500D03*
X70582500Y-100387500D03*
X70582500Y-100887500D03*
X70582500Y-101387500D03*
D11*
X70182500Y-101887500D03*
D13*
X66187500Y-102782500D03*
D14*
X65292500Y-98387500D03*
D13*
X69687500Y-97492500D03*
D14*
X70582500Y-101887500D03*
D15*
X67250000Y-118650000D03*
X65250000Y-118650000D03*
D16*
X70550000Y-112200000D03*
X61050000Y-112200000D03*
D17*
X114050440Y-88400860D03*
X114050440Y-97499140D03*
X109549560Y-88400860D03*
X109549560Y-97499140D03*
X114050440Y-102350860D03*
X114050440Y-111449140D03*
X109549560Y-102350860D03*
X109549560Y-111449140D03*
D18*
X84919670Y-101869670D03*
D19*
G36*
X84481264Y-101855528D02*
X84905528Y-101431264D01*
X85358076Y-101883812D01*
X84933812Y-102308076D01*
X84481264Y-101855528D01*
X84481264Y-101855528D01*
G37*
D18*
X85980330Y-102930330D03*
D19*
G36*
X85541924Y-102916188D02*
X85966188Y-102491924D01*
X86418736Y-102944472D01*
X85994472Y-103368736D01*
X85541924Y-102916188D01*
X85541924Y-102916188D01*
G37*
D18*
X86380330Y-93819670D03*
D19*
G36*
X86394472Y-93381264D02*
X86818736Y-93805528D01*
X86366188Y-94258076D01*
X85941924Y-93833812D01*
X86394472Y-93381264D01*
X86394472Y-93381264D01*
G37*
D18*
X85319670Y-94880330D03*
D19*
G36*
X85333812Y-94441924D02*
X85758076Y-94866188D01*
X85305528Y-95318736D01*
X84881264Y-94894472D01*
X85333812Y-94441924D01*
X85333812Y-94441924D01*
G37*
D18*
X95719670Y-90369670D03*
D19*
G36*
X96158076Y-90383812D02*
X95733812Y-90808076D01*
X95281264Y-90355528D01*
X95705528Y-89931264D01*
X96158076Y-90383812D01*
X96158076Y-90383812D01*
G37*
D18*
X96780330Y-91430330D03*
D19*
G36*
X97218736Y-91444472D02*
X96794472Y-91868736D01*
X96341924Y-91416188D01*
X96766188Y-90991924D01*
X97218736Y-91444472D01*
X97218736Y-91444472D01*
G37*
D20*
X92900000Y-89850000D03*
X92900000Y-91350000D03*
D18*
X92819670Y-107469670D03*
D19*
G36*
X93258076Y-107483812D02*
X92833812Y-107908076D01*
X92381264Y-107455528D01*
X92805528Y-107031264D01*
X93258076Y-107483812D01*
X93258076Y-107483812D01*
G37*
D18*
X93880330Y-108530330D03*
D19*
G36*
X94318736Y-108544472D02*
X93894472Y-108968736D01*
X93441924Y-108516188D01*
X93866188Y-108091924D01*
X94318736Y-108544472D01*
X94318736Y-108544472D01*
G37*
D18*
X103130330Y-99719670D03*
D19*
G36*
X103144472Y-99281264D02*
X103568736Y-99705528D01*
X103116188Y-100158076D01*
X102691924Y-99733812D01*
X103144472Y-99281264D01*
X103144472Y-99281264D01*
G37*
D18*
X102069670Y-100780330D03*
D19*
G36*
X102083812Y-100341924D02*
X102508076Y-100766188D01*
X102055528Y-101218736D01*
X101631264Y-100794472D01*
X102083812Y-100341924D01*
X102083812Y-100341924D01*
G37*
D21*
X98157107Y-90357107D03*
D19*
G36*
X98793503Y-90286396D02*
X98086396Y-90993503D01*
X97520711Y-90427818D01*
X98227818Y-89720711D01*
X98793503Y-90286396D01*
X98793503Y-90286396D01*
G37*
D21*
X96742893Y-88942893D03*
D19*
G36*
X97379289Y-88872182D02*
X96672182Y-89579289D01*
X96106497Y-89013604D01*
X96813604Y-88306497D01*
X97379289Y-88872182D01*
X97379289Y-88872182D01*
G37*
D22*
X59424999Y-118110000D03*
X59424999Y-120110000D03*
D23*
X65250000Y-120750000D03*
X66750000Y-120750000D03*
D22*
X73000000Y-84000000D03*
X73000000Y-86000000D03*
X73000000Y-90000000D03*
X73000000Y-88000000D03*
D21*
X91257107Y-108192893D03*
D19*
G36*
X91186396Y-107556497D02*
X91893503Y-108263604D01*
X91327818Y-108829289D01*
X90620711Y-108122182D01*
X91186396Y-107556497D01*
X91186396Y-107556497D01*
G37*
D21*
X89842893Y-109607107D03*
D19*
G36*
X89772182Y-108970711D02*
X90479289Y-109677818D01*
X89913604Y-110243503D01*
X89206497Y-109536396D01*
X89772182Y-108970711D01*
X89772182Y-108970711D01*
G37*
D21*
X102042893Y-103157107D03*
D19*
G36*
X102113604Y-103793503D02*
X101406497Y-103086396D01*
X101972182Y-102520711D01*
X102679289Y-103227818D01*
X102113604Y-103793503D01*
X102113604Y-103793503D01*
G37*
D21*
X103457107Y-101742893D03*
D19*
G36*
X103527818Y-102379289D02*
X102820711Y-101672182D01*
X103386396Y-101106497D01*
X104093503Y-101813604D01*
X103527818Y-102379289D01*
X103527818Y-102379289D01*
G37*
D20*
X107300000Y-92250000D03*
X107300000Y-93750000D03*
D18*
X88830330Y-88419670D03*
D19*
G36*
X88816188Y-88858076D02*
X88391924Y-88433812D01*
X88844472Y-87981264D01*
X89268736Y-88405528D01*
X88816188Y-88858076D01*
X88816188Y-88858076D01*
G37*
D18*
X87769670Y-89480330D03*
D19*
G36*
X87755528Y-89918736D02*
X87331264Y-89494472D01*
X87783812Y-89041924D01*
X88208076Y-89466188D01*
X87755528Y-89918736D01*
X87755528Y-89918736D01*
G37*
D18*
X86730330Y-90519670D03*
D19*
G36*
X86744472Y-90081264D02*
X87168736Y-90505528D01*
X86716188Y-90958076D01*
X86291924Y-90533812D01*
X86744472Y-90081264D01*
X86744472Y-90081264D01*
G37*
D18*
X85669670Y-91580330D03*
D19*
G36*
X85683812Y-91141924D02*
X86108076Y-91566188D01*
X85655528Y-92018736D01*
X85231264Y-91594472D01*
X85683812Y-91141924D01*
X85683812Y-91141924D01*
G37*
D20*
X67300000Y-105350000D03*
X67300000Y-106850000D03*
D18*
X70280330Y-105780330D03*
D19*
G36*
X69841924Y-105766188D02*
X70266188Y-105341924D01*
X70718736Y-105794472D01*
X70294472Y-106218736D01*
X69841924Y-105766188D01*
X69841924Y-105766188D01*
G37*
D18*
X69219670Y-104719670D03*
D19*
G36*
X68781264Y-104705528D02*
X69205528Y-104281264D01*
X69658076Y-104733812D01*
X69233812Y-105158076D01*
X68781264Y-104705528D01*
X68781264Y-104705528D01*
G37*
D20*
X62750000Y-101150000D03*
X62750000Y-102650000D03*
D22*
X61150000Y-102200000D03*
X61150000Y-104200000D03*
D23*
X70950000Y-103450000D03*
X72450000Y-103450000D03*
D22*
X62000000Y-94100000D03*
X62000000Y-92100000D03*
D23*
X63550000Y-108500000D03*
X65050000Y-108500000D03*
X66550000Y-108500000D03*
X68050000Y-108500000D03*
X96900000Y-112300000D03*
X98400000Y-112300000D03*
D15*
X74250000Y-103200000D03*
X76250000Y-103200000D03*
X74000000Y-105500000D03*
X72000000Y-105500000D03*
D24*
X124048002Y-98440000D03*
X126748002Y-98440000D03*
X126748001Y-107740001D03*
X124048001Y-107740001D03*
X126848000Y-94940000D03*
X124148000Y-94940000D03*
X124048000Y-104740000D03*
X126748000Y-104740000D03*
X124148000Y-91939999D03*
X126848000Y-91939999D03*
X126648000Y-101540000D03*
X123948000Y-101540000D03*
X72665000Y-120905000D03*
X69965000Y-120905000D03*
D20*
X58550000Y-104850000D03*
X58550000Y-103350000D03*
X70250000Y-124900000D03*
X70250000Y-126400000D03*
D25*
X128935500Y-94365000D03*
X129860500Y-94365000D03*
X129860500Y-96115000D03*
X128935500Y-96115000D03*
X129335500Y-105615000D03*
X130260500Y-105615000D03*
X130260500Y-103865000D03*
X129335500Y-103865000D03*
D26*
X66987040Y-126500740D03*
X61012960Y-126500740D03*
D27*
X64962660Y-128448920D03*
X63037340Y-128448920D03*
D28*
X65300480Y-125375520D03*
X64650240Y-125375520D03*
X64000000Y-125375520D03*
X63349760Y-125375520D03*
X62699520Y-125375520D03*
D29*
X55624480Y-98699520D03*
X55624480Y-99349760D03*
X55624480Y-100000000D03*
X55624480Y-100650240D03*
X55624480Y-101300480D03*
D30*
X52551080Y-99037340D03*
X52551080Y-100962660D03*
D31*
X54499260Y-97012960D03*
X54499260Y-102987040D03*
D32*
X93099320Y-114139740D03*
X94199140Y-114139740D03*
X95298960Y-114139740D03*
X96398780Y-114139740D03*
X97501140Y-114139740D03*
X98600960Y-114139740D03*
X99700780Y-114139740D03*
X100800600Y-114139740D03*
D33*
X102210300Y-114050840D03*
D34*
X89550940Y-114050840D03*
D35*
X102748780Y-128899680D03*
X89251220Y-128899680D03*
D36*
X102855460Y-115699300D03*
D37*
X102855460Y-123100860D03*
D38*
X61550000Y-77850000D03*
X59650000Y-77850000D03*
X104100000Y-109700000D03*
X102200000Y-109700000D03*
X102700000Y-94300000D03*
X104600000Y-94300000D03*
X102850000Y-90600000D03*
X100950000Y-90600000D03*
D39*
X116350000Y-107550000D03*
X116350000Y-105650000D03*
X73100000Y-92050000D03*
X73100000Y-93950000D03*
X71000000Y-93950000D03*
X71000000Y-92050000D03*
X68900000Y-92050000D03*
X68900000Y-93950000D03*
X64000000Y-93950000D03*
X64000000Y-92050000D03*
D38*
X84800000Y-124450000D03*
X82900000Y-124450000D03*
D39*
X130450000Y-84800000D03*
X130450000Y-82900000D03*
X81200000Y-109150000D03*
X81200000Y-111050000D03*
X64300000Y-103850000D03*
X64300000Y-105750000D03*
D38*
X102050000Y-92450000D03*
X103950000Y-92450000D03*
X121348000Y-98440000D03*
X119448000Y-98440000D03*
X119548000Y-108140000D03*
X121448000Y-108140000D03*
X121348000Y-95040000D03*
X119448000Y-95040000D03*
X121448000Y-104840000D03*
X119548000Y-104840000D03*
X119447999Y-91740000D03*
X121347999Y-91740000D03*
X119448000Y-101540000D03*
X121348000Y-101540000D03*
X72315000Y-118355000D03*
X70415000Y-118355000D03*
X71600000Y-108050000D03*
X69700000Y-108050000D03*
D40*
X81750000Y-129350000D03*
X81750000Y-127050000D03*
X74250000Y-129350000D03*
X74250000Y-127050000D03*
D41*
X75750000Y-126050000D03*
X78750000Y-126050000D03*
X80250000Y-126050000D03*
D42*
X91850297Y-92298354D03*
D19*
G36*
X91489650Y-91796896D02*
X92351755Y-92659001D01*
X92210944Y-92799812D01*
X91348839Y-91937707D01*
X91489650Y-91796896D01*
X91489650Y-91796896D01*
G37*
D42*
X91496475Y-92652176D03*
D43*
X91857122Y-93012823D02*
X91135828Y-92291529D01*
D42*
X91142653Y-93005998D03*
D43*
X91503300Y-93366645D02*
X90782006Y-92645351D01*
D42*
X90788831Y-93359820D03*
D43*
X91149478Y-93720467D02*
X90428184Y-92999173D01*
D42*
X90435009Y-93713642D03*
D43*
X90795656Y-94074289D02*
X90074362Y-93352995D01*
D42*
X90082983Y-94065668D03*
D43*
X90443630Y-94426315D02*
X89722336Y-93705021D01*
D42*
X89729161Y-94419491D03*
D43*
X90089808Y-94780138D02*
X89368514Y-94058844D01*
D42*
X89375339Y-94773313D03*
D43*
X89735986Y-95133960D02*
X89014692Y-94412666D01*
D42*
X89021517Y-95127135D03*
D43*
X89382164Y-95487782D02*
X88660870Y-94766488D01*
D42*
X88667694Y-95480957D03*
D43*
X89028341Y-95841604D02*
X88307047Y-95120310D01*
D42*
X88313872Y-95834779D03*
D43*
X88674519Y-96195426D02*
X87953225Y-95474132D01*
D42*
X87961846Y-96186805D03*
D43*
X88322493Y-96547452D02*
X87601199Y-95826158D01*
D42*
X87608024Y-96540627D03*
D43*
X87968671Y-96901274D02*
X87247377Y-96179980D01*
D42*
X87254202Y-96894449D03*
D43*
X87614849Y-97255096D02*
X86893555Y-96533802D01*
D42*
X86900380Y-97248271D03*
D43*
X87261027Y-97608918D02*
X86539733Y-96887624D01*
D42*
X86546558Y-97602093D03*
D43*
X86907205Y-97962740D02*
X86185911Y-97241446D01*
D42*
X86433407Y-100714650D03*
D43*
X86794054Y-100354003D02*
X86072760Y-101075297D01*
D42*
X86787229Y-101068472D03*
D43*
X87147876Y-100707825D02*
X86426582Y-101429119D01*
D42*
X87141051Y-101422294D03*
D43*
X87501698Y-101061647D02*
X86780404Y-101782941D01*
D42*
X87494873Y-101776116D03*
D43*
X87855520Y-101415469D02*
X87134226Y-102136763D01*
D42*
X87848695Y-102129938D03*
D43*
X88209342Y-101769291D02*
X87488048Y-102490585D01*
D42*
X88200721Y-102481964D03*
D43*
X88561368Y-102121317D02*
X87840074Y-102842611D01*
D42*
X88554543Y-102835787D03*
D43*
X88915190Y-102475140D02*
X88193896Y-103196434D01*
D42*
X88908365Y-103189609D03*
D43*
X89269012Y-102828962D02*
X88547718Y-103550256D01*
D42*
X89262187Y-103543431D03*
D43*
X89622834Y-103182784D02*
X88901540Y-103904078D01*
D42*
X89616010Y-103897253D03*
D43*
X89976657Y-103536606D02*
X89255363Y-104257900D01*
D42*
X89969832Y-104251075D03*
D43*
X90330479Y-103890428D02*
X89609185Y-104611722D01*
D42*
X90321858Y-104603101D03*
D43*
X90682505Y-104242454D02*
X89961211Y-104963748D01*
D42*
X90675680Y-104956923D03*
D43*
X91036327Y-104596276D02*
X90315033Y-105317570D01*
D42*
X91029502Y-105310745D03*
D43*
X91390149Y-104950098D02*
X90668855Y-105671392D01*
D42*
X91383324Y-105664567D03*
D43*
X91743971Y-105303920D02*
X91022677Y-106025214D01*
D42*
X91737146Y-106018389D03*
D43*
X92097793Y-105657742D02*
X91376499Y-106379036D01*
D42*
X94962854Y-106018389D03*
D43*
X95323501Y-106379036D02*
X94602207Y-105657742D01*
D42*
X95316676Y-105664567D03*
D43*
X95677323Y-106025214D02*
X94956029Y-105303920D01*
D42*
X95670498Y-105310745D03*
D43*
X96031145Y-105671392D02*
X95309851Y-104950098D01*
D42*
X96024320Y-104956923D03*
D43*
X96384967Y-105317570D02*
X95663673Y-104596276D01*
D42*
X96378142Y-104603101D03*
D43*
X96738789Y-104963748D02*
X96017495Y-104242454D01*
D42*
X96730168Y-104251075D03*
D43*
X97090815Y-104611722D02*
X96369521Y-103890428D01*
D42*
X97083990Y-103897253D03*
D43*
X97444637Y-104257900D02*
X96723343Y-103536606D01*
D42*
X97437813Y-103543431D03*
D43*
X97798460Y-103904078D02*
X97077166Y-103182784D01*
D42*
X97791635Y-103189609D03*
D43*
X98152282Y-103550256D02*
X97430988Y-102828962D01*
D42*
X98145457Y-102835787D03*
D43*
X98506104Y-103196434D02*
X97784810Y-102475140D01*
D42*
X98499279Y-102481964D03*
D43*
X98859926Y-102842611D02*
X98138632Y-102121317D01*
D42*
X98851305Y-102129938D03*
D43*
X99211952Y-102490585D02*
X98490658Y-101769291D01*
D42*
X99205127Y-101776116D03*
D43*
X99565774Y-102136763D02*
X98844480Y-101415469D01*
D42*
X99558949Y-101422294D03*
D43*
X99919596Y-101782941D02*
X99198302Y-101061647D01*
D42*
X99912771Y-101068472D03*
D43*
X100273418Y-101429119D02*
X99552124Y-100707825D01*
D42*
X100266593Y-100714650D03*
D43*
X100627240Y-101075297D02*
X99905946Y-100354003D01*
D42*
X100153442Y-97602093D03*
D43*
X100514089Y-97241446D02*
X99792795Y-97962740D01*
D42*
X99799620Y-97248271D03*
D43*
X100160267Y-96887624D02*
X99438973Y-97608918D01*
D42*
X99091976Y-96540627D03*
D43*
X99452623Y-96179980D02*
X98731329Y-96901274D01*
D42*
X99458370Y-96881877D03*
D43*
X99819017Y-96521230D02*
X99097723Y-97242524D01*
D42*
X98738154Y-96186805D03*
D43*
X99098801Y-95826158D02*
X98377507Y-96547452D01*
D42*
X98386128Y-95834779D03*
D43*
X98746775Y-95474132D02*
X98025481Y-96195426D01*
D42*
X98032306Y-95480957D03*
D43*
X98392953Y-95120310D02*
X97671659Y-95841604D01*
D42*
X97678483Y-95127135D03*
D43*
X98039130Y-94766488D02*
X97317836Y-95487782D01*
D42*
X97324661Y-94773313D03*
D43*
X97685308Y-94412666D02*
X96964014Y-95133960D01*
D42*
X96970839Y-94419491D03*
D43*
X97331486Y-94058844D02*
X96610192Y-94780138D01*
D42*
X96622405Y-94071057D03*
D43*
X96983052Y-93710410D02*
X96261758Y-94431704D01*
D42*
X96268583Y-93717234D03*
D43*
X96629230Y-93356587D02*
X95907936Y-94077881D01*
D42*
X95914761Y-93363412D03*
D43*
X96275408Y-93002765D02*
X95554114Y-93724059D01*
D42*
X95560939Y-93009590D03*
D43*
X95921586Y-92648943D02*
X95200292Y-93370237D01*
D42*
X95208913Y-92657564D03*
D43*
X95569560Y-92296917D02*
X94848266Y-93018211D01*
D42*
X94855091Y-92303742D03*
D43*
X95215738Y-91943095D02*
X94494444Y-92664389D01*
D44*
X71220720Y-89286000D03*
X71220720Y-84714000D03*
D45*
X64779280Y-87000000D03*
D46*
X61325000Y-118660000D03*
X61325000Y-119610000D03*
X61325000Y-120560000D03*
X63525000Y-120560000D03*
X63525000Y-118660000D03*
D47*
X88174372Y-83275628D03*
D19*
G36*
X88598959Y-86019276D02*
X85430724Y-82851041D01*
X87749785Y-80531980D01*
X90918020Y-83700215D01*
X88598959Y-86019276D01*
X88598959Y-86019276D01*
G37*
D47*
X80325628Y-91124372D03*
D19*
G36*
X80750215Y-93868020D02*
X77581980Y-90699785D01*
X79901041Y-88380724D01*
X83069276Y-91548959D01*
X80750215Y-93868020D01*
X80750215Y-93868020D01*
G37*
M02*
