G04 #@! TF.GenerationSoftware,KiCad,Pcbnew,(2017-08-04 revision 7bf9f8e1c)-master*
G04 #@! TF.CreationDate,2018-06-13T20:52:22+02:00*
G04 #@! TF.ProjectId,pcb-f2-a,7063622D66322D612E6B696361645F70,rev?*
G04 #@! TF.SameCoordinates,Original*
G04 #@! TF.FileFunction,Legend,Bot*
G04 #@! TF.FilePolarity,Positive*
%FSLAX46Y46*%
G04 Gerber Fmt 4.6, Leading zero omitted, Abs format (unit mm)*
G04 Created by KiCad (PCBNEW (2017-08-04 revision 7bf9f8e1c)-master) date Wed Jun 13 20:52:22 2018*
%MOMM*%
%LPD*%
G01*
G04 APERTURE LIST*
%ADD10C,0.400000*%
G04 APERTURE END LIST*
D10*
X129244761Y-82180952D02*
X129244761Y-84204761D01*
X129125714Y-84442857D01*
X129006666Y-84561904D01*
X128768571Y-84680952D01*
X128292380Y-84680952D01*
X128054285Y-84561904D01*
X127935238Y-84442857D01*
X127816190Y-84204761D01*
X127816190Y-82180952D01*
X126744761Y-84561904D02*
X126387619Y-84680952D01*
X125792380Y-84680952D01*
X125554285Y-84561904D01*
X125435238Y-84442857D01*
X125316190Y-84204761D01*
X125316190Y-83966666D01*
X125435238Y-83728571D01*
X125554285Y-83609523D01*
X125792380Y-83490476D01*
X126268571Y-83371428D01*
X126506666Y-83252380D01*
X126625714Y-83133333D01*
X126744761Y-82895238D01*
X126744761Y-82657142D01*
X126625714Y-82419047D01*
X126506666Y-82300000D01*
X126268571Y-82180952D01*
X125673333Y-82180952D01*
X125316190Y-82300000D01*
X123411428Y-83371428D02*
X123054285Y-83490476D01*
X122935238Y-83609523D01*
X122816190Y-83847619D01*
X122816190Y-84204761D01*
X122935238Y-84442857D01*
X123054285Y-84561904D01*
X123292380Y-84680952D01*
X124244761Y-84680952D01*
X124244761Y-82180952D01*
X123411428Y-82180952D01*
X123173333Y-82300000D01*
X123054285Y-82419047D01*
X122935238Y-82657142D01*
X122935238Y-82895238D01*
X123054285Y-83133333D01*
X123173333Y-83252380D01*
X123411428Y-83371428D01*
X124244761Y-83371428D01*
X119840000Y-84680952D02*
X119840000Y-82180952D01*
X118768571Y-84680952D02*
X118768571Y-83371428D01*
X118887619Y-83133333D01*
X119125714Y-83014285D01*
X119482857Y-83014285D01*
X119720952Y-83133333D01*
X119840000Y-83252380D01*
X117578095Y-84680952D02*
X117578095Y-83014285D01*
X117578095Y-82180952D02*
X117697142Y-82300000D01*
X117578095Y-82419047D01*
X117459047Y-82300000D01*
X117578095Y-82180952D01*
X117578095Y-82419047D01*
X115316190Y-83014285D02*
X115316190Y-85038095D01*
X115435238Y-85276190D01*
X115554285Y-85395238D01*
X115792380Y-85514285D01*
X116149523Y-85514285D01*
X116387619Y-85395238D01*
X115316190Y-84561904D02*
X115554285Y-84680952D01*
X116030476Y-84680952D01*
X116268571Y-84561904D01*
X116387619Y-84442857D01*
X116506666Y-84204761D01*
X116506666Y-83490476D01*
X116387619Y-83252380D01*
X116268571Y-83133333D01*
X116030476Y-83014285D01*
X115554285Y-83014285D01*
X115316190Y-83133333D01*
X114125714Y-84680952D02*
X114125714Y-82180952D01*
X113054285Y-84680952D02*
X113054285Y-83371428D01*
X113173333Y-83133333D01*
X113411428Y-83014285D01*
X113768571Y-83014285D01*
X114006666Y-83133333D01*
X114125714Y-83252380D01*
X111863809Y-83728571D02*
X109959047Y-83728571D01*
X108887619Y-84561904D02*
X108649523Y-84680952D01*
X108173333Y-84680952D01*
X107935238Y-84561904D01*
X107816190Y-84323809D01*
X107816190Y-84204761D01*
X107935238Y-83966666D01*
X108173333Y-83847619D01*
X108530476Y-83847619D01*
X108768571Y-83728571D01*
X108887619Y-83490476D01*
X108887619Y-83371428D01*
X108768571Y-83133333D01*
X108530476Y-83014285D01*
X108173333Y-83014285D01*
X107935238Y-83133333D01*
X106744761Y-83014285D02*
X106744761Y-85514285D01*
X106744761Y-83133333D02*
X106506666Y-83014285D01*
X106030476Y-83014285D01*
X105792380Y-83133333D01*
X105673333Y-83252380D01*
X105554285Y-83490476D01*
X105554285Y-84204761D01*
X105673333Y-84442857D01*
X105792380Y-84561904D01*
X106030476Y-84680952D01*
X106506666Y-84680952D01*
X106744761Y-84561904D01*
X103530476Y-84561904D02*
X103768571Y-84680952D01*
X104244761Y-84680952D01*
X104482857Y-84561904D01*
X104601904Y-84323809D01*
X104601904Y-83371428D01*
X104482857Y-83133333D01*
X104244761Y-83014285D01*
X103768571Y-83014285D01*
X103530476Y-83133333D01*
X103411428Y-83371428D01*
X103411428Y-83609523D01*
X104601904Y-83847619D01*
X101387619Y-84561904D02*
X101625714Y-84680952D01*
X102101904Y-84680952D01*
X102340000Y-84561904D01*
X102459047Y-84323809D01*
X102459047Y-83371428D01*
X102340000Y-83133333D01*
X102101904Y-83014285D01*
X101625714Y-83014285D01*
X101387619Y-83133333D01*
X101268571Y-83371428D01*
X101268571Y-83609523D01*
X102459047Y-83847619D01*
X99125714Y-84680952D02*
X99125714Y-82180952D01*
X99125714Y-84561904D02*
X99363809Y-84680952D01*
X99840000Y-84680952D01*
X100078095Y-84561904D01*
X100197142Y-84442857D01*
X100316190Y-84204761D01*
X100316190Y-83490476D01*
X100197142Y-83252380D01*
X100078095Y-83133333D01*
X99840000Y-83014285D01*
X99363809Y-83014285D01*
X99125714Y-83133333D01*
X94244761Y-82061904D02*
X96387619Y-85276190D01*
X91506666Y-84680952D02*
X91506666Y-82180952D01*
X90435238Y-82419047D02*
X90316190Y-82300000D01*
X90078095Y-82180952D01*
X89482857Y-82180952D01*
X89244761Y-82300000D01*
X89125714Y-82419047D01*
X89006666Y-82657142D01*
X89006666Y-82895238D01*
X89125714Y-83252380D01*
X90554285Y-84680952D01*
X89006666Y-84680952D01*
X88054285Y-84561904D02*
X87697142Y-84680952D01*
X87101904Y-84680952D01*
X86863809Y-84561904D01*
X86744761Y-84442857D01*
X86625714Y-84204761D01*
X86625714Y-83966666D01*
X86744761Y-83728571D01*
X86863809Y-83609523D01*
X87101904Y-83490476D01*
X87578095Y-83371428D01*
X87816190Y-83252380D01*
X87935238Y-83133333D01*
X88054285Y-82895238D01*
X88054285Y-82657142D01*
X87935238Y-82419047D01*
X87816190Y-82300000D01*
X87578095Y-82180952D01*
X86982857Y-82180952D01*
X86625714Y-82300000D01*
X82578095Y-84680952D02*
X82578095Y-82180952D01*
X82578095Y-84561904D02*
X82816190Y-84680952D01*
X83292380Y-84680952D01*
X83530476Y-84561904D01*
X83649523Y-84442857D01*
X83768571Y-84204761D01*
X83768571Y-83490476D01*
X83649523Y-83252380D01*
X83530476Y-83133333D01*
X83292380Y-83014285D01*
X82816190Y-83014285D01*
X82578095Y-83133333D01*
X80435238Y-84561904D02*
X80673333Y-84680952D01*
X81149523Y-84680952D01*
X81387619Y-84561904D01*
X81506666Y-84323809D01*
X81506666Y-83371428D01*
X81387619Y-83133333D01*
X81149523Y-83014285D01*
X80673333Y-83014285D01*
X80435238Y-83133333D01*
X80316190Y-83371428D01*
X80316190Y-83609523D01*
X81506666Y-83847619D01*
X79482857Y-83014285D02*
X78887619Y-84680952D01*
X78292380Y-83014285D01*
X77340000Y-84680952D02*
X77340000Y-82180952D01*
X77340000Y-83133333D02*
X77101904Y-83014285D01*
X76625714Y-83014285D01*
X76387619Y-83133333D01*
X76268571Y-83252380D01*
X76149523Y-83490476D01*
X76149523Y-84204761D01*
X76268571Y-84442857D01*
X76387619Y-84561904D01*
X76625714Y-84680952D01*
X77101904Y-84680952D01*
X77340000Y-84561904D01*
X74720952Y-84680952D02*
X74959047Y-84561904D01*
X75078095Y-84442857D01*
X75197142Y-84204761D01*
X75197142Y-83490476D01*
X75078095Y-83252380D01*
X74959047Y-83133333D01*
X74720952Y-83014285D01*
X74363809Y-83014285D01*
X74125714Y-83133333D01*
X74006666Y-83252380D01*
X73887619Y-83490476D01*
X73887619Y-84204761D01*
X74006666Y-84442857D01*
X74125714Y-84561904D01*
X74363809Y-84680952D01*
X74720952Y-84680952D01*
X71744761Y-84680952D02*
X71744761Y-83371428D01*
X71863809Y-83133333D01*
X72101904Y-83014285D01*
X72578095Y-83014285D01*
X72816190Y-83133333D01*
X71744761Y-84561904D02*
X71982857Y-84680952D01*
X72578095Y-84680952D01*
X72816190Y-84561904D01*
X72935238Y-84323809D01*
X72935238Y-84085714D01*
X72816190Y-83847619D01*
X72578095Y-83728571D01*
X71982857Y-83728571D01*
X71744761Y-83609523D01*
X70554285Y-84680952D02*
X70554285Y-83014285D01*
X70554285Y-83490476D02*
X70435238Y-83252380D01*
X70316190Y-83133333D01*
X70078095Y-83014285D01*
X69840000Y-83014285D01*
X67935238Y-84680952D02*
X67935238Y-82180952D01*
X67935238Y-84561904D02*
X68173333Y-84680952D01*
X68649523Y-84680952D01*
X68887619Y-84561904D01*
X69006666Y-84442857D01*
X69125714Y-84204761D01*
X69125714Y-83490476D01*
X69006666Y-83252380D01*
X68887619Y-83133333D01*
X68649523Y-83014285D01*
X68173333Y-83014285D01*
X67935238Y-83133333D01*
X128054285Y-88830952D02*
X129244761Y-88830952D01*
X129244761Y-86330952D01*
X126149523Y-88830952D02*
X126149523Y-87521428D01*
X126268571Y-87283333D01*
X126506666Y-87164285D01*
X126982857Y-87164285D01*
X127220952Y-87283333D01*
X126149523Y-88711904D02*
X126387619Y-88830952D01*
X126982857Y-88830952D01*
X127220952Y-88711904D01*
X127340000Y-88473809D01*
X127340000Y-88235714D01*
X127220952Y-87997619D01*
X126982857Y-87878571D01*
X126387619Y-87878571D01*
X126149523Y-87759523D01*
X124959047Y-88830952D02*
X124959047Y-86330952D01*
X124959047Y-87283333D02*
X124720952Y-87164285D01*
X124244761Y-87164285D01*
X124006666Y-87283333D01*
X123887619Y-87402380D01*
X123768571Y-87640476D01*
X123768571Y-88354761D01*
X123887619Y-88592857D01*
X124006666Y-88711904D01*
X124244761Y-88830952D01*
X124720952Y-88830952D01*
X124959047Y-88711904D01*
X122697142Y-88830952D02*
X122697142Y-87164285D01*
X122697142Y-86330952D02*
X122816190Y-86450000D01*
X122697142Y-86569047D01*
X122578095Y-86450000D01*
X122697142Y-86330952D01*
X122697142Y-86569047D01*
X121863809Y-87164285D02*
X120911428Y-87164285D01*
X121506666Y-86330952D02*
X121506666Y-88473809D01*
X121387619Y-88711904D01*
X121149523Y-88830952D01*
X120911428Y-88830952D01*
X119006666Y-88830952D02*
X119006666Y-87521428D01*
X119125714Y-87283333D01*
X119363809Y-87164285D01*
X119840000Y-87164285D01*
X120078095Y-87283333D01*
X119006666Y-88711904D02*
X119244761Y-88830952D01*
X119840000Y-88830952D01*
X120078095Y-88711904D01*
X120197142Y-88473809D01*
X120197142Y-88235714D01*
X120078095Y-87997619D01*
X119840000Y-87878571D01*
X119244761Y-87878571D01*
X119006666Y-87759523D01*
X118173333Y-87164285D02*
X117220952Y-87164285D01*
X117816190Y-86330952D02*
X117816190Y-88473809D01*
X117697142Y-88711904D01*
X117459047Y-88830952D01*
X117220952Y-88830952D01*
X112697142Y-86211904D02*
X114840000Y-89426190D01*
X109959047Y-88830952D02*
X109959047Y-86330952D01*
X109720952Y-87878571D02*
X109006666Y-88830952D01*
X109006666Y-87164285D02*
X109959047Y-88116666D01*
X107935238Y-87164285D02*
X107935238Y-88830952D01*
X107935238Y-87402380D02*
X107816190Y-87283333D01*
X107578095Y-87164285D01*
X107220952Y-87164285D01*
X106982857Y-87283333D01*
X106863809Y-87521428D01*
X106863809Y-88830952D01*
X105673333Y-88830952D02*
X105673333Y-87164285D01*
X105673333Y-86330952D02*
X105792380Y-86450000D01*
X105673333Y-86569047D01*
X105554285Y-86450000D01*
X105673333Y-86330952D01*
X105673333Y-86569047D01*
X103530476Y-88711904D02*
X103768571Y-88830952D01*
X104244761Y-88830952D01*
X104482857Y-88711904D01*
X104601904Y-88473809D01*
X104601904Y-87521428D01*
X104482857Y-87283333D01*
X104244761Y-87164285D01*
X103768571Y-87164285D01*
X103530476Y-87283333D01*
X103411428Y-87521428D01*
X103411428Y-87759523D01*
X104601904Y-87997619D01*
X101982857Y-88830952D02*
X102220952Y-88711904D01*
X102340000Y-88473809D01*
X102340000Y-86330952D01*
X101149523Y-88711904D02*
X100911428Y-88830952D01*
X100435238Y-88830952D01*
X100197142Y-88711904D01*
X100078095Y-88473809D01*
X100078095Y-88354761D01*
X100197142Y-88116666D01*
X100435238Y-87997619D01*
X100792380Y-87997619D01*
X101030476Y-87878571D01*
X101149523Y-87640476D01*
X101149523Y-87521428D01*
X101030476Y-87283333D01*
X100792380Y-87164285D01*
X100435238Y-87164285D01*
X100197142Y-87283333D01*
X98054285Y-88711904D02*
X98292380Y-88830952D01*
X98768571Y-88830952D01*
X99006666Y-88711904D01*
X99125714Y-88473809D01*
X99125714Y-87521428D01*
X99006666Y-87283333D01*
X98768571Y-87164285D01*
X98292380Y-87164285D01*
X98054285Y-87283333D01*
X97935238Y-87521428D01*
X97935238Y-87759523D01*
X99125714Y-87997619D01*
X96863809Y-87164285D02*
X96863809Y-88830952D01*
X96863809Y-87402380D02*
X96744761Y-87283333D01*
X96506666Y-87164285D01*
X96149523Y-87164285D01*
X95911428Y-87283333D01*
X95792380Y-87521428D01*
X95792380Y-88830952D01*
X93054285Y-87640476D02*
X93173333Y-87521428D01*
X93411428Y-87402380D01*
X93649523Y-87402380D01*
X93887619Y-87521428D01*
X94006666Y-87640476D01*
X94125714Y-87878571D01*
X94125714Y-88116666D01*
X94006666Y-88354761D01*
X93887619Y-88473809D01*
X93649523Y-88592857D01*
X93411428Y-88592857D01*
X93173333Y-88473809D01*
X93054285Y-88354761D01*
X93054285Y-87402380D02*
X93054285Y-88354761D01*
X92935238Y-88473809D01*
X92816190Y-88473809D01*
X92578095Y-88354761D01*
X92459047Y-88116666D01*
X92459047Y-87521428D01*
X92697142Y-87164285D01*
X93054285Y-86926190D01*
X93530476Y-86807142D01*
X94006666Y-86926190D01*
X94363809Y-87164285D01*
X94601904Y-87521428D01*
X94720952Y-87997619D01*
X94601904Y-88473809D01*
X94363809Y-88830952D01*
X94006666Y-89069047D01*
X93530476Y-89188095D01*
X93054285Y-89069047D01*
X92697142Y-88830952D01*
X91387619Y-88830952D02*
X91387619Y-86330952D01*
X91149523Y-87878571D02*
X90435238Y-88830952D01*
X90435238Y-87164285D02*
X91387619Y-88116666D01*
X89363809Y-87164285D02*
X89363809Y-88830952D01*
X89363809Y-87402380D02*
X89244761Y-87283333D01*
X89006666Y-87164285D01*
X88649523Y-87164285D01*
X88411428Y-87283333D01*
X88292380Y-87521428D01*
X88292380Y-88830952D01*
X87101904Y-88830952D02*
X87101904Y-87164285D01*
X87101904Y-86330952D02*
X87220952Y-86450000D01*
X87101904Y-86569047D01*
X86982857Y-86450000D01*
X87101904Y-86330952D01*
X87101904Y-86569047D01*
X84959047Y-88711904D02*
X85197142Y-88830952D01*
X85673333Y-88830952D01*
X85911428Y-88711904D01*
X86030476Y-88473809D01*
X86030476Y-87521428D01*
X85911428Y-87283333D01*
X85673333Y-87164285D01*
X85197142Y-87164285D01*
X84959047Y-87283333D01*
X84840000Y-87521428D01*
X84840000Y-87759523D01*
X86030476Y-87997619D01*
X83411428Y-88830952D02*
X83649523Y-88711904D01*
X83768571Y-88473809D01*
X83768571Y-86330952D01*
X82578095Y-88711904D02*
X82340000Y-88830952D01*
X81863809Y-88830952D01*
X81625714Y-88711904D01*
X81506666Y-88473809D01*
X81506666Y-88354761D01*
X81625714Y-88116666D01*
X81863809Y-87997619D01*
X82220952Y-87997619D01*
X82459047Y-87878571D01*
X82578095Y-87640476D01*
X82578095Y-87521428D01*
X82459047Y-87283333D01*
X82220952Y-87164285D01*
X81863809Y-87164285D01*
X81625714Y-87283333D01*
X79482857Y-88711904D02*
X79720952Y-88830952D01*
X80197142Y-88830952D01*
X80435238Y-88711904D01*
X80554285Y-88473809D01*
X80554285Y-87521428D01*
X80435238Y-87283333D01*
X80197142Y-87164285D01*
X79720952Y-87164285D01*
X79482857Y-87283333D01*
X79363809Y-87521428D01*
X79363809Y-87759523D01*
X80554285Y-87997619D01*
X78292380Y-87164285D02*
X78292380Y-88830952D01*
X78292380Y-87402380D02*
X78173333Y-87283333D01*
X77935238Y-87164285D01*
X77578095Y-87164285D01*
X77340000Y-87283333D01*
X77220952Y-87521428D01*
X77220952Y-88830952D01*
X76030476Y-87878571D02*
X74125714Y-87878571D01*
X72935238Y-88830952D02*
X72935238Y-86330952D01*
X71863809Y-88830952D02*
X71863809Y-87521428D01*
X71982857Y-87283333D01*
X72220952Y-87164285D01*
X72578095Y-87164285D01*
X72816190Y-87283333D01*
X72935238Y-87402380D01*
X69601904Y-87164285D02*
X69601904Y-89664285D01*
X69601904Y-88711904D02*
X69840000Y-88830952D01*
X70316190Y-88830952D01*
X70554285Y-88711904D01*
X70673333Y-88592857D01*
X70792380Y-88354761D01*
X70792380Y-87640476D01*
X70673333Y-87402380D01*
X70554285Y-87283333D01*
X70316190Y-87164285D01*
X69840000Y-87164285D01*
X69601904Y-87283333D01*
X68411428Y-88592857D02*
X68292380Y-88711904D01*
X68411428Y-88830952D01*
X68530476Y-88711904D01*
X68411428Y-88592857D01*
X68411428Y-88830952D01*
X66863809Y-88830952D02*
X67101904Y-88711904D01*
X67220952Y-88592857D01*
X67340000Y-88354761D01*
X67340000Y-87640476D01*
X67220952Y-87402380D01*
X67101904Y-87283333D01*
X66863809Y-87164285D01*
X66506666Y-87164285D01*
X66268571Y-87283333D01*
X66149523Y-87402380D01*
X66030476Y-87640476D01*
X66030476Y-88354761D01*
X66149523Y-88592857D01*
X66268571Y-88711904D01*
X66506666Y-88830952D01*
X66863809Y-88830952D01*
X64959047Y-88830952D02*
X64959047Y-87164285D01*
X64959047Y-87640476D02*
X64840000Y-87402380D01*
X64720952Y-87283333D01*
X64482857Y-87164285D01*
X64244761Y-87164285D01*
X62340000Y-87164285D02*
X62340000Y-89188095D01*
X62459047Y-89426190D01*
X62578095Y-89545238D01*
X62816190Y-89664285D01*
X63173333Y-89664285D01*
X63411428Y-89545238D01*
X62340000Y-88711904D02*
X62578095Y-88830952D01*
X63054285Y-88830952D01*
X63292380Y-88711904D01*
X63411428Y-88592857D01*
X63530476Y-88354761D01*
X63530476Y-87640476D01*
X63411428Y-87402380D01*
X63292380Y-87283333D01*
X63054285Y-87164285D01*
X62578095Y-87164285D01*
X62340000Y-87283333D01*
X129244761Y-92980952D02*
X129244761Y-90480952D01*
X128173333Y-92980952D02*
X128173333Y-91671428D01*
X128292380Y-91433333D01*
X128530476Y-91314285D01*
X128887619Y-91314285D01*
X129125714Y-91433333D01*
X129244761Y-91552380D01*
X127340000Y-91314285D02*
X126387619Y-91314285D01*
X126982857Y-90480952D02*
X126982857Y-92623809D01*
X126863809Y-92861904D01*
X126625714Y-92980952D01*
X126387619Y-92980952D01*
X125911428Y-91314285D02*
X124959047Y-91314285D01*
X125554285Y-90480952D02*
X125554285Y-92623809D01*
X125435238Y-92861904D01*
X125197142Y-92980952D01*
X124959047Y-92980952D01*
X124125714Y-91314285D02*
X124125714Y-93814285D01*
X124125714Y-91433333D02*
X123887619Y-91314285D01*
X123411428Y-91314285D01*
X123173333Y-91433333D01*
X123054285Y-91552380D01*
X122935238Y-91790476D01*
X122935238Y-92504761D01*
X123054285Y-92742857D01*
X123173333Y-92861904D01*
X123411428Y-92980952D01*
X123887619Y-92980952D01*
X124125714Y-92861904D01*
X121982857Y-92861904D02*
X121744761Y-92980952D01*
X121268571Y-92980952D01*
X121030476Y-92861904D01*
X120911428Y-92623809D01*
X120911428Y-92504761D01*
X121030476Y-92266666D01*
X121268571Y-92147619D01*
X121625714Y-92147619D01*
X121863809Y-92028571D01*
X121982857Y-91790476D01*
X121982857Y-91671428D01*
X121863809Y-91433333D01*
X121625714Y-91314285D01*
X121268571Y-91314285D01*
X121030476Y-91433333D01*
X119840000Y-92742857D02*
X119720952Y-92861904D01*
X119840000Y-92980952D01*
X119959047Y-92861904D01*
X119840000Y-92742857D01*
X119840000Y-92980952D01*
X119840000Y-91433333D02*
X119720952Y-91552380D01*
X119840000Y-91671428D01*
X119959047Y-91552380D01*
X119840000Y-91433333D01*
X119840000Y-91671428D01*
X116863809Y-90361904D02*
X119006666Y-93576190D01*
X114244761Y-90361904D02*
X116387619Y-93576190D01*
X113411428Y-92980952D02*
X113411428Y-90480952D01*
X113173333Y-92028571D02*
X112459047Y-92980952D01*
X112459047Y-91314285D02*
X113411428Y-92266666D01*
X111387619Y-91314285D02*
X111387619Y-92980952D01*
X111387619Y-91552380D02*
X111268571Y-91433333D01*
X111030476Y-91314285D01*
X110673333Y-91314285D01*
X110435238Y-91433333D01*
X110316190Y-91671428D01*
X110316190Y-92980952D01*
X109125714Y-92980952D02*
X109125714Y-91314285D01*
X109125714Y-90480952D02*
X109244761Y-90600000D01*
X109125714Y-90719047D01*
X109006666Y-90600000D01*
X109125714Y-90480952D01*
X109125714Y-90719047D01*
X106982857Y-92861904D02*
X107220952Y-92980952D01*
X107697142Y-92980952D01*
X107935238Y-92861904D01*
X108054285Y-92623809D01*
X108054285Y-91671428D01*
X107935238Y-91433333D01*
X107697142Y-91314285D01*
X107220952Y-91314285D01*
X106982857Y-91433333D01*
X106863809Y-91671428D01*
X106863809Y-91909523D01*
X108054285Y-92147619D01*
X105435238Y-92980952D02*
X105673333Y-92861904D01*
X105792380Y-92623809D01*
X105792380Y-90480952D01*
X104601904Y-92861904D02*
X104363809Y-92980952D01*
X103887619Y-92980952D01*
X103649523Y-92861904D01*
X103530476Y-92623809D01*
X103530476Y-92504761D01*
X103649523Y-92266666D01*
X103887619Y-92147619D01*
X104244761Y-92147619D01*
X104482857Y-92028571D01*
X104601904Y-91790476D01*
X104601904Y-91671428D01*
X104482857Y-91433333D01*
X104244761Y-91314285D01*
X103887619Y-91314285D01*
X103649523Y-91433333D01*
X101506666Y-92861904D02*
X101744761Y-92980952D01*
X102220952Y-92980952D01*
X102459047Y-92861904D01*
X102578095Y-92623809D01*
X102578095Y-91671428D01*
X102459047Y-91433333D01*
X102220952Y-91314285D01*
X101744761Y-91314285D01*
X101506666Y-91433333D01*
X101387619Y-91671428D01*
X101387619Y-91909523D01*
X102578095Y-92147619D01*
X100316190Y-91314285D02*
X100316190Y-92980952D01*
X100316190Y-91552380D02*
X100197142Y-91433333D01*
X99959047Y-91314285D01*
X99601904Y-91314285D01*
X99363809Y-91433333D01*
X99244761Y-91671428D01*
X99244761Y-92980952D01*
X98054285Y-92028571D02*
X96149523Y-92028571D01*
X94959047Y-92980952D02*
X94959047Y-90480952D01*
X93887619Y-92980952D02*
X93887619Y-91671428D01*
X94006666Y-91433333D01*
X94244761Y-91314285D01*
X94601904Y-91314285D01*
X94840000Y-91433333D01*
X94959047Y-91552380D01*
X91625714Y-91314285D02*
X91625714Y-93814285D01*
X91625714Y-92861904D02*
X91863809Y-92980952D01*
X92340000Y-92980952D01*
X92578095Y-92861904D01*
X92697142Y-92742857D01*
X92816190Y-92504761D01*
X92816190Y-91790476D01*
X92697142Y-91552380D01*
X92578095Y-91433333D01*
X92340000Y-91314285D01*
X91863809Y-91314285D01*
X91625714Y-91433333D01*
X90435238Y-92742857D02*
X90316190Y-92861904D01*
X90435238Y-92980952D01*
X90554285Y-92861904D01*
X90435238Y-92742857D01*
X90435238Y-92980952D01*
X88887619Y-92980952D02*
X89125714Y-92861904D01*
X89244761Y-92742857D01*
X89363809Y-92504761D01*
X89363809Y-91790476D01*
X89244761Y-91552380D01*
X89125714Y-91433333D01*
X88887619Y-91314285D01*
X88530476Y-91314285D01*
X88292380Y-91433333D01*
X88173333Y-91552380D01*
X88054285Y-91790476D01*
X88054285Y-92504761D01*
X88173333Y-92742857D01*
X88292380Y-92861904D01*
X88530476Y-92980952D01*
X88887619Y-92980952D01*
X86982857Y-92980952D02*
X86982857Y-91314285D01*
X86982857Y-91790476D02*
X86863809Y-91552380D01*
X86744761Y-91433333D01*
X86506666Y-91314285D01*
X86268571Y-91314285D01*
X84363809Y-91314285D02*
X84363809Y-93338095D01*
X84482857Y-93576190D01*
X84601904Y-93695238D01*
X84840000Y-93814285D01*
X85197142Y-93814285D01*
X85435238Y-93695238D01*
X84363809Y-92861904D02*
X84601904Y-92980952D01*
X85078095Y-92980952D01*
X85316190Y-92861904D01*
X85435238Y-92742857D01*
X85554285Y-92504761D01*
X85554285Y-91790476D01*
X85435238Y-91552380D01*
X85316190Y-91433333D01*
X85078095Y-91314285D01*
X84601904Y-91314285D01*
X84363809Y-91433333D01*
X81387619Y-90361904D02*
X83530476Y-93576190D01*
X79482857Y-91314285D02*
X79482857Y-92980952D01*
X80554285Y-91314285D02*
X80554285Y-92623809D01*
X80435238Y-92861904D01*
X80197142Y-92980952D01*
X79840000Y-92980952D01*
X79601904Y-92861904D01*
X79482857Y-92742857D01*
X78411428Y-92861904D02*
X78173333Y-92980952D01*
X77697142Y-92980952D01*
X77459047Y-92861904D01*
X77340000Y-92623809D01*
X77340000Y-92504761D01*
X77459047Y-92266666D01*
X77697142Y-92147619D01*
X78054285Y-92147619D01*
X78292380Y-92028571D01*
X78411428Y-91790476D01*
X78411428Y-91671428D01*
X78292380Y-91433333D01*
X78054285Y-91314285D01*
X77697142Y-91314285D01*
X77459047Y-91433333D01*
X76268571Y-92980952D02*
X76268571Y-90480952D01*
X76268571Y-91433333D02*
X76030476Y-91314285D01*
X75554285Y-91314285D01*
X75316190Y-91433333D01*
X75197142Y-91552380D01*
X75078095Y-91790476D01*
X75078095Y-92504761D01*
X75197142Y-92742857D01*
X75316190Y-92861904D01*
X75554285Y-92980952D01*
X76030476Y-92980952D01*
X76268571Y-92861904D01*
X74006666Y-92028571D02*
X72101904Y-92028571D01*
X70911428Y-92980952D02*
X70911428Y-90480952D01*
X69840000Y-92980952D02*
X69840000Y-91671428D01*
X69959047Y-91433333D01*
X70197142Y-91314285D01*
X70554285Y-91314285D01*
X70792380Y-91433333D01*
X70911428Y-91552380D01*
X68768571Y-92861904D02*
X68530476Y-92980952D01*
X68054285Y-92980952D01*
X67816190Y-92861904D01*
X67697142Y-92623809D01*
X67697142Y-92504761D01*
X67816190Y-92266666D01*
X68054285Y-92147619D01*
X68411428Y-92147619D01*
X68649523Y-92028571D01*
X68768571Y-91790476D01*
X68768571Y-91671428D01*
X68649523Y-91433333D01*
X68411428Y-91314285D01*
X68054285Y-91314285D01*
X67816190Y-91433333D01*
X64840000Y-90361904D02*
X66982857Y-93576190D01*
M02*
