G04 #@! TF.GenerationSoftware,KiCad,Pcbnew,(2017-08-04 revision 7bf9f8e1c)-master*
G04 #@! TF.CreationDate,2018-06-13T20:52:22+02:00*
G04 #@! TF.ProjectId,pcb-f2-a,7063622D66322D612E6B696361645F70,rev?*
G04 #@! TF.SameCoordinates,Original*
G04 #@! TF.FileFunction,Copper,L1,Top,Signal*
G04 #@! TF.FilePolarity,Positive*
%FSLAX46Y46*%
G04 Gerber Fmt 4.6, Leading zero omitted, Abs format (unit mm)*
G04 Created by KiCad (PCBNEW (2017-08-04 revision 7bf9f8e1c)-master) date Wed Jun 13 20:52:22 2018*
%MOMM*%
%LPD*%
G01*
G04 APERTURE LIST*
%ADD10O,0.240000X0.440000*%
%ADD11O,0.440000X0.240000*%
%ADD12C,0.950000*%
%ADD13R,3.100000X3.100000*%
%ADD14R,0.240000X1.000000*%
%ADD15R,1.000000X0.240000*%
%ADD16R,1.000000X1.250000*%
%ADD17R,5.500000X2.000000*%
%ADD18R,1.399540X2.100580*%
%ADD19C,0.750000*%
%ADD20C,0.100000*%
%ADD21R,0.750000X0.800000*%
%ADD22C,1.000000*%
%ADD23R,1.250000X1.000000*%
%ADD24R,0.800000X0.750000*%
%ADD25R,1.500000X1.300000*%
%ADD26R,1.700000X1.700000*%
%ADD27O,1.700000X1.700000*%
%ADD28R,0.575000X1.050000*%
%ADD29R,1.300480X2.451100*%
%ADD30R,1.826260X0.701040*%
%ADD31R,1.998980X1.399540*%
%ADD32R,1.424940X2.499360*%
%ADD33R,0.398780X1.750060*%
%ADD34R,1.750060X0.398780*%
%ADD35R,2.499360X1.424940*%
%ADD36R,1.399540X1.998980*%
%ADD37R,2.451100X1.300480*%
%ADD38R,0.701040X1.826260*%
%ADD39R,0.800100X1.678940*%
%ADD40R,1.600200X1.501140*%
%ADD41R,1.699260X1.501140*%
%ADD42R,1.501140X1.699260*%
%ADD43R,1.290320X1.300480*%
%ADD44R,1.290320X1.399540*%
%ADD45R,0.700000X1.300000*%
%ADD46R,1.300000X0.700000*%
%ADD47R,1.200000X0.800000*%
%ADD48R,0.800000X1.600000*%
%ADD49C,0.248920*%
%ADD50C,0.248920*%
%ADD51R,1.699260X1.300480*%
%ADD52R,5.699760X5.499100*%
%ADD53R,1.060000X0.650000*%
%ADD54C,4.099560*%
%ADD55C,0.635000*%
%ADD56C,0.203200*%
%ADD57C,0.381000*%
%ADD58C,0.508000*%
%ADD59C,0.254000*%
%ADD60C,0.635000*%
%ADD61C,1.016000*%
%ADD62C,0.300000*%
%ADD63C,0.152400*%
%ADD64C,0.325000*%
G04 APERTURE END LIST*
D10*
X69687500Y-102382500D03*
X69187500Y-102382500D03*
X68687500Y-102382500D03*
X68187500Y-102382500D03*
X67687500Y-102382500D03*
X67187500Y-102382500D03*
X66687500Y-102382500D03*
D11*
X65692500Y-101887500D03*
X65692500Y-101387500D03*
X65692500Y-100887500D03*
X65692500Y-100387500D03*
X65692500Y-99887500D03*
X65692500Y-99387500D03*
X65692500Y-98887500D03*
D10*
X66187500Y-97892500D03*
X66687500Y-97892500D03*
X67187500Y-97892500D03*
X67687500Y-97892500D03*
X68187500Y-97892500D03*
X68687500Y-97892500D03*
X69187500Y-97892500D03*
D11*
X70182500Y-98387500D03*
X70182500Y-98887500D03*
X70182500Y-99387500D03*
X70182500Y-99887500D03*
X70182500Y-100387500D03*
X70182500Y-100887500D03*
X70182500Y-101387500D03*
D12*
X68837500Y-101037500D03*
X67937500Y-101037500D03*
X67037500Y-101037500D03*
X68837500Y-100137500D03*
X67937500Y-100137500D03*
X67037500Y-100137500D03*
X68837500Y-99237500D03*
X67937500Y-99237500D03*
D13*
X67937500Y-100137500D03*
D12*
X67037500Y-99237500D03*
D14*
X69687500Y-102782500D03*
X69187500Y-102782500D03*
X68687500Y-102782500D03*
X68187500Y-102782500D03*
X67687500Y-102782500D03*
X67187500Y-102782500D03*
X66687500Y-102782500D03*
D10*
X66187500Y-102382500D03*
D15*
X65292500Y-101887500D03*
X65292500Y-101387500D03*
X65292500Y-100887500D03*
X65292500Y-100387500D03*
X65292500Y-99887500D03*
X65292500Y-99387500D03*
X65292500Y-98887500D03*
D11*
X65692500Y-98387500D03*
D14*
X66187500Y-97492500D03*
X66687500Y-97492500D03*
X67187500Y-97492500D03*
X67687500Y-97492500D03*
X68187500Y-97492500D03*
X68687500Y-97492500D03*
X69187500Y-97492500D03*
D10*
X69687500Y-97892500D03*
D15*
X70582500Y-98387500D03*
X70582500Y-98887500D03*
X70582500Y-99387500D03*
X70582500Y-99887500D03*
X70582500Y-100387500D03*
X70582500Y-100887500D03*
X70582500Y-101387500D03*
D11*
X70182500Y-101887500D03*
D14*
X66187500Y-102782500D03*
D15*
X65292500Y-98387500D03*
D14*
X69687500Y-97492500D03*
D15*
X70582500Y-101887500D03*
D16*
X67250000Y-118650000D03*
X65250000Y-118650000D03*
D17*
X70550000Y-112200000D03*
X61050000Y-112200000D03*
D18*
X114050440Y-88400860D03*
X114050440Y-97499140D03*
X109549560Y-88400860D03*
X109549560Y-97499140D03*
X114050440Y-102350860D03*
X114050440Y-111449140D03*
X109549560Y-102350860D03*
X109549560Y-111449140D03*
D19*
X84919670Y-101869670D03*
D20*
G36*
X84371662Y-101851992D02*
X84901992Y-101321662D01*
X85467678Y-101887348D01*
X84937348Y-102417678D01*
X84371662Y-101851992D01*
X84371662Y-101851992D01*
G37*
D19*
X85980330Y-102930330D03*
D20*
G36*
X85432322Y-102912652D02*
X85962652Y-102382322D01*
X86528338Y-102948008D01*
X85998008Y-103478338D01*
X85432322Y-102912652D01*
X85432322Y-102912652D01*
G37*
D19*
X86380330Y-93819670D03*
D20*
G36*
X86398008Y-93271662D02*
X86928338Y-93801992D01*
X86362652Y-94367678D01*
X85832322Y-93837348D01*
X86398008Y-93271662D01*
X86398008Y-93271662D01*
G37*
D19*
X85319670Y-94880330D03*
D20*
G36*
X85337348Y-94332322D02*
X85867678Y-94862652D01*
X85301992Y-95428338D01*
X84771662Y-94898008D01*
X85337348Y-94332322D01*
X85337348Y-94332322D01*
G37*
D19*
X95719670Y-90369670D03*
D20*
G36*
X96267678Y-90387348D02*
X95737348Y-90917678D01*
X95171662Y-90351992D01*
X95701992Y-89821662D01*
X96267678Y-90387348D01*
X96267678Y-90387348D01*
G37*
D19*
X96780330Y-91430330D03*
D20*
G36*
X97328338Y-91448008D02*
X96798008Y-91978338D01*
X96232322Y-91412652D01*
X96762652Y-90882322D01*
X97328338Y-91448008D01*
X97328338Y-91448008D01*
G37*
D21*
X92900000Y-89850000D03*
X92900000Y-91350000D03*
D19*
X92819670Y-107469670D03*
D20*
G36*
X93367678Y-107487348D02*
X92837348Y-108017678D01*
X92271662Y-107451992D01*
X92801992Y-106921662D01*
X93367678Y-107487348D01*
X93367678Y-107487348D01*
G37*
D19*
X93880330Y-108530330D03*
D20*
G36*
X94428338Y-108548008D02*
X93898008Y-109078338D01*
X93332322Y-108512652D01*
X93862652Y-107982322D01*
X94428338Y-108548008D01*
X94428338Y-108548008D01*
G37*
D19*
X103130330Y-99719670D03*
D20*
G36*
X103148008Y-99171662D02*
X103678338Y-99701992D01*
X103112652Y-100267678D01*
X102582322Y-99737348D01*
X103148008Y-99171662D01*
X103148008Y-99171662D01*
G37*
D19*
X102069670Y-100780330D03*
D20*
G36*
X102087348Y-100232322D02*
X102617678Y-100762652D01*
X102051992Y-101328338D01*
X101521662Y-100798008D01*
X102087348Y-100232322D01*
X102087348Y-100232322D01*
G37*
D22*
X98157107Y-90357107D03*
D20*
G36*
X98952602Y-90268719D02*
X98068719Y-91152602D01*
X97361612Y-90445495D01*
X98245495Y-89561612D01*
X98952602Y-90268719D01*
X98952602Y-90268719D01*
G37*
D22*
X96742893Y-88942893D03*
D20*
G36*
X97538388Y-88854505D02*
X96654505Y-89738388D01*
X95947398Y-89031281D01*
X96831281Y-88147398D01*
X97538388Y-88854505D01*
X97538388Y-88854505D01*
G37*
D23*
X59424999Y-118110000D03*
X59424999Y-120110000D03*
D24*
X65250000Y-120750000D03*
X66750000Y-120750000D03*
D23*
X73000000Y-84000000D03*
X73000000Y-86000000D03*
X73000000Y-90000000D03*
X73000000Y-88000000D03*
D22*
X91257107Y-108192893D03*
D20*
G36*
X91168719Y-107397398D02*
X92052602Y-108281281D01*
X91345495Y-108988388D01*
X90461612Y-108104505D01*
X91168719Y-107397398D01*
X91168719Y-107397398D01*
G37*
D22*
X89842893Y-109607107D03*
D20*
G36*
X89754505Y-108811612D02*
X90638388Y-109695495D01*
X89931281Y-110402602D01*
X89047398Y-109518719D01*
X89754505Y-108811612D01*
X89754505Y-108811612D01*
G37*
D22*
X102042893Y-103157107D03*
D20*
G36*
X102131281Y-103952602D02*
X101247398Y-103068719D01*
X101954505Y-102361612D01*
X102838388Y-103245495D01*
X102131281Y-103952602D01*
X102131281Y-103952602D01*
G37*
D22*
X103457107Y-101742893D03*
D20*
G36*
X103545495Y-102538388D02*
X102661612Y-101654505D01*
X103368719Y-100947398D01*
X104252602Y-101831281D01*
X103545495Y-102538388D01*
X103545495Y-102538388D01*
G37*
D21*
X107300000Y-92250000D03*
X107300000Y-93750000D03*
D19*
X88830330Y-88419670D03*
D20*
G36*
X88812652Y-88967678D02*
X88282322Y-88437348D01*
X88848008Y-87871662D01*
X89378338Y-88401992D01*
X88812652Y-88967678D01*
X88812652Y-88967678D01*
G37*
D19*
X87769670Y-89480330D03*
D20*
G36*
X87751992Y-90028338D02*
X87221662Y-89498008D01*
X87787348Y-88932322D01*
X88317678Y-89462652D01*
X87751992Y-90028338D01*
X87751992Y-90028338D01*
G37*
D19*
X86730330Y-90519670D03*
D20*
G36*
X86748008Y-89971662D02*
X87278338Y-90501992D01*
X86712652Y-91067678D01*
X86182322Y-90537348D01*
X86748008Y-89971662D01*
X86748008Y-89971662D01*
G37*
D19*
X85669670Y-91580330D03*
D20*
G36*
X85687348Y-91032322D02*
X86217678Y-91562652D01*
X85651992Y-92128338D01*
X85121662Y-91598008D01*
X85687348Y-91032322D01*
X85687348Y-91032322D01*
G37*
D21*
X67300000Y-105350000D03*
X67300000Y-106850000D03*
D19*
X70280330Y-105780330D03*
D20*
G36*
X69732322Y-105762652D02*
X70262652Y-105232322D01*
X70828338Y-105798008D01*
X70298008Y-106328338D01*
X69732322Y-105762652D01*
X69732322Y-105762652D01*
G37*
D19*
X69219670Y-104719670D03*
D20*
G36*
X68671662Y-104701992D02*
X69201992Y-104171662D01*
X69767678Y-104737348D01*
X69237348Y-105267678D01*
X68671662Y-104701992D01*
X68671662Y-104701992D01*
G37*
D21*
X62750000Y-101150000D03*
X62750000Y-102650000D03*
D23*
X61150000Y-102200000D03*
X61150000Y-104200000D03*
D24*
X70950000Y-103450000D03*
X72450000Y-103450000D03*
D23*
X62000000Y-94100000D03*
X62000000Y-92100000D03*
D24*
X63550000Y-108500000D03*
X65050000Y-108500000D03*
X66550000Y-108500000D03*
X68050000Y-108500000D03*
X96900000Y-112300000D03*
X98400000Y-112300000D03*
D16*
X74250000Y-103200000D03*
X76250000Y-103200000D03*
X74000000Y-105500000D03*
X72000000Y-105500000D03*
D25*
X124048002Y-98440000D03*
X126748002Y-98440000D03*
X126748001Y-107740001D03*
X124048001Y-107740001D03*
X126848000Y-94940000D03*
X124148000Y-94940000D03*
X124048000Y-104740000D03*
X126748000Y-104740000D03*
X124148000Y-91939999D03*
X126848000Y-91939999D03*
X126648000Y-101540000D03*
X123948000Y-101540000D03*
X72665000Y-120905000D03*
X69965000Y-120905000D03*
D26*
X59360000Y-74600000D03*
D27*
X61900000Y-74600000D03*
X64440000Y-74600000D03*
X66980000Y-74600000D03*
D26*
X135560000Y-92380000D03*
D27*
X135560000Y-94920000D03*
X135560000Y-97460000D03*
X135560000Y-100000000D03*
X135560000Y-102540000D03*
X135560000Y-105080000D03*
X135560000Y-107620000D03*
D26*
X107620000Y-122860000D03*
D27*
X107620000Y-125400000D03*
X110160000Y-122860000D03*
X110160000Y-125400000D03*
X112700000Y-122860000D03*
X112700000Y-125400000D03*
X115240000Y-122860000D03*
X115240000Y-125400000D03*
X117780000Y-122860000D03*
X117780000Y-125400000D03*
X120320000Y-122860000D03*
X120320000Y-125400000D03*
X122860000Y-122860000D03*
X122860000Y-125400000D03*
X125400000Y-122860000D03*
X125400000Y-125400000D03*
X127940000Y-122860000D03*
X127940000Y-125400000D03*
X130480000Y-122860000D03*
X130480000Y-125400000D03*
X133020000Y-122860000D03*
X133020000Y-125400000D03*
X135560000Y-122860000D03*
X135560000Y-125400000D03*
X135560000Y-77140000D03*
X135560000Y-74600000D03*
X133020000Y-77140000D03*
X133020000Y-74600000D03*
X130480000Y-77140000D03*
X130480000Y-74600000D03*
X127940000Y-77140000D03*
X127940000Y-74600000D03*
X125400000Y-77140000D03*
X125400000Y-74600000D03*
X122860000Y-77140000D03*
X122860000Y-74600000D03*
X120320000Y-77140000D03*
X120320000Y-74600000D03*
X117780000Y-77140000D03*
X117780000Y-74600000D03*
X115240000Y-77140000D03*
X115240000Y-74600000D03*
X112700000Y-77140000D03*
X112700000Y-74600000D03*
X110160000Y-77140000D03*
X110160000Y-74600000D03*
X107620000Y-77140000D03*
D26*
X107620000Y-74600000D03*
D27*
X54280000Y-117780000D03*
X54280000Y-120320000D03*
D26*
X54280000Y-122860000D03*
D21*
X58550000Y-104850000D03*
X58550000Y-103350000D03*
X70250000Y-124900000D03*
X70250000Y-126400000D03*
D28*
X128935500Y-94365000D03*
X129860500Y-94365000D03*
X129860500Y-96115000D03*
X128935500Y-96115000D03*
X129335500Y-105615000D03*
X130260500Y-105615000D03*
X130260500Y-103865000D03*
X129335500Y-103865000D03*
D26*
X77140000Y-74600000D03*
D27*
X79680000Y-74600000D03*
X82220000Y-74600000D03*
X84760000Y-74600000D03*
X87300000Y-74600000D03*
X89840000Y-74600000D03*
D29*
X66725420Y-128050140D03*
D30*
X66987040Y-126500740D03*
X61012960Y-126500740D03*
D29*
X61274580Y-128050140D03*
D31*
X66900680Y-125169780D03*
X61099320Y-125169780D03*
D32*
X64962660Y-128448920D03*
X63037340Y-128448920D03*
D33*
X65300480Y-125375520D03*
X64650240Y-125375520D03*
X64000000Y-125375520D03*
X63349760Y-125375520D03*
X62699520Y-125375520D03*
D34*
X55624480Y-98699520D03*
X55624480Y-99349760D03*
X55624480Y-100000000D03*
X55624480Y-100650240D03*
X55624480Y-101300480D03*
D35*
X52551080Y-99037340D03*
X52551080Y-100962660D03*
D36*
X55830220Y-97099320D03*
X55830220Y-102900680D03*
D37*
X52949860Y-97274580D03*
D38*
X54499260Y-97012960D03*
X54499260Y-102987040D03*
D37*
X52949860Y-102725420D03*
D39*
X93099320Y-114139740D03*
X94199140Y-114139740D03*
X95298960Y-114139740D03*
X96398780Y-114139740D03*
X97501140Y-114139740D03*
X98600960Y-114139740D03*
X99700780Y-114139740D03*
X100800600Y-114139740D03*
D40*
X102210300Y-114050840D03*
D41*
X89550940Y-114050840D03*
D42*
X102748780Y-128899680D03*
X89251220Y-128899680D03*
D43*
X102855460Y-115699300D03*
D44*
X102855460Y-123100860D03*
D45*
X61550000Y-77850000D03*
X59650000Y-77850000D03*
X104100000Y-109700000D03*
X102200000Y-109700000D03*
X102700000Y-94300000D03*
X104600000Y-94300000D03*
X102850000Y-90600000D03*
X100950000Y-90600000D03*
D46*
X116350000Y-107550000D03*
X116350000Y-105650000D03*
X73100000Y-92050000D03*
X73100000Y-93950000D03*
X71000000Y-93950000D03*
X71000000Y-92050000D03*
X68900000Y-92050000D03*
X68900000Y-93950000D03*
X64000000Y-93950000D03*
X64000000Y-92050000D03*
D45*
X84800000Y-124450000D03*
X82900000Y-124450000D03*
D46*
X130450000Y-84800000D03*
X130450000Y-82900000D03*
X81200000Y-109150000D03*
X81200000Y-111050000D03*
X64300000Y-103850000D03*
X64300000Y-105750000D03*
D45*
X102050000Y-92450000D03*
X103950000Y-92450000D03*
X121348000Y-98440000D03*
X119448000Y-98440000D03*
X119548000Y-108140000D03*
X121448000Y-108140000D03*
X121348000Y-95040000D03*
X119448000Y-95040000D03*
X121448000Y-104840000D03*
X119548000Y-104840000D03*
X119447999Y-91740000D03*
X121347999Y-91740000D03*
X119448000Y-101540000D03*
X121348000Y-101540000D03*
X72315000Y-118355000D03*
X70415000Y-118355000D03*
X71600000Y-108050000D03*
X69700000Y-108050000D03*
D47*
X81750000Y-129350000D03*
X81750000Y-127050000D03*
X74250000Y-129350000D03*
X74250000Y-127050000D03*
D48*
X75750000Y-126050000D03*
X78750000Y-126050000D03*
X80250000Y-126050000D03*
D49*
X91850297Y-92298354D03*
D20*
G36*
X91399488Y-91671532D02*
X92477119Y-92749163D01*
X92301106Y-92925176D01*
X91223475Y-91847545D01*
X91399488Y-91671532D01*
X91399488Y-91671532D01*
G37*
D49*
X91496475Y-92652176D03*
D50*
X91947284Y-93102985D02*
X91045666Y-92201367D01*
D49*
X91142653Y-93005998D03*
D50*
X91593462Y-93456807D02*
X90691844Y-92555189D01*
D49*
X90788831Y-93359820D03*
D50*
X91239640Y-93810629D02*
X90338022Y-92909011D01*
D49*
X90435009Y-93713642D03*
D50*
X90885818Y-94164451D02*
X89984200Y-93262833D01*
D49*
X90082983Y-94065668D03*
D50*
X90533792Y-94516477D02*
X89632174Y-93614859D01*
D49*
X89729161Y-94419491D03*
D50*
X90179970Y-94870300D02*
X89278352Y-93968682D01*
D49*
X89375339Y-94773313D03*
D50*
X89826148Y-95224122D02*
X88924530Y-94322504D01*
D49*
X89021517Y-95127135D03*
D50*
X89472326Y-95577944D02*
X88570708Y-94676326D01*
D49*
X88667694Y-95480957D03*
D50*
X89118503Y-95931766D02*
X88216885Y-95030148D01*
D49*
X88313872Y-95834779D03*
D50*
X88764681Y-96285588D02*
X87863063Y-95383970D01*
D49*
X87961846Y-96186805D03*
D50*
X88412655Y-96637614D02*
X87511037Y-95735996D01*
D49*
X87608024Y-96540627D03*
D50*
X88058833Y-96991436D02*
X87157215Y-96089818D01*
D49*
X87254202Y-96894449D03*
D50*
X87705011Y-97345258D02*
X86803393Y-96443640D01*
D49*
X86900380Y-97248271D03*
D50*
X87351189Y-97699080D02*
X86449571Y-96797462D01*
D49*
X86546558Y-97602093D03*
D50*
X86997367Y-98052902D02*
X86095749Y-97151284D01*
D49*
X86433407Y-100714650D03*
D50*
X86884216Y-100263841D02*
X85982598Y-101165459D01*
D49*
X86787229Y-101068472D03*
D50*
X87238038Y-100617663D02*
X86336420Y-101519281D01*
D49*
X87141051Y-101422294D03*
D50*
X87591860Y-100971485D02*
X86690242Y-101873103D01*
D49*
X87494873Y-101776116D03*
D50*
X87945682Y-101325307D02*
X87044064Y-102226925D01*
D49*
X87848695Y-102129938D03*
D50*
X88299504Y-101679129D02*
X87397886Y-102580747D01*
D49*
X88200721Y-102481964D03*
D50*
X88651530Y-102031155D02*
X87749912Y-102932773D01*
D49*
X88554543Y-102835787D03*
D50*
X89005352Y-102384978D02*
X88103734Y-103286596D01*
D49*
X88908365Y-103189609D03*
D50*
X89359174Y-102738800D02*
X88457556Y-103640418D01*
D49*
X89262187Y-103543431D03*
D50*
X89712996Y-103092622D02*
X88811378Y-103994240D01*
D49*
X89616010Y-103897253D03*
D50*
X90066819Y-103446444D02*
X89165201Y-104348062D01*
D49*
X89969832Y-104251075D03*
D50*
X90420641Y-103800266D02*
X89519023Y-104701884D01*
D49*
X90321858Y-104603101D03*
D50*
X90772667Y-104152292D02*
X89871049Y-105053910D01*
D49*
X90675680Y-104956923D03*
D50*
X91126489Y-104506114D02*
X90224871Y-105407732D01*
D49*
X91029502Y-105310745D03*
D50*
X91480311Y-104859936D02*
X90578693Y-105761554D01*
D49*
X91383324Y-105664567D03*
D50*
X91834133Y-105213758D02*
X90932515Y-106115376D01*
D49*
X91737146Y-106018389D03*
D50*
X92187955Y-105567580D02*
X91286337Y-106469198D01*
D49*
X94962854Y-106018389D03*
D50*
X95413663Y-106469198D02*
X94512045Y-105567580D01*
D49*
X95316676Y-105664567D03*
D50*
X95767485Y-106115376D02*
X94865867Y-105213758D01*
D49*
X95670498Y-105310745D03*
D50*
X96121307Y-105761554D02*
X95219689Y-104859936D01*
D49*
X96024320Y-104956923D03*
D50*
X96475129Y-105407732D02*
X95573511Y-104506114D01*
D49*
X96378142Y-104603101D03*
D50*
X96828951Y-105053910D02*
X95927333Y-104152292D01*
D49*
X96730168Y-104251075D03*
D50*
X97180977Y-104701884D02*
X96279359Y-103800266D01*
D49*
X97083990Y-103897253D03*
D50*
X97534799Y-104348062D02*
X96633181Y-103446444D01*
D49*
X97437813Y-103543431D03*
D50*
X97888622Y-103994240D02*
X96987004Y-103092622D01*
D49*
X97791635Y-103189609D03*
D50*
X98242444Y-103640418D02*
X97340826Y-102738800D01*
D49*
X98145457Y-102835787D03*
D50*
X98596266Y-103286596D02*
X97694648Y-102384978D01*
D49*
X98499279Y-102481964D03*
D50*
X98950088Y-102932773D02*
X98048470Y-102031155D01*
D49*
X98851305Y-102129938D03*
D50*
X99302114Y-102580747D02*
X98400496Y-101679129D01*
D49*
X99205127Y-101776116D03*
D50*
X99655936Y-102226925D02*
X98754318Y-101325307D01*
D49*
X99558949Y-101422294D03*
D50*
X100009758Y-101873103D02*
X99108140Y-100971485D01*
D49*
X99912771Y-101068472D03*
D50*
X100363580Y-101519281D02*
X99461962Y-100617663D01*
D49*
X100266593Y-100714650D03*
D50*
X100717402Y-101165459D02*
X99815784Y-100263841D01*
D49*
X100153442Y-97602093D03*
D50*
X100604251Y-97151284D02*
X99702633Y-98052902D01*
D49*
X99799620Y-97248271D03*
D50*
X100250429Y-96797462D02*
X99348811Y-97699080D01*
D49*
X99091976Y-96540627D03*
D50*
X99542785Y-96089818D02*
X98641167Y-96991436D01*
D49*
X99458370Y-96881877D03*
D50*
X99909179Y-96431068D02*
X99007561Y-97332686D01*
D49*
X98738154Y-96186805D03*
D50*
X99188963Y-95735996D02*
X98287345Y-96637614D01*
D49*
X98386128Y-95834779D03*
D50*
X98836937Y-95383970D02*
X97935319Y-96285588D01*
D49*
X98032306Y-95480957D03*
D50*
X98483115Y-95030148D02*
X97581497Y-95931766D01*
D49*
X97678483Y-95127135D03*
D50*
X98129292Y-94676326D02*
X97227674Y-95577944D01*
D49*
X97324661Y-94773313D03*
D50*
X97775470Y-94322504D02*
X96873852Y-95224122D01*
D49*
X96970839Y-94419491D03*
D50*
X97421648Y-93968682D02*
X96520030Y-94870300D01*
D49*
X96622405Y-94071057D03*
D50*
X97073214Y-93620248D02*
X96171596Y-94521866D01*
D49*
X96268583Y-93717234D03*
D50*
X96719392Y-93266425D02*
X95817774Y-94168043D01*
D49*
X95914761Y-93363412D03*
D50*
X96365570Y-92912603D02*
X95463952Y-93814221D01*
D49*
X95560939Y-93009590D03*
D50*
X96011748Y-92558781D02*
X95110130Y-93460399D01*
D49*
X95208913Y-92657564D03*
D50*
X95659722Y-92206755D02*
X94758104Y-93108373D01*
D49*
X94855091Y-92303742D03*
D50*
X95305900Y-91852933D02*
X94404282Y-92754551D01*
D51*
X71220720Y-89286000D03*
X71220720Y-84714000D03*
D52*
X64779280Y-87000000D03*
D53*
X61325000Y-118660000D03*
X61325000Y-119610000D03*
X61325000Y-120560000D03*
X63525000Y-120560000D03*
X63525000Y-118660000D03*
D54*
X88174372Y-83275628D03*
D20*
G36*
X88705105Y-86705188D02*
X84744812Y-82744895D01*
X87643639Y-79846068D01*
X91603932Y-83806361D01*
X88705105Y-86705188D01*
X88705105Y-86705188D01*
G37*
D54*
X80325628Y-91124372D03*
D20*
G36*
X80856361Y-94553932D02*
X76896068Y-90593639D01*
X79794895Y-87694812D01*
X83755188Y-91655105D01*
X80856361Y-94553932D01*
X80856361Y-94553932D01*
G37*
D55*
X96570000Y-92130000D03*
X69500000Y-124800000D03*
X69287500Y-101487500D03*
X68387500Y-101487500D03*
X67487500Y-101487500D03*
X66587500Y-101487500D03*
X69287500Y-100587500D03*
X68387500Y-100587500D03*
X67487500Y-100587500D03*
X66587500Y-100587500D03*
X69287500Y-99687500D03*
X68387500Y-99687500D03*
X67487500Y-99687500D03*
X66587500Y-99687500D03*
X69287500Y-98787500D03*
X68387500Y-98787500D03*
X67487500Y-98787500D03*
X66587500Y-98787500D03*
X84250000Y-101500000D03*
X70650000Y-106250000D03*
X62375475Y-119000772D03*
X62400000Y-119950000D03*
X59528710Y-103000000D03*
X61100000Y-101250000D03*
X61800000Y-100500000D03*
X60900000Y-98200000D03*
X63000000Y-98100000D03*
X62600000Y-100500000D03*
X84192672Y-90988009D03*
X84975637Y-93027690D03*
X92908457Y-109164383D03*
X130450000Y-85750000D03*
X92265040Y-89915040D03*
X103850000Y-115850000D03*
X73800000Y-88650000D03*
X73950000Y-87650000D03*
X73900000Y-86650000D03*
X74000000Y-85450000D03*
X107300000Y-91500000D03*
X104000000Y-101250000D03*
X103550000Y-99300000D03*
X98900000Y-112800000D03*
X88700000Y-109400000D03*
X108600000Y-111450000D03*
X108650000Y-102350000D03*
X114950000Y-88400000D03*
X115000000Y-97500000D03*
X89300000Y-87950000D03*
X59550000Y-103800000D03*
X69500000Y-118300000D03*
X81200000Y-111900000D03*
X85550000Y-124450000D03*
X65900000Y-123750000D03*
X66950000Y-121300000D03*
X67350000Y-117750000D03*
X63550000Y-107900000D03*
X68650000Y-109000000D03*
X68000000Y-107000000D03*
X74650000Y-105850000D03*
X77000000Y-103200000D03*
X73150000Y-103450000D03*
X67900000Y-87100000D03*
X64750000Y-90050000D03*
X61650000Y-87000000D03*
X64800000Y-83850000D03*
X62100000Y-94800000D03*
X63400000Y-105700000D03*
X94250000Y-85100000D03*
X109650000Y-86500000D03*
X86780954Y-91660974D03*
X106650000Y-96100000D03*
X99550000Y-94500000D03*
X92950000Y-106600000D03*
X70250000Y-90450000D03*
X69850000Y-89300000D03*
X75700000Y-124950000D03*
X86096273Y-103606536D03*
X63546731Y-102705086D03*
X127865040Y-107734960D03*
X84800000Y-94400000D03*
X92272310Y-91238539D03*
X95165040Y-91065040D03*
X71200000Y-88350000D03*
X130900000Y-103850000D03*
X130400000Y-94800000D03*
X127800000Y-104700000D03*
X127700000Y-101550000D03*
X127750000Y-98500000D03*
X127750000Y-95000000D03*
X127850000Y-92650000D03*
X101550000Y-100300000D03*
X104200000Y-91500000D03*
X96900000Y-111600000D03*
X116350000Y-108350000D03*
X73150000Y-91450000D03*
X71000000Y-91400000D03*
X68900000Y-91350000D03*
X70950000Y-102800000D03*
X74850000Y-103250000D03*
X69900000Y-119950000D03*
X58100000Y-116850000D03*
X57800000Y-118800000D03*
X58200000Y-117800000D03*
X69400000Y-86000000D03*
X69500000Y-83500000D03*
X70000000Y-84700000D03*
X69200000Y-105400000D03*
X67650000Y-105850000D03*
X65000000Y-117850000D03*
X63800000Y-118100000D03*
X64000000Y-119250000D03*
X57100000Y-95900000D03*
X57550000Y-97250000D03*
X57500000Y-96550000D03*
X99250000Y-86750000D03*
X62550000Y-77950000D03*
X98350000Y-86000000D03*
X98400000Y-105600000D03*
X105850000Y-109450000D03*
X119900000Y-86050000D03*
X125000000Y-87750000D03*
X92143407Y-93801762D03*
X97900000Y-92100000D03*
X93600002Y-87000000D03*
X95639605Y-103297486D03*
X92850000Y-98500000D03*
X92850002Y-93350000D03*
X95650000Y-107600000D03*
X87700000Y-93650000D03*
X97050000Y-107000000D03*
X96300000Y-96100000D03*
X128450000Y-82900000D03*
X97250000Y-100300000D03*
X118400000Y-101550000D03*
X115400000Y-96100000D03*
X85900000Y-98350000D03*
X130499994Y-120950000D03*
X96889809Y-101250000D03*
X118850000Y-104900000D03*
X85150000Y-97700000D03*
X127950000Y-118550000D03*
X116700000Y-96100000D03*
X98749992Y-104150000D03*
X119450000Y-109250000D03*
X84700000Y-96850000D03*
X125550000Y-115650000D03*
X117950000Y-96700000D03*
X95400006Y-98200000D03*
X105150000Y-111150000D03*
X62250000Y-123800000D03*
X62950000Y-123450000D03*
X107150000Y-88350000D03*
X108100000Y-88350000D03*
X64050006Y-102000000D03*
X59550000Y-101250000D03*
X98899998Y-98700000D03*
X101250000Y-104300000D03*
X94550010Y-101900000D03*
X94150000Y-115400000D03*
X94500000Y-100750000D03*
X95350000Y-115250000D03*
X95550544Y-99850544D03*
X97550000Y-115250000D03*
X100777690Y-107587214D03*
X97950000Y-104650000D03*
X96906784Y-102187069D03*
X100777690Y-109250000D03*
X90777690Y-91056712D03*
X71086600Y-97769387D03*
X74100000Y-93650000D03*
X68700000Y-96317510D03*
X90000000Y-91450000D03*
X70950000Y-93450000D03*
X67800000Y-93350000D03*
X89050000Y-91050000D03*
X64084960Y-101084960D03*
X64100000Y-94500000D03*
X93900000Y-97950000D03*
X87800000Y-115550000D03*
X90800000Y-103200000D03*
X86350000Y-108600004D03*
X88850000Y-100950000D03*
X80550000Y-108000000D03*
X66965370Y-104187174D03*
X82350000Y-106000002D03*
X92453658Y-97431932D03*
X81400000Y-105150000D03*
X89842556Y-97799696D03*
X80200000Y-104400000D03*
X88942181Y-97953368D03*
X80551234Y-102814986D03*
X87762949Y-98334320D03*
X83350000Y-99950000D03*
X79824424Y-102264975D03*
X83721338Y-106860748D03*
X87158439Y-103293320D03*
X84550000Y-106550000D03*
X87800000Y-104650000D03*
X86100000Y-107200000D03*
X87180491Y-105376767D03*
X89296853Y-107067510D03*
X87438211Y-107056849D03*
X88088256Y-106387799D03*
X90506091Y-107242298D03*
X89836002Y-100953626D03*
X92600000Y-103650000D03*
X93128961Y-102817304D03*
X90749996Y-100600000D03*
X84100000Y-95550000D03*
X95730805Y-95330890D03*
X61700000Y-98700000D03*
X63200000Y-99700000D03*
X61100000Y-99900000D03*
X62000000Y-99600000D03*
D56*
X96488039Y-92048039D02*
X96570000Y-92130000D01*
X95818438Y-92048039D02*
X96488039Y-92048039D01*
X95208913Y-92657564D02*
X95818438Y-92048039D01*
D57*
X69949012Y-124800000D02*
X69500000Y-124800000D01*
X70150000Y-124800000D02*
X69949012Y-124800000D01*
X70250000Y-124900000D02*
X70150000Y-124800000D01*
D56*
X84550000Y-101500000D02*
X84250000Y-101500000D01*
X84919670Y-101869670D02*
X84550000Y-101500000D01*
X70280330Y-105780330D02*
X70280330Y-105880330D01*
X70280330Y-105880330D02*
X70650000Y-106250000D01*
D58*
X62375475Y-119449784D02*
X62375475Y-119000772D01*
X62375475Y-119597525D02*
X62375475Y-119449784D01*
X62363000Y-119610000D02*
X62375475Y-119597525D01*
X61325000Y-119610000D02*
X62363000Y-119610000D01*
X62400000Y-119647000D02*
X62400000Y-119950000D01*
X62363000Y-119610000D02*
X62400000Y-119647000D01*
D57*
X59528710Y-103127290D02*
X59528710Y-103000000D01*
X58550000Y-103350000D02*
X59306000Y-103350000D01*
X59306000Y-103350000D02*
X59528710Y-103127290D01*
X61150000Y-102200000D02*
X61150000Y-101300000D01*
X61150000Y-101300000D02*
X61100000Y-101250000D01*
X62750000Y-101150000D02*
X62200000Y-101150000D01*
X62200000Y-101150000D02*
X61150000Y-102200000D01*
D56*
X62750000Y-101150000D02*
X62750000Y-100650000D01*
X62750000Y-100650000D02*
X62600000Y-100500000D01*
X84784993Y-91580330D02*
X84510171Y-91305508D01*
X85669670Y-91580330D02*
X84784993Y-91580330D01*
X86380330Y-93819670D02*
X85588350Y-93027690D01*
X84510171Y-91305508D02*
X84192672Y-90988009D01*
X85588350Y-93027690D02*
X85424649Y-93027690D01*
X85424649Y-93027690D02*
X84975637Y-93027690D01*
X93246277Y-109164383D02*
X92908457Y-109164383D01*
X93880330Y-108530330D02*
X93246277Y-109164383D01*
X130450000Y-84800000D02*
X130450000Y-85750000D01*
X92265040Y-89906760D02*
X92265040Y-89915040D01*
X92321800Y-89850000D02*
X92265040Y-89906760D01*
X92900000Y-89850000D02*
X92321800Y-89850000D01*
X87378712Y-94818052D02*
X86716205Y-94155545D01*
X87961846Y-96186805D02*
X87378712Y-95603671D01*
X86716205Y-94155545D02*
X86380330Y-93819670D01*
X87378712Y-95603671D02*
X87378712Y-94818052D01*
D58*
X102855460Y-115699300D02*
X103699300Y-115699300D01*
X103699300Y-115699300D02*
X103850000Y-115850000D01*
X73000000Y-88000000D02*
X73150000Y-88000000D01*
X73150000Y-88000000D02*
X73800000Y-88650000D01*
X73000000Y-88000000D02*
X73600000Y-88000000D01*
X73600000Y-88000000D02*
X73950000Y-87650000D01*
X73000000Y-86000000D02*
X73250000Y-86000000D01*
X73250000Y-86000000D02*
X73900000Y-86650000D01*
X73000000Y-86000000D02*
X73450000Y-86000000D01*
X73450000Y-86000000D02*
X74000000Y-85450000D01*
D56*
X107300000Y-92250000D02*
X107300000Y-91500000D01*
X103457107Y-101742893D02*
X103507107Y-101742893D01*
X103507107Y-101742893D02*
X104000000Y-101250000D01*
X103130330Y-99719670D02*
X103550000Y-99300000D01*
X96780330Y-91430330D02*
X97083884Y-91430330D01*
X97083884Y-91430330D02*
X98157107Y-90357107D01*
X95208913Y-92657564D02*
X96436147Y-91430330D01*
X96436147Y-91430330D02*
X96780330Y-91430330D01*
X98400000Y-112300000D02*
X98900000Y-112800000D01*
X98400000Y-112300000D02*
X98400000Y-113938780D01*
X98400000Y-113938780D02*
X98600960Y-114139740D01*
X88907107Y-109607107D02*
X88700000Y-109400000D01*
X89842893Y-109607107D02*
X88907107Y-109607107D01*
X109549560Y-111449140D02*
X108600860Y-111449140D01*
X108600860Y-111449140D02*
X108600000Y-111450000D01*
X109549560Y-102350860D02*
X108650860Y-102350860D01*
X108650860Y-102350860D02*
X108650000Y-102350000D01*
X114050440Y-88400860D02*
X114949140Y-88400860D01*
X114949140Y-88400860D02*
X114950000Y-88400000D01*
X114050440Y-97499140D02*
X114999140Y-97499140D01*
X114999140Y-97499140D02*
X115000000Y-97500000D01*
X88830330Y-88419670D02*
X89300000Y-87950000D01*
D57*
X61400000Y-102200000D02*
X61200000Y-102200000D01*
X58550000Y-103350000D02*
X59100000Y-103350000D01*
X59100000Y-103350000D02*
X59550000Y-103800000D01*
X55624480Y-101300480D02*
X56500480Y-101300480D01*
X56500480Y-101300480D02*
X58550000Y-103350000D01*
X70415000Y-118355000D02*
X69555000Y-118355000D01*
X69555000Y-118355000D02*
X69500000Y-118300000D01*
D56*
X81200000Y-111050000D02*
X81200000Y-111900000D01*
D57*
X84800000Y-124450000D02*
X85550000Y-124450000D01*
X65300480Y-125375520D02*
X65300480Y-124349520D01*
X65300480Y-124349520D02*
X65900000Y-123750000D01*
D58*
X66750000Y-120750000D02*
X66750000Y-121100000D01*
X66750000Y-121100000D02*
X66950000Y-121300000D01*
X67250000Y-118650000D02*
X67250000Y-120250000D01*
X67250000Y-120250000D02*
X66750000Y-120750000D01*
X67250000Y-118650000D02*
X67250000Y-117850000D01*
X67250000Y-117850000D02*
X67350000Y-117750000D01*
D59*
X63550000Y-108500000D02*
X63550000Y-107900000D01*
X68050000Y-108500000D02*
X68150000Y-108500000D01*
X68150000Y-108500000D02*
X68650000Y-109000000D01*
X67300000Y-106850000D02*
X67850000Y-106850000D01*
X67850000Y-106850000D02*
X68000000Y-107000000D01*
X74000000Y-105500000D02*
X74300000Y-105500000D01*
X74300000Y-105500000D02*
X74650000Y-105850000D01*
X76250000Y-103200000D02*
X77000000Y-103200000D01*
X72450000Y-103450000D02*
X73150000Y-103450000D01*
D58*
X64779280Y-87000000D02*
X67800000Y-87000000D01*
X67800000Y-87000000D02*
X67900000Y-87100000D01*
X64779280Y-87000000D02*
X64779280Y-90020720D01*
X64779280Y-90020720D02*
X64750000Y-90050000D01*
X64779280Y-87000000D02*
X61650000Y-87000000D01*
X64779280Y-87000000D02*
X64779280Y-83870720D01*
X64779280Y-83870720D02*
X64800000Y-83850000D01*
X61325000Y-119610000D02*
X59925000Y-119610000D01*
X59925000Y-119610000D02*
X59425001Y-120110000D01*
D56*
X62000000Y-94100000D02*
X62000000Y-94700000D01*
X62000000Y-94700000D02*
X62100000Y-94800000D01*
X64300000Y-105750000D02*
X63450000Y-105750000D01*
X63450000Y-105750000D02*
X63400000Y-105700000D01*
X84919670Y-101869670D02*
X85986031Y-101869670D01*
X85986031Y-101869670D02*
X86787229Y-101068472D01*
X94250000Y-84650988D02*
X94250000Y-85100000D01*
X87300000Y-74600000D02*
X94250000Y-81550000D01*
X94250000Y-81550000D02*
X94250000Y-84650988D01*
X109650000Y-86500000D02*
X109650000Y-88300420D01*
X109650000Y-88300420D02*
X109549560Y-88400860D01*
X86970644Y-91660974D02*
X86780954Y-91660974D01*
X89729161Y-94419491D02*
X86970644Y-91660974D01*
X109549560Y-97499140D02*
X109549560Y-96245650D01*
X109549560Y-96245650D02*
X109549560Y-88400860D01*
X107300000Y-93750000D02*
X107300000Y-96152550D01*
X107300000Y-96152550D02*
X108646590Y-97499140D01*
X108646590Y-97499140D02*
X109549560Y-97499140D01*
X107100000Y-96550000D02*
X106650000Y-96100000D01*
X114050440Y-111449140D02*
X114050440Y-112702630D01*
X114050440Y-112702630D02*
X113303070Y-113450000D01*
X113303070Y-113450000D02*
X108450000Y-113450000D01*
X108450000Y-113450000D02*
X107100000Y-112100000D01*
X107100000Y-112100000D02*
X107100000Y-96550000D01*
X99100988Y-94500000D02*
X99550000Y-94500000D01*
X98305618Y-94500000D02*
X99100988Y-94500000D01*
X97678483Y-95127135D02*
X98305618Y-94500000D01*
X113951300Y-102450000D02*
X114050440Y-102350860D01*
X114050440Y-102350860D02*
X114050440Y-103604350D01*
X114050440Y-103604350D02*
X114050440Y-111449140D01*
X114050440Y-102350860D02*
X114953410Y-102350860D01*
X114953410Y-102350860D02*
X116350000Y-103747450D01*
X116350000Y-103747450D02*
X116350000Y-105096800D01*
X116350000Y-105096800D02*
X116350000Y-105650000D01*
X92819670Y-106730330D02*
X92950000Y-106600000D01*
X92819670Y-107469670D02*
X92819670Y-106730330D01*
D60*
X70567499Y-90132501D02*
X70250000Y-90450000D01*
X71220720Y-89479280D02*
X70567499Y-90132501D01*
X71220720Y-89286000D02*
X71220720Y-89479280D01*
X70299012Y-89300000D02*
X69850000Y-89300000D01*
X71206720Y-89300000D02*
X70299012Y-89300000D01*
X71220720Y-89286000D02*
X71206720Y-89300000D01*
D57*
X75700000Y-125399012D02*
X75700000Y-124950000D01*
X75700000Y-126000000D02*
X75700000Y-125399012D01*
X75750000Y-126050000D02*
X75700000Y-126000000D01*
D56*
X85980330Y-102930330D02*
X85980330Y-103560660D01*
X85980330Y-103560660D02*
X86026206Y-103606536D01*
X86026206Y-103606536D02*
X86096273Y-103606536D01*
X62750000Y-102650000D02*
X62750000Y-102625000D01*
X62750000Y-102625000D02*
X63328200Y-102046800D01*
X63328200Y-102046800D02*
X63328200Y-101800794D01*
X64589300Y-100387500D02*
X65292500Y-100387500D01*
X63862500Y-100387500D02*
X64589300Y-100387500D01*
X63450000Y-100800000D02*
X63862500Y-100387500D01*
D57*
X62750000Y-102650000D02*
X63506000Y-102650000D01*
D56*
X63328200Y-101800794D02*
X63450000Y-101678994D01*
X63450000Y-101678994D02*
X63450000Y-100800000D01*
D57*
X63546731Y-102690731D02*
X63546731Y-102705086D01*
X63506000Y-102650000D02*
X63546731Y-102690731D01*
D56*
X127859999Y-107740001D02*
X127865040Y-107734960D01*
X126748001Y-107740001D02*
X127859999Y-107740001D01*
X84839340Y-94400000D02*
X84800000Y-94400000D01*
X85319670Y-94880330D02*
X84839340Y-94400000D01*
X92272310Y-91300510D02*
X92272310Y-91238539D01*
X92900000Y-91350000D02*
X92321800Y-91350000D01*
X92321800Y-91350000D02*
X92272310Y-91300510D01*
X94855091Y-91374989D02*
X95165040Y-91065040D01*
X94855091Y-92303742D02*
X94855091Y-91374989D01*
D60*
X71220720Y-89286000D02*
X71220720Y-88370720D01*
X71220720Y-88370720D02*
X71200000Y-88350000D01*
D56*
X85319670Y-94880330D02*
X85950000Y-94880330D01*
X85950000Y-94880330D02*
X86069670Y-95000000D01*
X86069670Y-95000000D02*
X86450000Y-95000000D01*
X86450000Y-95000000D02*
X86972301Y-95522301D01*
X86972301Y-95522301D02*
X86972301Y-95904904D01*
X86972301Y-95904904D02*
X86998499Y-95931102D01*
X86998499Y-95931102D02*
X87608024Y-96540627D01*
X130260500Y-103865000D02*
X130885000Y-103865000D01*
X130885000Y-103865000D02*
X130900000Y-103850000D01*
X129860500Y-94365000D02*
X129965000Y-94365000D01*
X129965000Y-94365000D02*
X130400000Y-94800000D01*
X126748000Y-104740000D02*
X127760000Y-104740000D01*
X127760000Y-104740000D02*
X127800000Y-104700000D01*
X126648000Y-101540000D02*
X127690000Y-101540000D01*
X127690000Y-101540000D02*
X127700000Y-101550000D01*
X126748002Y-98440000D02*
X127690000Y-98440000D01*
X127690000Y-98440000D02*
X127750000Y-98500000D01*
X126848000Y-94940000D02*
X127690000Y-94940000D01*
X127690000Y-94940000D02*
X127750000Y-95000000D01*
X126848000Y-91939999D02*
X127139999Y-91939999D01*
X127139999Y-91939999D02*
X127850000Y-92650000D01*
X102069670Y-100780330D02*
X102030330Y-100780330D01*
X102030330Y-100780330D02*
X101550000Y-100300000D01*
X101500000Y-101350000D02*
X100901943Y-101350000D01*
X100901943Y-101350000D02*
X100266593Y-100714650D01*
X102069670Y-100780330D02*
X101500000Y-101350000D01*
X103950000Y-92450000D02*
X103950000Y-91750000D01*
X103950000Y-91750000D02*
X104200000Y-91500000D01*
X95719670Y-90369670D02*
X95719670Y-89966116D01*
X95719670Y-89966116D02*
X96742893Y-88942893D01*
X94855091Y-92303742D02*
X95719670Y-91439163D01*
X95719670Y-91439163D02*
X95719670Y-90369670D01*
X96900000Y-112300000D02*
X96900000Y-111600000D01*
X96900000Y-112300000D02*
X96900000Y-112878200D01*
X96900000Y-112878200D02*
X96398780Y-113379420D01*
X96398780Y-113379420D02*
X96398780Y-114139740D01*
X91737146Y-106018389D02*
X91737146Y-106387146D01*
X91737146Y-106387146D02*
X92819670Y-107469670D01*
X116350000Y-107550000D02*
X116350000Y-108350000D01*
X91850297Y-92298354D02*
X91951646Y-92298354D01*
X91951646Y-92298354D02*
X92900000Y-91350000D01*
X59360000Y-74600000D02*
X59360000Y-77560000D01*
X59360000Y-77560000D02*
X59650000Y-77850000D01*
D61*
X71220720Y-89286000D02*
X71220720Y-89861720D01*
X71220720Y-89861720D02*
X71359000Y-90000000D01*
X71359000Y-90000000D02*
X73000000Y-90000000D01*
D56*
X73100000Y-92050000D02*
X73100000Y-91500000D01*
X73100000Y-91500000D02*
X73150000Y-91450000D01*
X71000000Y-92050000D02*
X71000000Y-91400000D01*
X68900000Y-92050000D02*
X68900000Y-91350000D01*
D59*
X70950000Y-103450000D02*
X70950000Y-102800000D01*
X74250000Y-103200000D02*
X74800000Y-103200000D01*
X74800000Y-103200000D02*
X74850000Y-103250000D01*
X70950000Y-103450000D02*
X70975000Y-103450000D01*
X70975000Y-103450000D02*
X71775000Y-102650000D01*
X71775000Y-102650000D02*
X73700000Y-102650000D01*
X73700000Y-102650000D02*
X74250000Y-103200000D01*
X69687500Y-102782500D02*
X70282500Y-102782500D01*
X70282500Y-102782500D02*
X70950000Y-103450000D01*
D57*
X63000000Y-102650000D02*
X62950000Y-102650000D01*
X62700000Y-102650000D02*
X61150000Y-104200000D01*
D56*
X63000000Y-102625000D02*
X63000000Y-102650000D01*
X65292500Y-99887500D02*
X65292500Y-100387500D01*
X85980330Y-102930330D02*
X85980330Y-102583015D01*
X85980330Y-102583015D02*
X87141051Y-101422294D01*
D61*
X71700000Y-84050000D02*
X72950000Y-84050000D01*
X72950000Y-84050000D02*
X73000000Y-84000000D01*
X71220720Y-84714000D02*
X71220720Y-84529280D01*
X71220720Y-84529280D02*
X71700000Y-84050000D01*
D57*
X69900000Y-119950000D02*
X69900000Y-120840000D01*
X69900000Y-120840000D02*
X69965000Y-120905000D01*
D60*
X59424999Y-117924999D02*
X58350000Y-116850000D01*
X58350000Y-116850000D02*
X58100000Y-116850000D01*
X59424999Y-118110000D02*
X59424999Y-117924999D01*
X59090000Y-118110000D02*
X58400000Y-118800000D01*
X58400000Y-118800000D02*
X57800000Y-118800000D01*
X59424999Y-118110000D02*
X59090000Y-118110000D01*
X58200000Y-117800000D02*
X59114999Y-117800000D01*
X59114999Y-117800000D02*
X59424999Y-118110000D01*
D56*
X58425000Y-119109999D02*
X58425000Y-120710000D01*
D61*
X69400000Y-86000000D02*
X69934720Y-86000000D01*
X69934720Y-86000000D02*
X71220720Y-84714000D01*
X71220720Y-84520720D02*
X70200000Y-83500000D01*
X70200000Y-83500000D02*
X69500000Y-83500000D01*
X71220720Y-84714000D02*
X71220720Y-84520720D01*
X70000000Y-84700000D02*
X71206720Y-84700000D01*
X71206720Y-84700000D02*
X71220720Y-84714000D01*
D60*
X59325000Y-118210000D02*
X59424999Y-118110000D01*
D56*
X58425000Y-119109999D02*
X59424999Y-118110000D01*
X58925000Y-121210000D02*
X58425000Y-120710000D01*
X59941800Y-121210000D02*
X58925000Y-121210000D01*
X61325000Y-120560001D02*
X60591800Y-120560000D01*
X60591800Y-120560000D02*
X59941800Y-121210000D01*
D58*
X61325000Y-118660000D02*
X59975000Y-118660000D01*
X59975000Y-118660000D02*
X59424999Y-118110000D01*
X65250000Y-120750000D02*
X63715000Y-120750000D01*
X63715000Y-120750000D02*
X63525000Y-120560000D01*
D56*
X69219670Y-104719670D02*
X69219670Y-105380330D01*
X69219670Y-105380330D02*
X69200000Y-105400000D01*
X69219670Y-104719670D02*
X69350000Y-104850000D01*
X69350000Y-104850000D02*
X71450000Y-104850000D01*
X71450000Y-104850000D02*
X72000000Y-105400000D01*
X72000000Y-105400000D02*
X72000000Y-105500000D01*
X68687500Y-104187500D02*
X69219670Y-104719670D01*
X67300000Y-105500000D02*
X67332501Y-105532501D01*
X67300000Y-105350000D02*
X67300000Y-105500000D01*
X67332501Y-105532501D02*
X67650000Y-105850000D01*
X68687500Y-102782500D02*
X68687500Y-104187500D01*
D58*
X65250000Y-118650000D02*
X65250000Y-118100000D01*
X65250000Y-118100000D02*
X65000000Y-117850000D01*
X63525000Y-118660000D02*
X63525000Y-118375000D01*
X63525000Y-118375000D02*
X63800000Y-118100000D01*
X63525000Y-118660000D02*
X63525000Y-118775000D01*
X63525000Y-118775000D02*
X64000000Y-119250000D01*
X63525000Y-118660000D02*
X65240000Y-118660000D01*
X65240000Y-118660000D02*
X65250000Y-118650000D01*
D56*
X67687500Y-102782500D02*
X67687500Y-104962500D01*
X67687500Y-104962500D02*
X67300000Y-105350000D01*
X91257107Y-107047048D02*
X91257107Y-107385786D01*
X91257107Y-107385786D02*
X91257107Y-108192893D01*
X90773799Y-106563740D02*
X91257107Y-107047048D01*
X91383324Y-105664567D02*
X90773799Y-106274092D01*
X90773799Y-106274092D02*
X90773799Y-106563740D01*
X99912771Y-101068472D02*
X102001406Y-103157107D01*
X102001406Y-103157107D02*
X102042893Y-103157107D01*
D57*
X87769670Y-89480330D02*
X86700000Y-88410660D01*
X86700000Y-88410660D02*
X86700000Y-84750000D01*
X86700000Y-84750000D02*
X88174372Y-83275628D01*
D56*
X90435009Y-93713642D02*
X87769670Y-91048303D01*
X87769670Y-91048303D02*
X87769670Y-89480330D01*
D57*
X81863194Y-89586806D02*
X81845751Y-89604249D01*
D56*
X87372302Y-91354987D02*
X87372302Y-91161642D01*
D57*
X81845751Y-89604249D02*
X80325628Y-91124372D01*
X85797466Y-89586806D02*
X81863194Y-89586806D01*
D56*
X90082983Y-94065668D02*
X87372302Y-91354987D01*
D57*
X86730330Y-90519670D02*
X85797466Y-89586806D01*
D56*
X87372302Y-91161642D02*
X87066205Y-90855545D01*
X87066205Y-90855545D02*
X86730330Y-90519670D01*
D57*
X57250000Y-97200000D02*
X57250000Y-98450000D01*
X57250000Y-98450000D02*
X57000480Y-98699520D01*
D56*
X55624480Y-98699520D02*
X57000480Y-98699520D01*
X57000480Y-98699520D02*
X60550000Y-95150000D01*
X60550000Y-95150000D02*
X60550000Y-93425000D01*
X60550000Y-93425000D02*
X61875000Y-92100000D01*
X61875000Y-92100000D02*
X62000000Y-92100000D01*
X57250000Y-96900000D02*
X57250000Y-96050000D01*
X57250000Y-96050000D02*
X57100000Y-95900000D01*
D57*
X57250000Y-97200000D02*
X57250000Y-96900000D01*
D56*
X57250000Y-97200000D02*
X57500000Y-97200000D01*
X57500000Y-97200000D02*
X57550000Y-97250000D01*
X57250000Y-96450000D02*
X57400000Y-96450000D01*
X57400000Y-96450000D02*
X57500000Y-96550000D01*
D57*
X57250000Y-96900000D02*
X57250000Y-96450000D01*
D56*
X64000000Y-92050000D02*
X62050000Y-92050000D01*
X62050000Y-92050000D02*
X62000000Y-92100000D01*
D62*
X61050000Y-112200000D02*
X62800000Y-112200000D01*
X62800000Y-112200000D02*
X65050000Y-109950000D01*
X65050000Y-109950000D02*
X65050000Y-109175000D01*
X65050000Y-109175000D02*
X65050000Y-108500000D01*
X65050000Y-108500000D02*
X65050000Y-107825000D01*
X65050000Y-107825000D02*
X65600000Y-107275000D01*
X65600000Y-107275000D02*
X65600000Y-103750000D01*
D56*
X66187500Y-102782500D02*
X66187500Y-103162500D01*
X66187500Y-103162500D02*
X65600000Y-103750000D01*
D62*
X66550000Y-108500000D02*
X66550000Y-109950000D01*
X66550000Y-109950000D02*
X68800000Y-112200000D01*
X68800000Y-112200000D02*
X70550000Y-112200000D01*
D56*
X66229691Y-103829691D02*
X66365899Y-103634101D01*
D62*
X66200000Y-107475000D02*
X66200000Y-103859382D01*
X66200000Y-103859382D02*
X66229691Y-103829691D01*
D56*
X66365899Y-103634101D02*
X66588781Y-103634101D01*
X66588781Y-103634101D02*
X66687500Y-103535382D01*
X66687500Y-103535382D02*
X66687500Y-103485700D01*
X66687500Y-103485700D02*
X66687500Y-102782500D01*
D62*
X66550000Y-107825000D02*
X66200000Y-107475000D01*
X66550000Y-108500000D02*
X66550000Y-107825000D01*
X66550000Y-107825000D02*
X66650001Y-107724999D01*
X66650001Y-107724999D02*
X68724999Y-107724999D01*
X68800000Y-107800000D02*
X69450000Y-107800000D01*
X68724999Y-107724999D02*
X68800000Y-107800000D01*
D56*
X124048002Y-98440000D02*
X124148002Y-98440000D01*
X124148002Y-98440000D02*
X125643201Y-96944801D01*
X125643201Y-96944801D02*
X129758899Y-96944801D01*
X129758899Y-96944801D02*
X129860500Y-96843200D01*
X129860500Y-96843200D02*
X129860500Y-96115000D01*
X121348000Y-98440000D02*
X121901200Y-98440000D01*
X121901200Y-98440000D02*
X124048002Y-98440000D01*
X124048001Y-107740001D02*
X124048001Y-108593201D01*
X124048001Y-108593201D02*
X124149602Y-108694802D01*
X124149602Y-108694802D02*
X127908898Y-108694802D01*
X127908898Y-108694802D02*
X130260500Y-106343200D01*
X130260500Y-106343200D02*
X130260500Y-105615000D01*
X121448000Y-108140000D02*
X123648002Y-108140000D01*
X123648002Y-108140000D02*
X124048001Y-107740001D01*
X124148000Y-94940000D02*
X124148000Y-95793200D01*
X124148000Y-95793200D02*
X124469800Y-96115000D01*
X124469800Y-96115000D02*
X128444800Y-96115000D01*
X128444800Y-96115000D02*
X128935500Y-96115000D01*
X121348000Y-95040000D02*
X124048000Y-95040000D01*
X124048000Y-95040000D02*
X124148000Y-94940000D01*
X124048000Y-104740000D02*
X124048000Y-105593200D01*
X124048000Y-105593200D02*
X124798000Y-106343200D01*
X124798000Y-106343200D02*
X128116600Y-106343200D01*
X128116600Y-106343200D02*
X128844800Y-105615000D01*
X128844800Y-105615000D02*
X129335500Y-105615000D01*
X121448000Y-104840000D02*
X123948000Y-104840000D01*
X123948000Y-104840000D02*
X124048000Y-104740000D01*
X124148000Y-91939999D02*
X124248000Y-91939999D01*
X124248000Y-91939999D02*
X125944801Y-93636800D01*
X125944801Y-93636800D02*
X127716600Y-93636800D01*
X127716600Y-93636800D02*
X128444800Y-94365000D01*
X128444800Y-94365000D02*
X128935500Y-94365000D01*
X121347999Y-91740000D02*
X123948001Y-91740000D01*
X123948001Y-91740000D02*
X124148000Y-91939999D01*
X123948000Y-101540000D02*
X123948000Y-102393200D01*
X123948000Y-102393200D02*
X124691600Y-103136800D01*
X124691600Y-103136800D02*
X128116600Y-103136800D01*
X128116600Y-103136800D02*
X128844800Y-103865000D01*
X128844800Y-103865000D02*
X129335500Y-103865000D01*
X121348000Y-101540000D02*
X123948000Y-101540000D01*
D57*
X72665000Y-120905000D02*
X72665000Y-118705000D01*
X72665000Y-118705000D02*
X72315000Y-118355000D01*
D56*
X99567499Y-87067499D02*
X99250000Y-86750000D01*
X99750000Y-87250000D02*
X99567499Y-87067499D01*
X99750000Y-87450000D02*
X99750000Y-87250000D01*
X113250000Y-83600000D02*
X117780000Y-79070000D01*
X117780000Y-79070000D02*
X117780000Y-77140000D01*
X103600000Y-83600000D02*
X113250000Y-83600000D01*
X99750000Y-87450000D02*
X103600000Y-83600000D01*
X99750000Y-92049012D02*
X99750000Y-87450000D01*
X96970839Y-94419491D02*
X97677510Y-93712820D01*
X98086192Y-93712820D02*
X99750000Y-92049012D01*
X97677510Y-93712820D02*
X98086192Y-93712820D01*
X62550000Y-77950000D02*
X61650000Y-77950000D01*
X61650000Y-77950000D02*
X61550000Y-77850000D01*
X61550000Y-77850000D02*
X61550000Y-74950000D01*
X61550000Y-74950000D02*
X61900000Y-74600000D01*
X98350000Y-86449012D02*
X98350000Y-86000000D01*
X99317499Y-89938505D02*
X98350000Y-88971006D01*
X96622405Y-94071057D02*
X97387053Y-93306409D01*
X97914599Y-93306409D02*
X99317499Y-91903509D01*
X98667499Y-85682501D02*
X98350000Y-86000000D01*
X99317499Y-91903509D02*
X99317499Y-89938505D01*
X98350000Y-88971006D02*
X98350000Y-86449012D01*
X115240000Y-77140000D02*
X109780000Y-82600000D01*
X101750000Y-82600000D02*
X98667499Y-85682501D01*
X97387053Y-93306409D02*
X97914599Y-93306409D01*
X109780000Y-82600000D02*
X101750000Y-82600000D01*
X117800000Y-113806411D02*
X117906411Y-113700000D01*
X117906411Y-113700000D02*
X134550000Y-113700000D01*
X134550000Y-113700000D02*
X138000000Y-110250000D01*
X138000000Y-110250000D02*
X138000000Y-93766800D01*
X138000000Y-93766800D02*
X136613200Y-92380000D01*
X136613200Y-92380000D02*
X135560000Y-92380000D01*
X117343589Y-114262822D02*
X117800000Y-113806411D01*
X108113320Y-114262822D02*
X117343589Y-114262822D01*
X106287178Y-112436680D02*
X108113320Y-114262822D01*
X104100000Y-109700000D02*
X104653200Y-109700000D01*
X104653200Y-109700000D02*
X106287178Y-111333978D01*
X106287178Y-111333978D02*
X106287178Y-112436680D01*
X117780000Y-122860000D02*
X117800000Y-122840000D01*
X117800000Y-122840000D02*
X117800000Y-121637919D01*
X117800000Y-121637919D02*
X117800000Y-113806411D01*
X105850000Y-109450000D02*
X106693589Y-110293589D01*
X106693589Y-110293589D02*
X106693589Y-112268340D01*
X116428712Y-112621288D02*
X134928712Y-112621288D01*
X106693589Y-112268340D02*
X108281660Y-113856411D01*
X108281660Y-113856411D02*
X115193589Y-113856411D01*
X115193589Y-113856411D02*
X116428712Y-112621288D01*
X134928712Y-112621288D02*
X137550000Y-110000000D01*
X137550000Y-110000000D02*
X137550000Y-96910000D01*
X136409999Y-95769999D02*
X135560000Y-94920000D01*
X137550000Y-96910000D02*
X136409999Y-95769999D01*
X97339693Y-104988705D02*
X97950988Y-105600000D01*
X97339693Y-104860600D02*
X97339693Y-104988705D01*
X96730168Y-104251075D02*
X97339693Y-104860600D01*
X97950988Y-105600000D02*
X98400000Y-105600000D01*
X115240000Y-77140000D02*
X115250000Y-77150000D01*
X105153200Y-88521550D02*
X105153200Y-93446800D01*
X108227010Y-85447740D02*
X105153200Y-88521550D01*
X119876452Y-85447740D02*
X108227010Y-85447740D01*
X119900000Y-85471288D02*
X119876452Y-85447740D01*
X105153200Y-93446800D02*
X104600000Y-94000000D01*
X104600000Y-94000000D02*
X104600000Y-94300000D01*
X123642296Y-85471288D02*
X119900000Y-85471288D01*
X119900000Y-85471288D02*
X119900000Y-86050000D01*
X135560000Y-97460000D02*
X135560000Y-97388992D01*
X135560000Y-97388992D02*
X123642296Y-85471288D01*
X123995771Y-85064877D02*
X123972223Y-85041329D01*
X123972223Y-85041329D02*
X107508671Y-85041329D01*
X107508671Y-85041329D02*
X102850000Y-89700000D01*
X102850000Y-89700000D02*
X102850000Y-89746800D01*
X102850000Y-89746800D02*
X102850000Y-90600000D01*
X123995771Y-85064877D02*
X123995771Y-78544229D01*
X123995771Y-78544229D02*
X125400000Y-77140000D01*
X135950000Y-96200000D02*
X135130894Y-96200000D01*
X135130894Y-96200000D02*
X123995771Y-85064877D01*
X136850000Y-97100000D02*
X135950000Y-96200000D01*
X136850000Y-98710000D02*
X136850000Y-97100000D01*
X135560000Y-100000000D02*
X136850000Y-98710000D01*
X108395349Y-85854151D02*
X118276452Y-85854151D01*
X101754300Y-95293591D02*
X105106909Y-95293591D01*
X99799620Y-97248271D02*
X101754300Y-95293591D01*
X120265659Y-87843358D02*
X124700000Y-87843358D01*
X105106909Y-95293591D02*
X105637178Y-94763322D01*
X105637178Y-88612322D02*
X108395349Y-85854151D01*
X105637178Y-94763322D02*
X105637178Y-88612322D01*
X118276452Y-85854151D02*
X120265659Y-87843358D01*
X134710001Y-101690001D02*
X135560000Y-102540000D01*
X131950000Y-98930000D02*
X134710001Y-101690001D01*
X131950000Y-95093358D02*
X131950000Y-98930000D01*
X124700000Y-87843358D02*
X131950000Y-95093358D01*
X124906642Y-87843358D02*
X125000000Y-87750000D01*
X124700000Y-87843358D02*
X124906642Y-87843358D01*
X91825908Y-94119261D02*
X92143407Y-93801762D01*
X90511666Y-95433503D02*
X91825908Y-94119261D01*
X91569101Y-99543353D02*
X90511666Y-98485919D01*
X91569101Y-100756149D02*
X91569101Y-99543353D01*
X89059958Y-101622727D02*
X90702523Y-101622727D01*
X88200721Y-102481964D02*
X89059958Y-101622727D01*
X90511666Y-98485919D02*
X90511666Y-95433503D01*
X90702523Y-101622727D02*
X91569101Y-100756149D01*
X96524286Y-92753887D02*
X97246113Y-92753887D01*
X97582501Y-92417499D02*
X97900000Y-92100000D01*
X97246113Y-92753887D02*
X97582501Y-92417499D01*
X95914761Y-93363412D02*
X96524286Y-92753887D01*
X88554543Y-102835787D02*
X89340330Y-102050000D01*
X89340330Y-102050000D02*
X90850000Y-102050000D01*
X90918077Y-95907172D02*
X92850002Y-93975248D01*
X90850000Y-102050000D02*
X91975512Y-100924488D01*
X91975512Y-100924488D02*
X91975512Y-99375014D01*
X91975512Y-99375014D02*
X90918077Y-98317579D01*
X90918077Y-98317579D02*
X90918077Y-95907172D01*
X92850002Y-93975248D02*
X92850002Y-93799012D01*
X92850002Y-93799012D02*
X92850002Y-93350000D01*
X88554543Y-102835787D02*
X88535787Y-102835787D01*
X111545199Y-75754801D02*
X112700000Y-74600000D01*
X93600002Y-87000000D02*
X100950002Y-79650000D01*
X100950002Y-79650000D02*
X109359106Y-79650000D01*
X109359106Y-79650000D02*
X111545199Y-77463907D01*
X111545199Y-77463907D02*
X111545199Y-75754801D01*
X95414795Y-103522296D02*
X95639605Y-103297486D01*
X95414795Y-104347398D02*
X95414795Y-103522296D01*
X96024320Y-104956923D02*
X95414795Y-104347398D01*
X112700000Y-77140000D02*
X109140000Y-80700000D01*
X89620275Y-102477699D02*
X88908365Y-103189609D01*
X109140000Y-80700000D02*
X101450000Y-80700000D01*
X101450000Y-80700000D02*
X93900000Y-88250000D01*
X93900000Y-88250000D02*
X93900000Y-91673642D01*
X93900000Y-91673642D02*
X93500000Y-92073642D01*
X93500000Y-92073642D02*
X93500000Y-93900000D01*
X92381923Y-99206673D02*
X92381922Y-101457848D01*
X93500000Y-93900000D02*
X91324488Y-96075512D01*
X91324488Y-96075512D02*
X91324488Y-98149239D01*
X91324488Y-98149239D02*
X92381923Y-99206673D01*
X92381922Y-101457848D02*
X91362071Y-102477699D01*
X91362071Y-102477699D02*
X89620275Y-102477699D01*
X91730899Y-96469101D02*
X91730899Y-97829911D01*
X93972302Y-94227698D02*
X91730899Y-96469101D01*
X93972302Y-92176091D02*
X93972302Y-94227698D01*
X94306411Y-91841982D02*
X93972302Y-92176091D01*
X94306411Y-88843589D02*
X94306411Y-91841982D01*
X109949106Y-81600000D02*
X101550000Y-81600000D01*
X92400988Y-98500000D02*
X92850000Y-98500000D01*
X114085199Y-75754801D02*
X114085199Y-77463907D01*
X115240000Y-74600000D02*
X114085199Y-75754801D01*
X101550000Y-81600000D02*
X94306411Y-88843589D01*
X114085199Y-77463907D02*
X109949106Y-81600000D01*
X91730899Y-97829911D02*
X92400988Y-98500000D01*
X88850000Y-100950000D02*
X88320989Y-100950000D01*
X88320989Y-100950000D02*
X87494873Y-101776116D01*
X96378142Y-104603101D02*
X97050000Y-105274959D01*
X97050000Y-105274959D02*
X97050000Y-107000000D01*
X95670498Y-105310745D02*
X96280023Y-105920270D01*
X96280023Y-105920270D02*
X96280023Y-106969977D01*
X96280023Y-106969977D02*
X95650000Y-107600000D01*
X87700000Y-93805618D02*
X87700000Y-93650000D01*
X89021517Y-95127135D02*
X87700000Y-93805618D01*
X93500000Y-99400000D02*
X94600000Y-98300000D01*
X90321858Y-104603101D02*
X90931383Y-103993576D01*
X90931383Y-103993576D02*
X91006424Y-103993576D01*
X94600000Y-97800000D02*
X96300000Y-96100000D01*
X91006424Y-103993576D02*
X92866974Y-102133026D01*
X92866974Y-102133026D02*
X92866974Y-102122302D01*
X92866974Y-102122302D02*
X93500000Y-101489276D01*
X93500000Y-101489276D02*
X93500000Y-99400000D01*
X94600000Y-98300000D02*
X94600000Y-97800000D01*
X128450000Y-82900000D02*
X130450000Y-82900000D01*
X128450000Y-82900000D02*
X130480000Y-80870000D01*
X130480000Y-80870000D02*
X130480000Y-77140000D01*
X97250000Y-100300000D02*
X97850000Y-100900000D01*
D63*
X97971700Y-101021700D02*
X97971700Y-101954385D01*
X97971700Y-101954385D02*
X98499279Y-102481964D01*
D56*
X97971700Y-101021700D02*
X97250000Y-100300000D01*
X118400000Y-101550000D02*
X119438000Y-101550000D01*
X119438000Y-101550000D02*
X119448000Y-101540000D01*
X119447999Y-92040000D02*
X115400000Y-96087999D01*
X119447999Y-91740000D02*
X119447999Y-92040000D01*
X115400000Y-96087999D02*
X115400000Y-96100000D01*
X85900000Y-98248651D02*
X85900000Y-98350000D01*
X86546558Y-97602093D02*
X85900000Y-98248651D01*
X130480000Y-122860000D02*
X130480000Y-120969994D01*
X130480000Y-120969994D02*
X130499994Y-120950000D01*
X97207308Y-101567499D02*
X96889809Y-101250000D01*
X97535932Y-101896123D02*
X97207308Y-101567499D01*
X98145457Y-102835787D02*
X97535932Y-102226262D01*
X97535932Y-102226262D02*
X97535932Y-101896123D01*
X118850000Y-104900000D02*
X119488000Y-104900000D01*
X119488000Y-104900000D02*
X119548000Y-104840000D01*
X85467499Y-97382501D02*
X85150000Y-97700000D01*
X85832260Y-96638746D02*
X85467499Y-97003507D01*
X86290855Y-96638746D02*
X85832260Y-96638746D01*
X85467499Y-97003507D02*
X85467499Y-97382501D01*
X86900380Y-97248271D02*
X86290855Y-96638746D01*
X127940000Y-122860000D02*
X127940000Y-118560000D01*
X127940000Y-118560000D02*
X127950000Y-118550000D01*
X117017499Y-95782501D02*
X116700000Y-96100000D01*
X117760000Y-95040000D02*
X117017499Y-95782501D01*
X119448000Y-95040000D02*
X117760000Y-95040000D01*
X98749992Y-104147966D02*
X98749992Y-104150000D01*
X97791635Y-103189609D02*
X98749992Y-104147966D01*
X119450000Y-109250000D02*
X119450000Y-108238000D01*
X119450000Y-108238000D02*
X119548000Y-108140000D01*
X86559753Y-96200000D02*
X85350000Y-96200000D01*
X87254202Y-96894449D02*
X86559753Y-96200000D01*
X85017499Y-96532501D02*
X84700000Y-96850000D01*
X85350000Y-96200000D02*
X85017499Y-96532501D01*
X125400000Y-115800000D02*
X125550000Y-115650000D01*
X125400000Y-122860000D02*
X125400000Y-115800000D01*
X118008000Y-96700000D02*
X117950000Y-96700000D01*
X119448000Y-98140000D02*
X118008000Y-96700000D01*
X119448000Y-98440000D02*
X119448000Y-98140000D01*
X103799140Y-123100860D02*
X103799140Y-124049140D01*
X103799140Y-124049140D02*
X107000000Y-127250000D01*
X107000000Y-127250000D02*
X110850000Y-127250000D01*
X110850000Y-127250000D02*
X112700000Y-125400000D01*
X98032306Y-95480957D02*
X95400006Y-98113257D01*
X95400006Y-98113257D02*
X95400006Y-98200000D01*
X105150000Y-111599012D02*
X105150000Y-111150000D01*
X103799140Y-123100860D02*
X105150000Y-121750000D01*
X105150000Y-121750000D02*
X105150000Y-111599012D01*
X102855460Y-123100860D02*
X103799140Y-123100860D01*
X62567499Y-124117499D02*
X62250000Y-123800000D01*
X62699520Y-124249520D02*
X62567499Y-124117499D01*
X62699520Y-125375520D02*
X62699520Y-124249520D01*
X62699520Y-125375520D02*
X62699520Y-123700480D01*
X62699520Y-123700480D02*
X62950000Y-123450000D01*
X54499260Y-97012960D02*
X55268880Y-97012960D01*
X55268880Y-97012960D02*
X55830220Y-97574300D01*
X52800000Y-97274580D02*
X54237640Y-97274580D01*
X54237640Y-97274580D02*
X54499260Y-97012960D01*
X52551080Y-99037340D02*
X52551080Y-97523500D01*
X52551080Y-97523500D02*
X52800000Y-97274580D01*
X52551080Y-100962660D02*
X52551080Y-99037340D01*
X52800000Y-102725420D02*
X52800000Y-101211580D01*
X52800000Y-101211580D02*
X52551080Y-100962660D01*
X54499260Y-102987040D02*
X53061620Y-102987040D01*
X53061620Y-102987040D02*
X52800000Y-102725420D01*
X55830220Y-102425700D02*
X55060600Y-102425700D01*
X55060600Y-102425700D02*
X54499260Y-102987040D01*
X58550000Y-104850000D02*
X57971800Y-104850000D01*
X55830220Y-102708420D02*
X55830220Y-102425700D01*
X57971800Y-104850000D02*
X55830220Y-102708420D01*
X66987040Y-126500740D02*
X70149260Y-126500740D01*
X70149260Y-126500740D02*
X70250000Y-126400000D01*
X66987040Y-126500740D02*
X66987040Y-125731120D01*
X66987040Y-125731120D02*
X66425700Y-125169780D01*
X66725420Y-128200000D02*
X66725420Y-126762360D01*
X66725420Y-126762360D02*
X66987040Y-126500740D01*
X64962660Y-128448920D02*
X66476500Y-128448920D01*
X66476500Y-128448920D02*
X66725420Y-128200000D01*
X63037340Y-128448920D02*
X64962660Y-128448920D01*
X61274580Y-128200000D02*
X62788420Y-128200000D01*
X62788420Y-128200000D02*
X63037340Y-128448920D01*
X61012960Y-126500740D02*
X61012960Y-127938380D01*
X61012960Y-127938380D02*
X61274580Y-128200000D01*
X61574300Y-125169780D02*
X61574300Y-125939400D01*
X61574300Y-125939400D02*
X61012960Y-126500740D01*
X106832501Y-88667499D02*
X107150000Y-88350000D01*
X101355535Y-96400000D02*
X104575250Y-96400000D01*
X104575250Y-96400000D02*
X106043589Y-94931661D01*
X106043589Y-89456411D02*
X106832501Y-88667499D01*
X106043589Y-94931661D02*
X106043589Y-89456411D01*
X100153442Y-97602093D02*
X101355535Y-96400000D01*
X107782501Y-88667499D02*
X108100000Y-88350000D01*
X106450000Y-90000000D02*
X107782501Y-88667499D01*
X101850000Y-96950000D02*
X104600000Y-96950000D01*
X104600000Y-96950000D02*
X106450000Y-95100000D01*
X98949424Y-99850576D02*
X101850000Y-96950000D01*
X99558949Y-101422294D02*
X98949424Y-100812769D01*
X98949424Y-100812769D02*
X98949424Y-99850576D01*
X106450000Y-95100000D02*
X106450000Y-90000000D01*
X64367505Y-101682501D02*
X64050006Y-102000000D01*
X64662506Y-101387500D02*
X64367505Y-101682501D01*
X65292500Y-101387500D02*
X64662506Y-101387500D01*
X55624480Y-100650240D02*
X58950240Y-100650240D01*
X58950240Y-100650240D02*
X59232501Y-100932501D01*
X59232501Y-100932501D02*
X59550000Y-101250000D01*
X98848845Y-98648847D02*
X98899998Y-98700000D01*
X98848845Y-97491402D02*
X98848845Y-98648847D01*
X99458370Y-96881877D02*
X98848845Y-97491402D01*
X94600000Y-112650000D02*
X101250000Y-106000000D01*
X101250000Y-106000000D02*
X101250000Y-104300000D01*
X93546390Y-112650000D02*
X94600000Y-112650000D01*
X93099320Y-114139740D02*
X93099320Y-113097070D01*
X93099320Y-113097070D02*
X93546390Y-112650000D01*
X102700000Y-94300000D02*
X102040247Y-94300000D01*
X102040247Y-94300000D02*
X99458370Y-96881877D01*
X98335123Y-97297480D02*
X98335123Y-98114887D01*
X98335123Y-98114887D02*
X94867509Y-101582501D01*
X94867509Y-101582501D02*
X94550010Y-101900000D01*
X99091976Y-96540627D02*
X98335123Y-97297480D01*
X99091976Y-96540627D02*
X102050000Y-93582603D01*
X102050000Y-93582603D02*
X102050000Y-92450000D01*
X94199140Y-114139740D02*
X94199140Y-115350860D01*
X94199140Y-115350860D02*
X94150000Y-115400000D01*
X98386128Y-95834779D02*
X96022307Y-98198600D01*
X96022307Y-98198600D02*
X96022307Y-98498701D01*
X96022307Y-98498701D02*
X94500000Y-100021008D01*
X94500000Y-100021008D02*
X94500000Y-100300988D01*
X94500000Y-100300988D02*
X94500000Y-100750000D01*
X95298960Y-114139740D02*
X95298960Y-115198960D01*
X95298960Y-115198960D02*
X95350000Y-115250000D01*
X95868043Y-99533045D02*
X95550544Y-99850544D01*
X96428713Y-98972375D02*
X95868043Y-99533045D01*
X96428713Y-98496246D02*
X96428713Y-98972375D01*
X98738154Y-96186805D02*
X96428713Y-98496246D01*
X99347679Y-95577280D02*
X98738154Y-96186805D01*
X99397471Y-95577280D02*
X99347679Y-95577280D01*
X100950000Y-94024751D02*
X99397471Y-95577280D01*
X100950000Y-90600000D02*
X100950000Y-94024751D01*
X97501140Y-114139740D02*
X97501140Y-115201140D01*
X97501140Y-115201140D02*
X97550000Y-115250000D01*
X99700780Y-114139740D02*
X99700780Y-108664124D01*
X100460191Y-107904713D02*
X100777690Y-107587214D01*
X99700780Y-108664124D02*
X100460191Y-107904713D01*
X97083990Y-103897253D02*
X97836737Y-104650000D01*
X97836737Y-104650000D02*
X97950000Y-104650000D01*
X100777690Y-109250000D02*
X101750000Y-109250000D01*
X101750000Y-109250000D02*
X102200000Y-109700000D01*
X96828288Y-102265565D02*
X96906784Y-102187069D01*
X96828288Y-102933906D02*
X96828288Y-102265565D01*
X97437813Y-103543431D02*
X96828288Y-102933906D01*
X100800600Y-109272910D02*
X100777690Y-109250000D01*
X100800600Y-114139740D02*
X100800600Y-109272910D01*
X102210300Y-114050840D02*
X102210300Y-114500418D01*
X99960718Y-116750000D02*
X91296330Y-116750000D01*
X102210300Y-114500418D02*
X99960718Y-116750000D01*
X91296330Y-116750000D02*
X89550940Y-115004610D01*
X89550940Y-115004610D02*
X89550940Y-114050840D01*
X89251220Y-128899680D02*
X89251220Y-114350560D01*
X89251220Y-114350560D02*
X89550940Y-114050840D01*
X102748780Y-128899680D02*
X101795010Y-128899680D01*
X101795010Y-128899680D02*
X89251220Y-128899680D01*
X90777690Y-91505724D02*
X90777690Y-91056712D01*
X90777690Y-91933391D02*
X90777690Y-91505724D01*
X91496475Y-92652176D02*
X90777690Y-91933391D01*
X70877413Y-97769387D02*
X71086600Y-97769387D01*
X70582500Y-98064300D02*
X70877413Y-97769387D01*
X70582500Y-98387500D02*
X70582500Y-98064300D01*
X74100000Y-93650000D02*
X73400000Y-93650000D01*
X73400000Y-93650000D02*
X73100000Y-93950000D01*
X68687500Y-97492500D02*
X68687500Y-96330010D01*
X68687500Y-96330010D02*
X68700000Y-96317510D01*
X91142653Y-93005998D02*
X90000000Y-91863345D01*
X90000000Y-91863345D02*
X90000000Y-91450000D01*
X70950000Y-93450000D02*
X70950000Y-93900000D01*
X70950000Y-93900000D02*
X71000000Y-93950000D01*
X67800000Y-93350000D02*
X68300000Y-93350000D01*
X68300000Y-93350000D02*
X68900000Y-93950000D01*
X90788831Y-93359820D02*
X89050000Y-91620989D01*
X89050000Y-91620989D02*
X89050000Y-91050000D01*
X67187500Y-97492500D02*
X67187500Y-95362500D01*
X67187500Y-95362500D02*
X68600000Y-93950000D01*
X68600000Y-93950000D02*
X68900000Y-93950000D01*
X65292500Y-100887500D02*
X64282420Y-100887500D01*
X64282420Y-100887500D02*
X64084960Y-101084960D01*
X64100000Y-94500000D02*
X64100000Y-94050000D01*
X64100000Y-94050000D02*
X64000000Y-93950000D01*
X93900000Y-97500988D02*
X93900000Y-97950000D01*
X93900000Y-96085817D02*
X93900000Y-97500988D01*
X96268583Y-93717234D02*
X93900000Y-96085817D01*
X87600000Y-119450000D02*
X87600000Y-115750000D01*
X87600000Y-115750000D02*
X87800000Y-115550000D01*
X82900000Y-124450000D02*
X82900000Y-124150000D01*
X82900000Y-124150000D02*
X87600000Y-119450000D01*
X78750000Y-126050000D02*
X78750000Y-125046800D01*
X78750000Y-125046800D02*
X79346800Y-124450000D01*
X79346800Y-124450000D02*
X82346800Y-124450000D01*
X82346800Y-124450000D02*
X82900000Y-124450000D01*
D63*
X89262187Y-103543431D02*
X89871712Y-102933906D01*
X89871712Y-102933906D02*
X90533906Y-102933906D01*
X90533906Y-102933906D02*
X90800000Y-103200000D01*
D56*
X86032501Y-108917503D02*
X86350000Y-108600004D01*
X81200000Y-109150000D02*
X85800004Y-109150000D01*
X85800004Y-109150000D02*
X86032501Y-108917503D01*
X81200000Y-109150000D02*
X81200000Y-108650000D01*
X81200000Y-108650000D02*
X80550000Y-108000000D01*
X67187500Y-102782500D02*
X67187500Y-103965044D01*
X67187500Y-103965044D02*
X66965370Y-104187174D01*
X65292500Y-101887500D02*
X65292500Y-103157500D01*
X65292500Y-103157500D02*
X64600000Y-103850000D01*
X64600000Y-103850000D02*
X64300000Y-103850000D01*
D62*
X81900988Y-106000002D02*
X82350000Y-106000002D01*
X76250000Y-108050000D02*
X78299998Y-106000002D01*
X71600000Y-108050000D02*
X76250000Y-108050000D01*
X78299998Y-106000002D02*
X81900988Y-106000002D01*
X92453658Y-96982920D02*
X92453658Y-97431932D01*
X94650000Y-94269811D02*
X92453658Y-96466153D01*
X92453658Y-96466153D02*
X92453658Y-96982920D01*
X94650000Y-93920529D02*
X94650000Y-94269811D01*
D56*
X94650000Y-93920529D02*
X95560939Y-93009590D01*
D62*
X78200000Y-105150000D02*
X80950988Y-105150000D01*
X68382499Y-105644401D02*
X69722857Y-106984759D01*
X68382499Y-105382499D02*
X68382499Y-105644401D01*
X68187500Y-105187500D02*
X68382499Y-105382499D01*
X76365241Y-106984759D02*
X78200000Y-105150000D01*
X80950988Y-105150000D02*
X81400000Y-105150000D01*
X69722857Y-106984759D02*
X76365241Y-106984759D01*
X90000008Y-97377822D02*
X89842556Y-97535274D01*
X89842556Y-97535274D02*
X89842556Y-97799696D01*
X90000008Y-96199992D02*
X90000008Y-97377822D01*
D56*
X90000008Y-96199992D02*
X90000008Y-95397982D01*
X90000008Y-95397982D02*
X89375339Y-94773313D01*
X68187500Y-102782500D02*
X68187500Y-105187500D01*
D62*
X79750988Y-104400000D02*
X80200000Y-104400000D01*
X79599377Y-104248389D02*
X79750988Y-104400000D01*
X69601800Y-103900000D02*
X69950189Y-104248389D01*
X69950189Y-104248389D02*
X79599377Y-104248389D01*
X88942181Y-97657819D02*
X88942181Y-97953368D01*
X89450000Y-97150000D02*
X88942181Y-97657819D01*
D56*
X89450000Y-97150000D02*
X89450000Y-96263263D01*
X89450000Y-96263263D02*
X88667694Y-95480957D01*
X69187500Y-103485700D02*
X69601800Y-103900000D01*
X69187500Y-102782500D02*
X69187500Y-103485700D01*
D62*
X80383735Y-102982485D02*
X80551234Y-102814986D01*
X79472369Y-102982485D02*
X80383735Y-102982485D01*
X71631531Y-101500039D02*
X77989924Y-101500040D01*
X71528087Y-101396595D02*
X71631531Y-101500039D01*
X77989924Y-101500040D02*
X79472369Y-102982485D01*
X87750000Y-98321371D02*
X87762949Y-98334320D01*
X87750000Y-98100000D02*
X87750000Y-98321371D01*
D56*
X88923397Y-96444304D02*
X88313872Y-95834779D01*
X87750000Y-98062782D02*
X88923397Y-96889385D01*
X87750000Y-98100000D02*
X87750000Y-98062782D01*
X88923397Y-96889385D02*
X88923397Y-96444304D01*
X71537182Y-101387500D02*
X71528087Y-101396595D01*
X70582500Y-101387500D02*
X71537182Y-101387500D01*
D62*
X83667499Y-100267499D02*
X83350000Y-99950000D01*
X84114650Y-100714650D02*
X83667499Y-100267499D01*
X86399337Y-100714650D02*
X84114650Y-100714650D01*
X78509479Y-100950030D02*
X79506925Y-101947476D01*
X71859353Y-100950030D02*
X78509479Y-100950030D01*
X79506925Y-101947476D02*
X79824424Y-102264975D01*
D56*
X70582500Y-100887500D02*
X71670218Y-100887500D01*
X71670218Y-100887500D02*
X71684348Y-100901630D01*
X71684348Y-100901630D02*
X71810953Y-100901630D01*
X71810953Y-100901630D02*
X71859353Y-100950030D01*
X70582500Y-100887500D02*
X71678117Y-100887500D01*
X71678117Y-100887500D02*
X71834224Y-100975159D01*
D62*
X80981508Y-103532496D02*
X83721338Y-106272326D01*
X76938762Y-102050050D02*
X78421208Y-103532496D01*
X71263431Y-101909770D02*
X71403711Y-102050050D01*
X83721338Y-106411736D02*
X83721338Y-106860748D01*
X78421208Y-103532496D02*
X80981508Y-103532496D01*
X83721338Y-106272326D02*
X83721338Y-106411736D01*
X71403711Y-102050050D02*
X76938762Y-102050050D01*
D56*
X87848695Y-102129938D02*
X87158439Y-102820194D01*
X87158439Y-102820194D02*
X87158439Y-103293320D01*
X71285700Y-101887500D02*
X71263431Y-101909770D01*
X70582500Y-101887500D02*
X71285700Y-101887500D01*
X70582500Y-101887500D02*
X70962500Y-101887500D01*
D62*
X84550000Y-106100988D02*
X84550000Y-106550000D01*
X84550000Y-105753913D02*
X84550000Y-106100988D01*
X71892121Y-100400020D02*
X79196107Y-100400020D01*
X79196107Y-100400020D02*
X84550000Y-105753913D01*
D56*
X88249012Y-104650000D02*
X88861525Y-104650000D01*
X88861525Y-104650000D02*
X89013133Y-104498392D01*
X89013133Y-104498392D02*
X89014871Y-104498392D01*
X89014871Y-104498392D02*
X89616010Y-103897253D01*
D62*
X87800000Y-104650000D02*
X88249012Y-104650000D01*
D56*
X71178117Y-100387500D02*
X71182738Y-100392121D01*
X70582500Y-100387500D02*
X71178117Y-100387500D01*
X71182738Y-100392121D02*
X71892121Y-100400020D01*
D62*
X85277351Y-106044007D02*
X85782501Y-106549157D01*
X85277351Y-105703431D02*
X85277351Y-106044007D01*
X71999990Y-99850010D02*
X72400000Y-99450000D01*
X71664300Y-99850010D02*
X71999990Y-99850010D01*
X71387500Y-99889110D02*
X71625200Y-99889110D01*
X79023920Y-99450000D02*
X85277351Y-105703431D01*
X85782501Y-106549157D02*
X85782501Y-106882501D01*
X85782501Y-106882501D02*
X86100000Y-107200000D01*
X72400000Y-99450000D02*
X79023920Y-99450000D01*
X71625200Y-99889110D02*
X71664300Y-99850010D01*
X87911329Y-105376767D02*
X88844140Y-105376767D01*
X88844140Y-105376767D02*
X89220907Y-105000000D01*
X87629503Y-105376767D02*
X87180491Y-105376767D01*
X87911329Y-105376767D02*
X87629503Y-105376767D01*
D56*
X70582500Y-99887500D02*
X71387500Y-99889110D01*
X89969832Y-104251075D02*
X89220907Y-105000000D01*
D62*
X89296853Y-106618498D02*
X89296853Y-107067510D01*
X89296853Y-106253147D02*
X89296853Y-106618498D01*
X89650000Y-105900000D02*
X89296853Y-106253147D01*
X71700000Y-99300000D02*
X72250000Y-98750000D01*
X85827362Y-105816185D02*
X86750527Y-106739350D01*
X86750527Y-106739350D02*
X87120712Y-106739350D01*
X79447190Y-98750000D02*
X85827362Y-105130172D01*
X85827362Y-105130172D02*
X85827362Y-105816185D01*
X87120712Y-106739350D02*
X87438211Y-107056849D01*
X72250000Y-98750000D02*
X79447190Y-98750000D01*
D56*
X71373200Y-99300000D02*
X71700000Y-99300000D01*
X71285700Y-99387500D02*
X71373200Y-99300000D01*
X70582500Y-99387500D02*
X71285700Y-99387500D01*
X90675680Y-104956923D02*
X89732603Y-105900000D01*
X89732603Y-105900000D02*
X89650000Y-105900000D01*
D62*
X71482501Y-98708116D02*
X72290617Y-97900000D01*
X86377373Y-105588363D02*
X86916081Y-106127071D01*
X72290617Y-97900000D02*
X79375023Y-97900000D01*
X79375023Y-97900000D02*
X86377373Y-104902350D01*
X86377373Y-104902350D02*
X86377373Y-105588363D01*
X86916081Y-106127071D02*
X87827528Y-106127071D01*
X87827528Y-106127071D02*
X88088256Y-106387799D01*
X90188592Y-106924799D02*
X90506091Y-107242298D01*
X90050000Y-106400000D02*
X90050000Y-106786207D01*
X90050000Y-106786207D02*
X90188592Y-106924799D01*
D56*
X71343828Y-98846789D02*
X71482501Y-98708116D01*
X71144763Y-98887500D02*
X71185474Y-98846789D01*
X70582500Y-98887500D02*
X71144763Y-98887500D01*
X71185474Y-98846789D02*
X71343828Y-98846789D01*
X90050000Y-106400000D02*
X90050000Y-106290247D01*
X90050000Y-106290247D02*
X91029502Y-105310745D01*
D62*
X70650000Y-97200000D02*
X70799989Y-97050011D01*
X70799989Y-97050011D02*
X81900011Y-97050011D01*
X81900011Y-97050011D02*
X84467510Y-99617510D01*
X84467510Y-99617510D02*
X88948898Y-99617510D01*
X88948898Y-99617510D02*
X89836002Y-100504614D01*
X89836002Y-100504614D02*
X89836002Y-100953626D01*
X94150000Y-105200000D02*
X92600000Y-103650000D01*
D56*
X94150000Y-105200000D02*
X94150000Y-105205535D01*
X94150000Y-105205535D02*
X94962854Y-106018389D01*
X70357500Y-97492500D02*
X70650000Y-97200000D01*
X69687500Y-97492500D02*
X70357500Y-97492500D01*
X69687500Y-97112500D02*
X69687500Y-97492500D01*
D62*
X94588915Y-104861084D02*
X94588915Y-104277258D01*
X93446460Y-103134803D02*
X93128961Y-102817304D01*
X94588915Y-104277258D02*
X93446460Y-103134803D01*
X69440272Y-96600000D02*
X69540272Y-96500000D01*
X69540272Y-96500000D02*
X82613996Y-96500000D01*
X89217497Y-99067501D02*
X90432497Y-100282501D01*
X82613996Y-96500000D02*
X85181497Y-99067501D01*
X85181497Y-99067501D02*
X89217497Y-99067501D01*
X90432497Y-100282501D02*
X90749996Y-100600000D01*
D56*
X69187500Y-96852772D02*
X69440272Y-96600000D01*
X69187500Y-97492500D02*
X69187500Y-96852772D01*
X94588915Y-104861084D02*
X94588915Y-104936806D01*
X94588915Y-104936806D02*
X95316676Y-105664567D01*
D62*
X67700000Y-96250000D02*
X68400000Y-95550000D01*
X83650988Y-95550000D02*
X84100000Y-95550000D01*
X68400000Y-95550000D02*
X83650988Y-95550000D01*
D56*
X97324661Y-94773313D02*
X96715136Y-95382838D01*
X95782753Y-95382838D02*
X95730805Y-95330890D01*
X96715136Y-95382838D02*
X95782753Y-95382838D01*
X67700000Y-96250000D02*
X67687500Y-96262500D01*
X67687500Y-96262500D02*
X67687500Y-97492500D01*
X64400000Y-99500000D02*
X64484101Y-99415899D01*
X64484101Y-99415899D02*
X65264101Y-99415899D01*
X65264101Y-99415899D02*
X65292500Y-99387500D01*
D64*
X63400000Y-99500000D02*
X64400000Y-99500000D01*
X63200000Y-99700000D02*
X63400000Y-99500000D01*
X55624480Y-99349760D02*
X60550240Y-99349760D01*
X60550240Y-99349760D02*
X60800000Y-99100000D01*
X60800000Y-99100000D02*
X61300000Y-99100000D01*
X61300000Y-99100000D02*
X61700000Y-98700000D01*
D56*
X64600000Y-98900000D02*
X65280000Y-98900000D01*
X65280000Y-98900000D02*
X65292500Y-98887500D01*
D64*
X62700000Y-98900000D02*
X64600000Y-98900000D01*
X61000000Y-100000000D02*
X61100000Y-99900000D01*
X62700000Y-98900000D02*
X62000000Y-99600000D01*
X55624480Y-100000000D02*
X61000000Y-100000000D01*
X100150000Y-103250000D02*
X100150000Y-106150000D01*
X100150000Y-106150000D02*
X94462500Y-111837500D01*
X94462500Y-111837500D02*
X88769088Y-111837500D01*
X88769088Y-111837500D02*
X77869088Y-122737500D01*
X77869088Y-122737500D02*
X65612500Y-122737500D01*
X65612500Y-122737500D02*
X63962380Y-124387620D01*
X63962380Y-124387620D02*
X63962380Y-124662260D01*
X63962380Y-124662260D02*
X64000000Y-124699880D01*
X64000000Y-124699880D02*
X64000000Y-125375520D01*
D56*
X99205127Y-101776116D02*
X100150000Y-102720989D01*
X100150000Y-102720989D02*
X100150000Y-103250000D01*
D64*
X99496812Y-103146812D02*
X99496812Y-105990028D01*
X77630912Y-122162500D02*
X65287500Y-122162500D01*
X99496812Y-105990028D02*
X94224340Y-111262500D01*
X94224340Y-111262500D02*
X88530912Y-111262500D01*
X88530912Y-111262500D02*
X77630912Y-122162500D01*
X65287500Y-122162500D02*
X63349760Y-124100240D01*
X63349760Y-124100240D02*
X63349760Y-125375520D01*
D56*
X99496812Y-102812282D02*
X99496812Y-103146812D01*
X99500000Y-102778633D02*
X99500000Y-102809094D01*
X99500000Y-102809094D02*
X99496812Y-102812282D01*
X98851305Y-102129938D02*
X99500000Y-102778633D01*
M02*
